{"glyphs":{"0":{"ha":833,"x_min":81,"x_max":753,"o":"m 417 -11 q 166 117 251 -11 q 81 489 81 244 q 166 863 81 736 q 417 990 251 990 q 668 864 583 990 q 753 490 753 738 q 667 117 753 246 q 417 -11 581 -11 m 417 65 q 604 169 543 65 q 665 490 665 274 q 605 812 665 710 q 417 914 544 914 q 229 811 290 914 q 168 490 168 708 q 229 169 168 274 q 417 65 290 65 z "},"1":{"ha":833,"x_min":182,"x_max":703,"o":"m 182 0 l 182 75 l 407 75 l 407 872 l 228 756 l 189 821 l 431 979 l 492 979 l 492 75 l 703 75 l 703 0 l 182 0 z "},"2":{"ha":833,"x_min":97,"x_max":743,"o":"m 131 0 l 131 64 l 474 438 q 581 587 547 518 q 615 728 615 656 q 561 865 615 818 q 403 913 507 913 q 133 796 247 913 l 97 865 q 233 956 150 921 q 407 990 315 990 q 626 923 549 990 q 703 732 703 856 q 659 559 703 644 q 528 379 615 474 l 242 75 l 743 75 l 743 0 l 131 0 z "},"3":{"ha":833,"x_min":82,"x_max":726,"o":"m 408 -11 q 228 19 314 -11 q 82 107 142 49 l 117 176 q 256 92 185 118 q 408 67 326 67 q 581 118 521 67 q 640 267 640 169 q 578 410 640 361 q 400 460 517 460 l 261 460 l 261 535 l 393 535 q 553 589 494 535 q 613 739 613 643 q 558 867 613 822 q 404 913 504 913 q 133 796 247 913 l 99 865 q 234 957 151 924 q 407 990 317 990 q 622 925 544 990 q 700 743 700 860 q 657 597 700 660 q 540 506 614 533 q 678 419 629 483 q 726 263 726 356 q 642 63 726 136 q 408 -11 557 -11 z "},"4":{"ha":833,"x_min":78,"x_max":778,"o":"m 542 0 l 542 221 l 78 221 l 78 286 l 556 979 l 628 979 l 628 296 l 778 296 l 778 221 l 628 221 l 628 0 l 542 0 m 542 296 l 542 831 l 172 296 l 542 296 z "},"5":{"ha":833,"x_min":121,"x_max":763,"o":"m 443 -11 q 265 19 350 -11 q 121 107 181 50 l 156 176 q 292 93 222 119 q 443 67 363 67 q 614 129 551 67 q 676 292 676 192 q 617 463 676 396 q 453 531 557 531 q 219 403 303 531 l 153 403 l 153 979 l 704 979 l 704 904 l 238 904 l 238 514 q 335 583 276 558 q 464 608 393 608 q 622 569 556 608 q 726 460 689 531 q 763 299 763 390 q 724 138 763 207 q 613 28 685 68 q 443 -11 542 -11 z "},"6":{"ha":833,"x_min":96,"x_max":756,"o":"m 450 -11 q 188 113 279 -11 q 96 463 96 238 q 197 854 96 718 q 481 990 299 990 q 630 958 554 990 q 751 869 706 925 l 717 800 q 605 885 667 857 q 479 913 543 913 q 258 803 336 913 q 181 479 181 694 l 181 397 q 281 552 207 496 q 457 608 356 608 q 612 569 544 608 q 717 460 679 529 q 756 301 756 390 q 716 140 756 210 q 608 29 676 69 q 450 -11 539 -11 m 443 65 q 607 130 544 65 q 669 299 669 194 q 607 467 669 401 q 443 532 544 532 q 279 467 342 532 q 217 299 217 401 q 279 130 217 194 q 443 65 342 65 z "},"7":{"ha":833,"x_min":101,"x_max":732,"o":"m 172 0 l 633 903 l 101 903 l 101 979 l 732 979 l 732 915 l 267 0 l 172 0 z "},"8":{"ha":833,"x_min":74,"x_max":760,"o":"m 417 -11 q 164 59 254 -11 q 74 257 74 129 q 125 415 74 350 q 261 500 176 479 q 141 589 185 526 q 97 732 97 651 q 184 922 97 854 q 417 990 271 990 q 649 922 563 990 q 736 732 736 854 q 692 589 736 651 q 572 500 649 526 q 708 414 657 478 q 760 257 760 350 q 669 59 760 129 q 417 -11 579 -11 m 417 533 q 589 585 526 533 q 651 726 651 636 q 589 867 651 817 q 417 917 526 917 q 244 867 307 917 q 182 726 182 817 q 244 585 182 636 q 417 533 307 533 m 417 63 q 674 261 674 63 q 417 458 674 458 q 160 261 160 458 q 417 63 160 63 z "},"9":{"ha":833,"x_min":78,"x_max":738,"o":"m 353 -11 q 203 22 279 -11 q 82 110 128 54 l 117 179 q 228 94 167 122 q 354 67 290 67 q 575 176 497 67 q 653 500 653 285 l 653 583 q 553 428 628 485 q 376 371 478 371 q 222 410 289 371 q 116 519 154 450 q 78 678 78 589 q 117 840 78 769 q 226 950 157 910 q 383 990 294 990 q 646 866 554 990 q 738 517 738 742 q 636 125 738 261 q 353 -11 535 -11 m 390 447 q 555 513 492 447 q 618 681 618 578 q 555 850 618 785 q 390 915 492 915 q 227 850 290 915 q 164 681 164 785 q 227 513 164 578 q 390 447 290 447 z "},"A":{"ha":1003,"x_min":38,"x_max":965,"o":"m 38 0 l 464 979 l 540 979 l 965 0 l 876 0 l 764 261 l 239 261 l 128 0 l 38 0 m 500 874 l 271 335 l 732 335 l 503 874 l 500 874 z "},"Á":{"ha":1003,"x_min":38,"x_max":965,"o":"m 38 0 l 464 979 l 540 979 l 965 0 l 876 0 l 764 261 l 239 261 l 128 0 l 38 0 m 500 874 l 271 335 l 732 335 l 503 874 l 500 874 m 468 1063 l 632 1300 l 733 1300 l 538 1063 l 468 1063 z "},"Ă":{"ha":1003,"x_min":38,"x_max":965,"o":"m 38 0 l 464 979 l 540 979 l 965 0 l 876 0 l 764 261 l 239 261 l 128 0 l 38 0 m 500 874 l 271 335 l 732 335 l 503 874 l 500 874 m 503 1056 q 348 1118 410 1056 q 276 1289 286 1181 l 335 1296 q 385 1165 340 1211 q 503 1118 431 1118 q 620 1165 575 1118 q 671 1296 665 1211 l 729 1289 q 658 1118 719 1181 q 503 1056 596 1056 z "},"Ắ":{"ha":1003,"x_min":38,"x_max":965,"o":"m 38 0 l 464 979 l 540 979 l 965 0 l 876 0 l 764 261 l 239 261 l 128 0 l 38 0 m 500 874 l 271 335 l 732 335 l 503 874 l 500 874 m 463 1206 l 590 1410 l 688 1410 l 526 1206 l 463 1206 m 503 1056 q 357 1110 413 1056 q 294 1263 301 1165 l 349 1268 q 395 1156 356 1196 q 503 1117 435 1117 q 610 1156 571 1117 q 657 1268 650 1196 l 711 1263 q 649 1110 704 1165 q 503 1056 593 1056 z "},"Ặ":{"ha":1003,"x_min":38,"x_max":965,"o":"m 38 0 l 464 979 l 540 979 l 965 0 l 876 0 l 764 261 l 239 261 l 128 0 l 38 0 m 500 874 l 271 335 l 732 335 l 503 874 l 500 874 m 449 -249 l 449 -144 l 557 -144 l 557 -249 l 449 -249 m 503 1056 q 348 1118 410 1056 q 276 1289 286 1181 l 335 1296 q 385 1165 340 1211 q 503 1118 431 1118 q 620 1165 575 1118 q 671 1296 665 1211 l 729 1289 q 658 1118 719 1181 q 503 1056 596 1056 z "},"Ằ":{"ha":1003,"x_min":38,"x_max":965,"o":"m 38 0 l 464 979 l 540 979 l 965 0 l 876 0 l 764 261 l 239 261 l 128 0 l 38 0 m 500 874 l 271 335 l 732 335 l 503 874 l 500 874 m 479 1206 l 319 1410 l 415 1410 l 543 1206 l 479 1206 m 503 1056 q 357 1110 413 1056 q 294 1263 301 1165 l 349 1268 q 395 1156 356 1196 q 503 1117 435 1117 q 610 1156 571 1117 q 657 1268 650 1196 l 711 1263 q 649 1110 704 1165 q 503 1056 593 1056 z "},"Ẳ":{"ha":1003,"x_min":38,"x_max":965,"o":"m 38 0 l 464 979 l 540 979 l 965 0 l 876 0 l 764 261 l 239 261 l 128 0 l 38 0 m 500 874 l 271 335 l 732 335 l 503 874 l 500 874 m 474 1206 q 487 1256 474 1238 q 517 1285 500 1274 q 548 1308 535 1297 q 561 1336 561 1318 q 494 1365 561 1365 q 454 1361 475 1365 q 408 1349 433 1357 l 394 1394 q 507 1417 439 1417 q 597 1398 565 1417 q 629 1346 629 1379 q 615 1301 629 1317 q 581 1273 600 1285 q 547 1247 561 1261 q 532 1206 532 1232 l 474 1206 m 503 1056 q 357 1110 413 1056 q 294 1263 301 1165 l 349 1268 q 395 1156 356 1196 q 503 1117 435 1117 q 610 1156 571 1117 q 657 1268 650 1196 l 711 1263 q 649 1111 704 1167 q 503 1056 593 1056 z "},"Ẵ":{"ha":1003,"x_min":38,"x_max":965,"o":"m 38 0 l 464 979 l 540 979 l 965 0 l 876 0 l 764 261 l 239 261 l 128 0 l 38 0 m 500 874 l 271 335 l 732 335 l 503 874 l 500 874 m 346 1276 l 292 1279 q 331 1382 297 1347 q 414 1417 364 1417 q 463 1406 440 1417 q 515 1372 486 1394 q 560 1344 544 1351 q 590 1338 576 1338 q 638 1357 622 1338 q 660 1418 653 1376 l 714 1415 q 676 1313 708 1347 q 593 1278 643 1278 q 543 1289 567 1278 q 485 1326 519 1300 q 450 1348 467 1339 q 415 1357 433 1357 q 369 1338 385 1357 q 346 1276 353 1318 m 503 1056 q 368 1096 424 1056 q 294 1207 313 1136 l 349 1215 q 503 1117 382 1117 q 657 1215 624 1117 l 711 1207 q 638 1096 693 1136 q 503 1056 582 1056 z "},"Ǎ":{"ha":1003,"x_min":38,"x_max":965,"o":"m 38 0 l 464 979 l 540 979 l 965 0 l 876 0 l 764 261 l 239 261 l 128 0 l 38 0 m 500 874 l 271 335 l 732 335 l 503 874 l 500 874 m 460 1063 l 290 1300 l 358 1300 l 503 1125 l 647 1300 l 715 1300 l 546 1063 l 460 1063 z "},"Â":{"ha":1003,"x_min":38,"x_max":965,"o":"m 38 0 l 464 979 l 540 979 l 965 0 l 876 0 l 764 261 l 239 261 l 128 0 l 38 0 m 500 874 l 271 335 l 732 335 l 503 874 l 500 874 m 290 1063 l 460 1300 l 546 1300 l 715 1063 l 647 1063 l 503 1238 l 358 1063 l 290 1063 z "},"Ấ":{"ha":1003,"x_min":38,"x_max":965,"o":"m 38 0 l 464 979 l 540 979 l 965 0 l 876 0 l 764 261 l 239 261 l 128 0 l 38 0 m 500 874 l 271 335 l 732 335 l 503 874 l 500 874 m 624 1204 l 744 1413 l 836 1413 l 685 1204 l 624 1204 m 308 1063 l 460 1286 l 546 1286 l 697 1063 l 636 1063 l 503 1225 l 369 1063 l 308 1063 z "},"Ậ":{"ha":1003,"x_min":38,"x_max":965,"o":"m 38 0 l 464 979 l 540 979 l 965 0 l 876 0 l 764 261 l 239 261 l 128 0 l 38 0 m 500 874 l 271 335 l 732 335 l 503 874 l 500 874 m 449 -249 l 449 -144 l 557 -144 l 557 -249 l 449 -249 m 290 1063 l 460 1300 l 546 1300 l 715 1063 l 647 1063 l 503 1238 l 358 1063 l 290 1063 z "},"Ầ":{"ha":1003,"x_min":38,"x_max":965,"o":"m 38 0 l 464 979 l 540 979 l 965 0 l 876 0 l 764 261 l 239 261 l 128 0 l 38 0 m 500 874 l 271 335 l 732 335 l 503 874 l 500 874 m 681 1204 l 529 1413 l 621 1413 l 742 1204 l 681 1204 m 308 1063 l 460 1286 l 546 1286 l 697 1063 l 636 1063 l 503 1225 l 369 1063 l 308 1063 z "},"Ẩ":{"ha":1003,"x_min":38,"x_max":965,"o":"m 38 0 l 464 979 l 540 979 l 965 0 l 876 0 l 764 261 l 239 261 l 128 0 l 38 0 m 500 874 l 271 335 l 732 335 l 503 874 l 500 874 m 638 1204 q 651 1255 638 1236 q 681 1285 664 1274 q 712 1308 699 1297 q 725 1338 725 1319 q 658 1367 725 1367 q 618 1363 639 1367 q 572 1350 597 1358 l 558 1396 q 671 1418 604 1418 q 761 1399 729 1418 q 793 1347 793 1379 q 778 1301 793 1318 q 744 1273 764 1285 q 710 1246 725 1261 q 696 1204 696 1231 l 638 1204 m 308 1063 l 460 1286 l 546 1286 l 697 1063 l 636 1063 l 503 1225 l 369 1063 l 308 1063 z "},"Ẫ":{"ha":1003,"x_min":38,"x_max":965,"o":"m 38 0 l 464 979 l 540 979 l 965 0 l 876 0 l 764 261 l 239 261 l 128 0 l 38 0 m 500 874 l 271 335 l 732 335 l 503 874 l 500 874 m 346 1276 l 292 1279 q 331 1383 297 1349 q 414 1417 364 1417 q 463 1406 440 1417 q 515 1374 486 1396 q 560 1345 544 1351 q 590 1339 576 1339 q 638 1358 622 1339 q 660 1419 653 1376 l 714 1417 q 676 1313 708 1347 q 593 1279 643 1279 q 543 1290 567 1279 q 485 1326 519 1301 q 450 1348 467 1339 q 415 1357 433 1357 q 369 1338 385 1357 q 346 1276 353 1319 m 308 1063 l 460 1244 l 546 1244 l 697 1063 l 638 1063 l 503 1189 l 369 1063 l 308 1063 z "},"Ȁ":{"ha":1003,"x_min":38,"x_max":965,"o":"m 38 0 l 464 979 l 540 979 l 965 0 l 876 0 l 764 261 l 239 261 l 128 0 l 38 0 m 500 874 l 271 335 l 732 335 l 503 874 l 500 874 m 558 1063 l 400 1300 l 492 1300 l 610 1063 l 558 1063 m 396 1063 l 235 1300 l 326 1300 l 447 1063 l 396 1063 z "},"Ä":{"ha":1003,"x_min":38,"x_max":965,"o":"m 38 0 l 464 979 l 540 979 l 965 0 l 876 0 l 764 261 l 239 261 l 128 0 l 38 0 m 500 874 l 271 335 l 732 335 l 503 874 l 500 874 m 568 1129 l 568 1231 l 669 1231 l 669 1129 l 568 1129 m 336 1129 l 336 1231 l 438 1231 l 438 1129 l 336 1129 z "},"Ȧ":{"ha":1003,"x_min":38,"x_max":965,"o":"m 38 0 l 464 979 l 540 979 l 965 0 l 876 0 l 764 261 l 239 261 l 128 0 l 38 0 m 500 874 l 271 335 l 732 335 l 503 874 l 500 874 m 450 1129 l 450 1233 l 556 1233 l 556 1129 l 450 1129 z "},"Ạ":{"ha":1003,"x_min":38,"x_max":965,"o":"m 38 0 l 464 979 l 540 979 l 965 0 l 876 0 l 764 261 l 239 261 l 128 0 l 38 0 m 500 874 l 271 335 l 732 335 l 503 874 l 500 874 m 449 -249 l 449 -144 l 557 -144 l 557 -249 l 449 -249 z "},"À":{"ha":1003,"x_min":38,"x_max":965,"o":"m 38 0 l 464 979 l 540 979 l 965 0 l 876 0 l 764 261 l 239 261 l 128 0 l 38 0 m 500 874 l 271 335 l 732 335 l 503 874 l 500 874 m 468 1063 l 272 1300 l 374 1300 l 538 1063 l 468 1063 z "},"Ả":{"ha":1003,"x_min":38,"x_max":965,"o":"m 38 0 l 464 979 l 540 979 l 965 0 l 876 0 l 764 261 l 239 261 l 128 0 l 38 0 m 500 874 l 271 335 l 732 335 l 503 874 l 500 874 m 471 1063 l 471 1083 q 485 1131 471 1113 q 517 1161 499 1149 q 549 1186 535 1174 q 563 1215 563 1199 q 493 1250 563 1250 q 451 1245 472 1250 q 406 1228 431 1240 l 389 1281 q 507 1307 439 1307 q 602 1284 568 1307 q 636 1224 636 1261 q 621 1176 636 1193 q 585 1147 606 1160 q 551 1119 565 1135 q 536 1076 536 1104 l 536 1063 l 471 1063 z "},"Ȃ":{"ha":1003,"x_min":38,"x_max":965,"o":"m 38 0 l 464 979 l 540 979 l 965 0 l 876 0 l 764 261 l 239 261 l 128 0 l 38 0 m 500 874 l 271 335 l 732 335 l 503 874 l 500 874 m 335 1056 l 276 1063 q 348 1233 286 1171 q 503 1296 410 1296 q 658 1233 596 1296 q 729 1063 719 1171 l 671 1056 q 620 1187 665 1140 q 503 1233 575 1233 q 385 1187 431 1233 q 335 1056 340 1140 z "},"Ā":{"ha":1003,"x_min":38,"x_max":965,"o":"m 38 0 l 464 979 l 540 979 l 965 0 l 876 0 l 764 261 l 239 261 l 128 0 l 38 0 m 500 874 l 271 335 l 732 335 l 503 874 l 500 874 m 282 1136 l 282 1201 l 724 1201 l 724 1136 l 282 1136 z "},"Ą":{"ha":1003,"x_min":38,"x_max":1033,"o":"m 38 0 l 464 979 l 540 979 l 965 0 l 876 0 l 764 261 l 239 261 l 128 0 l 38 0 m 500 874 l 271 335 l 732 335 l 503 874 l 500 874 m 929 -265 q 830 -230 868 -265 q 792 -133 792 -194 q 826 -32 792 -81 q 919 47 860 17 l 954 0 q 890 -47 922 -14 q 858 -125 858 -79 q 882 -186 858 -167 q 940 -206 906 -206 q 1014 -189 975 -206 l 1033 -242 q 929 -265 994 -265 z "},"Å":{"ha":1003,"x_min":38,"x_max":965,"o":"m 38 0 l 464 979 l 540 979 l 965 0 l 876 0 l 764 261 l 239 261 l 128 0 l 38 0 m 500 874 l 271 335 l 732 335 l 503 874 l 500 874 m 503 1054 q 389 1100 435 1054 q 343 1211 343 1146 q 389 1322 343 1276 q 503 1368 435 1368 q 617 1322 571 1368 q 663 1211 663 1276 q 617 1100 663 1146 q 503 1054 571 1054 m 503 1107 q 578 1137 549 1107 q 607 1211 607 1167 q 578 1285 607 1256 q 503 1315 549 1315 q 428 1285 457 1315 q 399 1211 399 1256 q 428 1137 399 1167 q 503 1107 457 1107 z "},"Ǻ":{"ha":1003,"x_min":38,"x_max":965,"o":"m 38 0 l 464 979 l 540 979 l 965 0 l 876 0 l 764 261 l 239 261 l 128 0 l 38 0 m 500 874 l 271 335 l 732 335 l 503 874 l 500 874 m 503 1054 q 390 1099 436 1054 q 344 1210 344 1144 q 390 1319 344 1274 q 503 1364 436 1364 q 596 1335 554 1364 l 699 1431 l 794 1431 l 635 1296 q 661 1210 661 1258 q 615 1099 661 1144 q 503 1054 569 1054 m 503 1104 q 578 1135 549 1104 q 607 1210 607 1165 q 578 1283 607 1253 q 503 1314 549 1314 q 428 1283 457 1314 q 399 1210 399 1253 q 428 1135 399 1165 q 503 1104 457 1104 z "},"Ã":{"ha":1003,"x_min":38,"x_max":965,"o":"m 38 0 l 464 979 l 540 979 l 965 0 l 876 0 l 764 261 l 239 261 l 128 0 l 38 0 m 500 874 l 271 335 l 732 335 l 503 874 l 500 874 m 276 1093 l 222 1097 q 272 1228 231 1182 q 379 1274 314 1274 q 444 1259 411 1274 q 521 1213 476 1244 q 588 1172 565 1183 q 631 1161 611 1161 q 729 1278 711 1161 l 783 1274 q 733 1143 775 1189 q 628 1097 692 1097 q 562 1112 596 1097 q 481 1160 528 1126 q 418 1199 442 1188 q 375 1210 394 1210 q 276 1093 296 1210 z "},"Æ":{"ha":1356,"x_min":-10,"x_max":1286,"o":"m -10 0 l 579 979 l 1286 979 l 1286 906 l 676 906 l 754 533 l 1257 533 l 1257 460 l 771 460 l 853 74 l 1286 74 l 1286 0 l 789 0 l 733 261 l 239 261 l 85 0 l -10 0 m 601 872 l 283 335 l 718 335 l 604 872 l 601 872 z "},"Ǽ":{"ha":1356,"x_min":-10,"x_max":1286,"o":"m -10 0 l 579 979 l 1286 979 l 1286 906 l 676 906 l 754 533 l 1257 533 l 1257 460 l 771 460 l 853 74 l 1286 74 l 1286 0 l 789 0 l 733 261 l 239 261 l 85 0 l -10 0 m 601 872 l 283 335 l 718 335 l 604 872 l 601 872 m 640 1063 l 804 1300 l 906 1300 l 710 1063 l 640 1063 z "},"B":{"ha":932,"x_min":128,"x_max":839,"o":"m 128 0 l 128 979 l 501 979 q 734 913 651 979 q 817 722 817 846 q 774 585 817 642 q 657 501 731 528 q 790 420 742 481 q 839 267 839 360 q 756 68 839 136 q 519 0 672 0 l 128 0 m 211 532 l 492 532 q 669 580 608 532 q 731 719 731 628 q 669 859 731 811 q 492 907 608 907 l 211 907 l 211 532 m 211 72 l 513 72 q 753 265 753 72 q 693 413 753 365 q 513 460 633 460 l 211 460 l 211 72 z "},"Ɓ":{"ha":1088,"x_min":0,"x_max":996,"o":"m 283 0 l 283 908 l 235 908 q 114 870 153 908 q 75 751 75 832 l 75 692 l 0 692 l 0 756 q 60 923 0 867 q 249 979 121 979 l 657 979 q 890 913 807 979 q 972 722 972 846 q 930 585 972 642 q 813 501 888 528 q 947 420 897 481 q 996 267 996 360 q 912 68 996 136 q 675 0 828 0 l 283 0 m 367 532 l 647 532 q 825 580 764 532 q 886 719 886 628 q 825 859 886 811 q 647 907 764 907 l 367 907 l 367 532 m 367 72 l 668 72 q 908 265 908 72 q 849 413 908 365 q 668 460 789 460 l 367 460 l 367 72 z "},"C":{"ha":931,"x_min":89,"x_max":868,"o":"m 536 -11 q 296 49 396 -11 q 142 222 196 110 q 89 490 89 335 q 142 757 89 644 q 296 930 196 869 q 536 990 396 990 q 723 958 638 990 q 868 863 808 925 l 831 792 q 695 883 765 856 q 538 911 625 911 q 273 801 365 911 q 181 490 181 690 q 273 178 181 289 q 538 68 365 68 q 695 96 625 68 q 831 188 765 124 l 868 117 q 723 22 808 54 q 536 -11 638 -11 z "},"Ć":{"ha":931,"x_min":89,"x_max":868,"o":"m 536 -11 q 296 49 396 -11 q 142 222 196 110 q 89 490 89 335 q 142 757 89 644 q 296 930 196 869 q 536 990 396 990 q 723 958 638 990 q 868 863 808 925 l 831 792 q 695 883 765 856 q 538 911 625 911 q 273 801 365 911 q 181 490 181 690 q 273 178 181 289 q 538 68 365 68 q 695 96 625 68 q 831 188 765 124 l 868 117 q 723 22 808 54 q 536 -11 638 -11 m 499 1063 l 663 1300 l 764 1300 l 568 1063 l 499 1063 z "},"Č":{"ha":931,"x_min":89,"x_max":868,"o":"m 536 -11 q 296 49 396 -11 q 142 222 196 110 q 89 490 89 335 q 142 757 89 644 q 296 930 196 869 q 536 990 396 990 q 723 958 638 990 q 868 863 808 925 l 831 792 q 695 883 765 856 q 538 911 625 911 q 273 801 365 911 q 181 490 181 690 q 273 178 181 289 q 538 68 365 68 q 695 96 625 68 q 831 188 765 124 l 868 117 q 723 22 808 54 q 536 -11 638 -11 m 490 1063 l 321 1300 l 389 1300 l 533 1125 l 678 1300 l 746 1300 l 576 1063 l 490 1063 z "},"Ç":{"ha":931,"x_min":89,"x_max":868,"o":"m 536 -11 q 296 49 396 -11 q 142 222 196 110 q 89 490 89 335 q 142 757 89 644 q 296 930 196 869 q 536 990 396 990 q 723 958 638 990 q 868 863 808 925 l 831 792 q 695 883 765 856 q 538 911 625 911 q 273 801 365 911 q 181 490 181 690 q 273 178 181 289 q 538 68 365 68 q 695 96 625 68 q 831 188 765 124 l 868 117 q 723 22 808 54 q 536 -11 638 -11 m 538 -265 q 422 -239 465 -265 l 438 -185 q 485 -203 463 -197 q 539 -208 507 -208 q 599 -194 576 -208 q 622 -153 622 -179 q 569 -111 622 -111 q 538 -113 554 -111 q 501 -124 522 -115 l 479 -104 l 499 28 l 561 28 l 546 -64 q 576 -61 563 -61 q 656 -85 624 -61 q 689 -154 689 -110 q 647 -235 689 -204 q 538 -265 606 -265 z "},"Ḉ":{"ha":931,"x_min":89,"x_max":868,"o":"m 536 -11 q 296 49 396 -11 q 142 222 196 110 q 89 490 89 335 q 142 757 89 644 q 296 930 196 869 q 536 990 396 990 q 723 958 638 990 q 868 863 808 925 l 831 792 q 695 883 765 856 q 538 911 625 911 q 273 801 365 911 q 181 490 181 690 q 273 178 181 289 q 538 68 365 68 q 695 96 625 68 q 831 188 765 124 l 868 117 q 723 22 808 54 q 536 -11 638 -11 m 538 -265 q 422 -239 465 -265 l 438 -185 q 485 -203 463 -197 q 539 -208 507 -208 q 599 -194 576 -208 q 622 -153 622 -179 q 569 -111 622 -111 q 538 -113 554 -111 q 501 -124 522 -115 l 479 -104 l 499 28 l 561 28 l 546 -64 q 576 -61 563 -61 q 656 -85 624 -61 q 689 -154 689 -110 q 647 -235 689 -204 q 538 -265 606 -265 m 499 1063 l 663 1300 l 764 1300 l 568 1063 l 499 1063 z "},"Ĉ":{"ha":931,"x_min":89,"x_max":868,"o":"m 536 -11 q 296 49 396 -11 q 142 222 196 110 q 89 490 89 335 q 142 757 89 644 q 296 930 196 869 q 536 990 396 990 q 723 958 638 990 q 868 863 808 925 l 831 792 q 695 883 765 856 q 538 911 625 911 q 273 801 365 911 q 181 490 181 690 q 273 178 181 289 q 538 68 365 68 q 695 96 625 68 q 831 188 765 124 l 868 117 q 723 22 808 54 q 536 -11 638 -11 m 321 1063 l 490 1300 l 576 1300 l 746 1063 l 678 1063 l 533 1238 l 389 1063 l 321 1063 z "},"Ċ":{"ha":931,"x_min":89,"x_max":868,"o":"m 536 -11 q 296 49 396 -11 q 142 222 196 110 q 89 490 89 335 q 142 757 89 644 q 296 930 196 869 q 536 990 396 990 q 723 958 638 990 q 868 863 808 925 l 831 792 q 695 883 765 856 q 538 911 625 911 q 273 801 365 911 q 181 490 181 690 q 273 178 181 289 q 538 68 365 68 q 695 96 625 68 q 831 188 765 124 l 868 117 q 723 22 808 54 q 536 -11 638 -11 m 481 1129 l 481 1233 l 586 1233 l 586 1129 l 481 1129 z "},"D":{"ha":1018,"x_min":128,"x_max":931,"o":"m 128 0 l 128 979 l 443 979 q 803 854 676 979 q 931 490 931 729 q 803 126 931 251 q 443 0 676 0 l 128 0 m 213 75 l 436 75 q 839 490 839 75 q 436 904 839 904 l 213 904 l 213 75 z "},"Ǆ":{"ha":1806,"x_min":128,"x_max":1774,"o":"m 128 0 l 128 979 l 443 979 q 803 854 676 979 q 931 490 931 729 q 803 126 931 251 q 443 0 676 0 l 128 0 m 213 75 l 436 75 q 839 490 839 75 q 436 904 839 904 l 213 904 l 213 75 z "},"Ð":{"ha":1018,"x_min":3,"x_max":931,"o":"m 128 0 l 128 979 l 443 979 q 803 854 676 979 q 931 490 931 729 q 803 126 931 251 q 443 0 676 0 l 128 0 m 213 75 l 436 75 q 839 490 839 75 q 436 904 839 904 l 213 904 l 213 75 m 3 463 l 3 532 l 489 532 l 489 463 l 3 463 z "},"Ď":{"ha":1018,"x_min":128,"x_max":931,"o":"m 128 0 l 128 979 l 443 979 q 803 854 676 979 q 931 490 931 729 q 803 126 931 251 q 443 0 676 0 l 128 0 m 213 75 l 436 75 q 839 490 839 75 q 436 904 839 904 l 213 904 l 213 75 m 465 1063 l 296 1300 l 364 1300 l 508 1125 l 653 1300 l 721 1300 l 551 1063 l 465 1063 z "},"Đ":{"ha":1018,"x_min":3,"x_max":931,"o":"m 128 0 l 128 979 l 443 979 q 803 854 676 979 q 931 490 931 729 q 803 126 931 251 q 443 0 676 0 l 128 0 m 213 75 l 436 75 q 839 490 839 75 q 436 904 839 904 l 213 904 l 213 75 m 3 463 l 3 532 l 489 532 l 489 463 l 3 463 z "},"Ḍ":{"ha":1018,"x_min":128,"x_max":931,"o":"m 128 0 l 128 979 l 443 979 q 803 854 676 979 q 931 490 931 729 q 803 126 931 251 q 443 0 676 0 l 128 0 m 213 75 l 436 75 q 839 490 839 75 q 436 904 839 904 l 213 904 l 213 75 m 456 -249 l 456 -144 l 564 -144 l 564 -249 l 456 -249 z "},"Ɗ":{"ha":1175,"x_min":0,"x_max":1086,"o":"m 283 0 l 283 908 l 235 908 q 114 870 153 908 q 75 751 75 832 l 75 692 l 0 692 l 0 756 q 236 979 0 979 l 599 979 q 959 854 832 979 q 1086 490 1086 729 q 959 126 1086 251 q 599 0 832 0 l 283 0 m 369 75 l 592 75 q 996 490 996 75 q 592 904 996 904 l 369 904 l 369 75 z "},"Ḏ":{"ha":1018,"x_min":128,"x_max":931,"o":"m 128 0 l 128 979 l 443 979 q 803 854 676 979 q 931 490 931 729 q 803 126 931 251 q 443 0 676 0 l 128 0 m 213 75 l 436 75 q 839 490 839 75 q 436 904 839 904 l 213 904 l 213 75 m 310 -211 l 310 -147 l 710 -147 l 710 -211 l 310 -211 z "},"ǅ":{"ha":1656,"x_min":128,"x_max":1611,"o":"m 128 0 l 128 979 l 443 979 q 803 854 676 979 q 931 490 931 729 q 803 126 931 251 q 443 0 676 0 l 128 0 m 213 75 l 436 75 q 839 490 839 75 q 436 904 839 904 l 213 904 l 213 75 z "},"E":{"ha":800,"x_min":128,"x_max":731,"o":"m 128 0 l 128 979 l 731 979 l 731 906 l 211 906 l 211 533 l 701 533 l 701 460 l 211 460 l 211 74 l 731 74 l 731 0 l 128 0 z "},"É":{"ha":800,"x_min":128,"x_max":731,"o":"m 128 0 l 128 979 l 731 979 l 731 906 l 211 906 l 211 533 l 701 533 l 701 460 l 211 460 l 211 74 l 731 74 l 731 0 l 128 0 m 413 1063 l 576 1300 l 678 1300 l 482 1063 l 413 1063 z "},"Ĕ":{"ha":800,"x_min":128,"x_max":731,"o":"m 128 0 l 128 979 l 731 979 l 731 906 l 211 906 l 211 533 l 701 533 l 701 460 l 211 460 l 211 74 l 731 74 l 731 0 l 128 0 m 447 1056 q 292 1118 354 1056 q 221 1289 231 1181 l 279 1296 q 330 1165 285 1211 q 447 1118 375 1118 q 565 1165 519 1118 q 615 1296 610 1211 l 674 1289 q 602 1118 664 1181 q 447 1056 540 1056 z "},"Ě":{"ha":800,"x_min":128,"x_max":731,"o":"m 128 0 l 128 979 l 731 979 l 731 906 l 211 906 l 211 533 l 701 533 l 701 460 l 211 460 l 211 74 l 731 74 l 731 0 l 128 0 m 404 1063 l 235 1300 l 303 1300 l 447 1125 l 592 1300 l 660 1300 l 490 1063 l 404 1063 z "},"Ȩ":{"ha":800,"x_min":128,"x_max":731,"o":"m 128 0 l 128 979 l 731 979 l 731 906 l 211 906 l 211 533 l 701 533 l 701 460 l 211 460 l 211 74 l 731 74 l 731 0 l 128 0 m 453 -265 q 338 -239 381 -265 l 353 -185 q 400 -203 378 -197 q 454 -208 422 -208 q 515 -194 492 -208 q 538 -153 538 -179 q 485 -111 538 -111 q 453 -113 469 -111 q 417 -124 438 -115 l 394 -104 l 414 28 l 476 28 l 461 -64 q 492 -61 478 -61 q 572 -85 539 -61 q 604 -154 604 -110 q 563 -235 604 -204 q 453 -265 521 -265 z "},"Ḝ":{"ha":800,"x_min":128,"x_max":731,"o":"m 128 0 l 128 979 l 731 979 l 731 906 l 211 906 l 211 533 l 701 533 l 701 460 l 211 460 l 211 74 l 731 74 l 731 0 l 128 0 m 453 -265 q 338 -239 381 -265 l 353 -185 q 400 -203 378 -197 q 454 -208 422 -208 q 515 -194 492 -208 q 538 -153 538 -179 q 485 -111 538 -111 q 453 -113 469 -111 q 417 -124 438 -115 l 394 -104 l 414 28 l 476 28 l 461 -64 q 492 -61 478 -61 q 572 -85 539 -61 q 604 -154 604 -110 q 563 -235 604 -204 q 453 -265 521 -265 m 447 1056 q 292 1118 354 1056 q 221 1289 231 1181 l 279 1296 q 330 1165 285 1211 q 447 1118 375 1118 q 565 1165 519 1118 q 615 1296 610 1211 l 674 1289 q 602 1118 664 1181 q 447 1056 540 1056 z "},"Ê":{"ha":800,"x_min":128,"x_max":731,"o":"m 128 0 l 128 979 l 731 979 l 731 906 l 211 906 l 211 533 l 701 533 l 701 460 l 211 460 l 211 74 l 731 74 l 731 0 l 128 0 m 235 1063 l 404 1300 l 490 1300 l 660 1063 l 592 1063 l 447 1238 l 303 1063 l 235 1063 z "},"Ế":{"ha":800,"x_min":128,"x_max":781,"o":"m 128 0 l 128 979 l 731 979 l 731 906 l 211 906 l 211 533 l 701 533 l 701 460 l 211 460 l 211 74 l 731 74 l 731 0 l 128 0 m 568 1204 l 689 1413 l 781 1413 l 629 1204 l 568 1204 m 253 1063 l 404 1286 l 490 1286 l 642 1063 l 581 1063 l 447 1225 l 314 1063 l 253 1063 z "},"Ệ":{"ha":800,"x_min":128,"x_max":731,"o":"m 128 0 l 128 979 l 731 979 l 731 906 l 211 906 l 211 533 l 701 533 l 701 460 l 211 460 l 211 74 l 731 74 l 731 0 l 128 0 m 393 -249 l 393 -144 l 501 -144 l 501 -249 l 393 -249 m 235 1063 l 404 1300 l 490 1300 l 660 1063 l 592 1063 l 447 1238 l 303 1063 l 235 1063 z "},"Ề":{"ha":800,"x_min":128,"x_max":731,"o":"m 128 0 l 128 979 l 731 979 l 731 906 l 211 906 l 211 533 l 701 533 l 701 460 l 211 460 l 211 74 l 731 74 l 731 0 l 128 0 m 625 1204 l 474 1413 l 565 1413 l 686 1204 l 625 1204 m 253 1063 l 404 1286 l 490 1286 l 642 1063 l 581 1063 l 447 1225 l 314 1063 l 253 1063 z "},"Ể":{"ha":800,"x_min":128,"x_max":738,"o":"m 128 0 l 128 979 l 731 979 l 731 906 l 211 906 l 211 533 l 701 533 l 701 460 l 211 460 l 211 74 l 731 74 l 731 0 l 128 0 m 582 1204 q 595 1255 582 1236 q 626 1285 608 1274 q 656 1308 643 1297 q 669 1338 669 1319 q 603 1367 669 1367 q 563 1363 583 1367 q 517 1350 542 1358 l 503 1396 q 615 1418 549 1418 q 706 1399 674 1418 q 738 1347 738 1379 q 723 1301 738 1318 q 689 1273 708 1285 q 655 1246 669 1261 q 640 1204 640 1231 l 582 1204 m 253 1063 l 404 1286 l 490 1286 l 642 1063 l 581 1063 l 447 1225 l 314 1063 l 253 1063 z "},"Ễ":{"ha":800,"x_min":128,"x_max":731,"o":"m 128 0 l 128 979 l 731 979 l 731 906 l 211 906 l 211 533 l 701 533 l 701 460 l 211 460 l 211 74 l 731 74 l 731 0 l 128 0 m 290 1276 l 236 1279 q 275 1383 242 1349 q 358 1417 308 1417 q 408 1406 385 1417 q 460 1374 431 1396 q 505 1345 489 1351 q 535 1339 521 1339 q 582 1358 567 1339 q 604 1419 597 1376 l 658 1417 q 620 1313 653 1347 q 538 1279 588 1279 q 488 1290 511 1279 q 429 1326 464 1301 q 394 1348 411 1339 q 360 1357 378 1357 q 313 1338 329 1357 q 290 1276 297 1319 m 253 1063 l 404 1244 l 490 1244 l 642 1063 l 582 1063 l 447 1189 l 314 1063 l 253 1063 z "},"Ȅ":{"ha":800,"x_min":128,"x_max":731,"o":"m 128 0 l 128 979 l 731 979 l 731 906 l 211 906 l 211 533 l 701 533 l 701 460 l 211 460 l 211 74 l 731 74 l 731 0 l 128 0 m 503 1063 l 344 1300 l 436 1300 l 554 1063 l 503 1063 m 340 1063 l 179 1300 l 271 1300 l 392 1063 l 340 1063 z "},"Ë":{"ha":800,"x_min":128,"x_max":731,"o":"m 128 0 l 128 979 l 731 979 l 731 906 l 211 906 l 211 533 l 701 533 l 701 460 l 211 460 l 211 74 l 731 74 l 731 0 l 128 0 m 513 1129 l 513 1231 l 614 1231 l 614 1129 l 513 1129 m 281 1129 l 281 1231 l 382 1231 l 382 1129 l 281 1129 z "},"Ė":{"ha":800,"x_min":128,"x_max":731,"o":"m 128 0 l 128 979 l 731 979 l 731 906 l 211 906 l 211 533 l 701 533 l 701 460 l 211 460 l 211 74 l 731 74 l 731 0 l 128 0 m 394 1129 l 394 1233 l 500 1233 l 500 1129 l 394 1129 z "},"Ẹ":{"ha":800,"x_min":128,"x_max":731,"o":"m 128 0 l 128 979 l 731 979 l 731 906 l 211 906 l 211 533 l 701 533 l 701 460 l 211 460 l 211 74 l 731 74 l 731 0 l 128 0 m 393 -249 l 393 -144 l 501 -144 l 501 -249 l 393 -249 z "},"È":{"ha":800,"x_min":128,"x_max":731,"o":"m 128 0 l 128 979 l 731 979 l 731 906 l 211 906 l 211 533 l 701 533 l 701 460 l 211 460 l 211 74 l 731 74 l 731 0 l 128 0 m 413 1063 l 217 1300 l 318 1300 l 482 1063 l 413 1063 z "},"Ẻ":{"ha":800,"x_min":128,"x_max":731,"o":"m 128 0 l 128 979 l 731 979 l 731 906 l 211 906 l 211 533 l 701 533 l 701 460 l 211 460 l 211 74 l 731 74 l 731 0 l 128 0 m 415 1063 l 415 1083 q 429 1131 415 1113 q 461 1161 443 1149 q 493 1186 479 1174 q 507 1215 507 1199 q 438 1250 507 1250 q 396 1245 417 1250 q 350 1228 375 1240 l 333 1281 q 451 1307 383 1307 q 547 1284 513 1307 q 581 1224 581 1261 q 565 1176 581 1193 q 530 1147 550 1160 q 495 1119 510 1135 q 481 1076 481 1104 l 481 1063 l 415 1063 z "},"Ȇ":{"ha":800,"x_min":128,"x_max":731,"o":"m 128 0 l 128 979 l 731 979 l 731 906 l 211 906 l 211 533 l 701 533 l 701 460 l 211 460 l 211 74 l 731 74 l 731 0 l 128 0 m 279 1056 l 221 1063 q 292 1233 231 1171 q 447 1296 354 1296 q 602 1233 540 1296 q 674 1063 664 1171 l 615 1056 q 565 1187 610 1140 q 447 1233 519 1233 q 330 1187 375 1233 q 279 1056 285 1140 z "},"Ē":{"ha":800,"x_min":128,"x_max":731,"o":"m 128 0 l 128 979 l 731 979 l 731 906 l 211 906 l 211 533 l 701 533 l 701 460 l 211 460 l 211 74 l 731 74 l 731 0 l 128 0 m 226 1136 l 226 1201 l 668 1201 l 668 1136 l 226 1136 z "},"Ḗ":{"ha":800,"x_min":128,"x_max":731,"o":"m 128 0 l 128 979 l 731 979 l 731 906 l 211 906 l 211 533 l 701 533 l 701 460 l 211 460 l 211 74 l 731 74 l 731 0 l 128 0 m 415 1217 l 543 1419 l 640 1419 l 479 1217 l 415 1217 m 247 1101 l 247 1165 l 647 1165 l 647 1101 l 247 1101 z "},"Ḕ":{"ha":800,"x_min":128,"x_max":731,"o":"m 128 0 l 128 979 l 731 979 l 731 906 l 211 906 l 211 533 l 701 533 l 701 460 l 211 460 l 211 74 l 731 74 l 731 0 l 128 0 m 415 1217 l 256 1419 l 351 1419 l 479 1217 l 415 1217 m 247 1101 l 247 1165 l 647 1165 l 647 1101 l 247 1101 z "},"Ę":{"ha":800,"x_min":128,"x_max":763,"o":"m 128 0 l 128 979 l 731 979 l 731 906 l 211 906 l 211 533 l 701 533 l 701 460 l 211 460 l 211 74 l 731 74 l 731 0 l 128 0 m 658 -265 q 559 -230 597 -265 q 521 -133 521 -194 q 555 -32 521 -81 q 649 47 589 17 l 683 0 q 619 -47 651 -14 q 588 -125 588 -79 q 611 -186 588 -167 q 669 -206 635 -206 q 743 -189 704 -206 l 763 -242 q 658 -265 724 -265 z "},"Ẽ":{"ha":800,"x_min":128,"x_max":731,"o":"m 128 0 l 128 979 l 731 979 l 731 906 l 211 906 l 211 533 l 701 533 l 701 460 l 211 460 l 211 74 l 731 74 l 731 0 l 128 0 m 221 1093 l 167 1097 q 217 1228 175 1182 q 324 1274 258 1274 q 388 1259 356 1274 q 465 1213 421 1244 q 533 1172 510 1183 q 575 1161 556 1161 q 674 1278 656 1161 l 728 1274 q 678 1143 719 1189 q 572 1097 636 1097 q 506 1112 540 1097 q 425 1160 472 1126 q 363 1199 386 1188 q 319 1210 339 1210 q 221 1093 240 1210 z "},"F":{"ha":753,"x_min":128,"x_max":717,"o":"m 128 0 l 128 979 l 717 979 l 717 906 l 213 906 l 213 532 l 689 532 l 689 458 l 213 458 l 213 0 l 128 0 z "},"G":{"ha":1003,"x_min":89,"x_max":883,"o":"m 563 -11 q 210 121 331 -11 q 89 490 89 253 q 142 757 89 644 q 297 930 196 869 q 540 990 397 990 q 879 864 753 990 l 842 794 q 701 884 774 857 q 539 911 629 911 q 272 801 365 911 q 179 490 179 690 q 276 175 179 283 q 564 67 372 67 q 807 111 694 67 l 807 429 l 547 429 l 547 501 l 883 501 l 883 56 q 794 21 847 36 q 680 -3 740 6 q 563 -11 619 -11 z "},"Ğ":{"ha":1003,"x_min":89,"x_max":883,"o":"m 563 -11 q 210 121 331 -11 q 89 490 89 253 q 142 757 89 644 q 297 930 196 869 q 540 990 397 990 q 879 864 753 990 l 842 794 q 701 884 774 857 q 539 911 629 911 q 272 801 365 911 q 179 490 179 690 q 276 175 179 283 q 564 67 372 67 q 807 111 694 67 l 807 429 l 547 429 l 547 501 l 883 501 l 883 56 q 794 21 847 36 q 680 -3 740 6 q 563 -11 619 -11 m 538 1056 q 383 1118 444 1056 q 311 1289 321 1181 l 369 1296 q 420 1165 375 1211 q 538 1118 465 1118 q 655 1165 610 1118 q 706 1296 700 1211 l 764 1289 q 692 1118 754 1181 q 538 1056 631 1056 z "},"Ǧ":{"ha":1003,"x_min":89,"x_max":883,"o":"m 563 -11 q 210 121 331 -11 q 89 490 89 253 q 142 757 89 644 q 297 930 196 869 q 540 990 397 990 q 879 864 753 990 l 842 794 q 701 884 774 857 q 539 911 629 911 q 272 801 365 911 q 179 490 179 690 q 276 175 179 283 q 564 67 372 67 q 807 111 694 67 l 807 429 l 547 429 l 547 501 l 883 501 l 883 56 q 794 21 847 36 q 680 -3 740 6 q 563 -11 619 -11 m 494 1063 l 325 1300 l 393 1300 l 538 1125 l 682 1300 l 750 1300 l 581 1063 l 494 1063 z "},"Ĝ":{"ha":1003,"x_min":89,"x_max":883,"o":"m 563 -11 q 210 121 331 -11 q 89 490 89 253 q 142 757 89 644 q 297 930 196 869 q 540 990 397 990 q 879 864 753 990 l 842 794 q 701 884 774 857 q 539 911 629 911 q 272 801 365 911 q 179 490 179 690 q 276 175 179 283 q 564 67 372 67 q 807 111 694 67 l 807 429 l 547 429 l 547 501 l 883 501 l 883 56 q 794 21 847 36 q 680 -3 740 6 q 563 -11 619 -11 m 325 1063 l 494 1300 l 581 1300 l 750 1063 l 682 1063 l 538 1238 l 393 1063 l 325 1063 z "},"Ģ":{"ha":1003,"x_min":89,"x_max":883,"o":"m 563 -11 q 210 121 331 -11 q 89 490 89 253 q 142 757 89 644 q 297 930 196 869 q 540 990 397 990 q 879 864 753 990 l 842 794 q 701 884 774 857 q 539 911 629 911 q 272 801 365 911 q 179 490 179 690 q 276 175 179 283 q 564 67 372 67 q 807 111 694 67 l 807 429 l 547 429 l 547 501 l 883 501 l 883 56 q 794 21 847 36 q 680 -3 740 6 q 563 -11 619 -11 m 538 -365 l 494 -335 q 535 -275 524 -303 q 547 -217 546 -247 l 489 -217 l 489 -115 l 606 -115 l 606 -194 q 589 -287 606 -243 q 538 -365 572 -331 z "},"Ġ":{"ha":1003,"x_min":89,"x_max":883,"o":"m 563 -11 q 210 121 331 -11 q 89 490 89 253 q 142 757 89 644 q 297 930 196 869 q 540 990 397 990 q 879 864 753 990 l 842 794 q 701 884 774 857 q 539 911 629 911 q 272 801 365 911 q 179 490 179 690 q 276 175 179 283 q 564 67 372 67 q 807 111 694 67 l 807 429 l 547 429 l 547 501 l 883 501 l 883 56 q 794 21 847 36 q 680 -3 740 6 q 563 -11 619 -11 m 485 1129 l 485 1233 l 590 1233 l 590 1129 l 485 1129 z "},"Ḡ":{"ha":1003,"x_min":89,"x_max":883,"o":"m 563 -11 q 210 121 331 -11 q 89 490 89 253 q 142 757 89 644 q 297 930 196 869 q 540 990 397 990 q 879 864 753 990 l 842 794 q 701 884 774 857 q 539 911 629 911 q 272 801 365 911 q 179 490 179 690 q 276 175 179 283 q 564 67 372 67 q 807 111 694 67 l 807 429 l 547 429 l 547 501 l 883 501 l 883 56 q 794 21 847 36 q 680 -3 740 6 q 563 -11 619 -11 m 317 1136 l 317 1201 l 758 1201 l 758 1136 l 317 1136 z "},"H":{"ha":1050,"x_min":128,"x_max":922,"o":"m 128 0 l 128 979 l 213 979 l 213 535 l 838 535 l 838 979 l 922 979 l 922 0 l 838 0 l 838 458 l 213 458 l 213 0 l 128 0 z "},"Ħ":{"ha":1096,"x_min":21,"x_max":1075,"o":"m 150 0 l 150 726 l 21 726 l 21 797 l 150 797 l 150 979 l 236 979 l 236 797 l 860 797 l 860 979 l 946 979 l 946 797 l 1075 797 l 1075 726 l 946 726 l 946 0 l 860 0 l 860 456 l 236 456 l 236 0 l 150 0 m 236 531 l 860 531 l 860 726 l 236 726 l 236 531 z "},"Ḫ":{"ha":1050,"x_min":128,"x_max":922,"o":"m 128 0 l 128 979 l 213 979 l 213 535 l 838 535 l 838 979 l 922 979 l 922 0 l 838 0 l 838 458 l 213 458 l 213 0 l 128 0 m 526 -299 q 381 -244 436 -299 q 319 -93 326 -189 l 378 -86 q 421 -197 382 -157 q 526 -236 460 -236 q 632 -197 593 -236 q 675 -86 671 -157 l 733 -93 q 672 -244 726 -189 q 526 -299 617 -299 z "},"Ĥ":{"ha":1050,"x_min":128,"x_max":922,"o":"m 128 0 l 128 979 l 213 979 l 213 535 l 838 535 l 838 979 l 922 979 l 922 0 l 838 0 l 838 458 l 213 458 l 213 0 l 128 0 m 313 1063 l 482 1300 l 568 1300 l 738 1063 l 669 1063 l 525 1238 l 381 1063 l 313 1063 z "},"Ḥ":{"ha":1050,"x_min":128,"x_max":922,"o":"m 128 0 l 128 979 l 213 979 l 213 535 l 838 535 l 838 979 l 922 979 l 922 0 l 838 0 l 838 458 l 213 458 l 213 0 l 128 0 m 472 -249 l 472 -144 l 581 -144 l 581 -249 l 472 -249 z "},"I":{"ha":340,"x_min":128,"x_max":213,"o":"m 128 0 l 128 979 l 213 979 l 213 0 l 128 0 z "},"Ĳ":{"ha":771,"x_min":128,"x_max":644,"o":"m 128 0 l 128 979 l 213 979 l 213 0 l 128 0 m 333 -10 l 326 65 l 404 71 q 518 125 478 76 q 558 254 558 174 l 558 979 l 644 979 l 644 253 q 585 71 644 138 q 413 -4 525 4 l 333 -10 z "},"Í":{"ha":340,"x_min":128,"x_max":400,"o":"m 128 0 l 128 979 l 213 979 l 213 0 l 128 0 m 135 1063 l 299 1300 l 400 1300 l 204 1063 l 135 1063 z "},"Ĭ":{"ha":340,"x_min":-57,"x_max":396,"o":"m 128 0 l 128 979 l 213 979 l 213 0 l 128 0 m 169 1056 q 15 1118 76 1056 q -57 1289 -47 1181 l 1 1296 q 52 1165 7 1211 q 169 1118 97 1118 q 287 1165 242 1118 q 338 1296 332 1211 l 396 1289 q 324 1118 386 1181 q 169 1056 263 1056 z "},"Î":{"ha":340,"x_min":-43,"x_max":382,"o":"m 128 0 l 128 979 l 213 979 l 213 0 l 128 0 m -43 1063 l 126 1300 l 213 1300 l 382 1063 l 314 1063 l 169 1238 l 25 1063 l -43 1063 z "},"Ȉ":{"ha":340,"x_min":-99,"x_max":276,"o":"m 128 0 l 128 979 l 213 979 l 213 0 l 128 0 m 225 1063 l 67 1300 l 158 1300 l 276 1063 l 225 1063 m 63 1063 l -99 1300 l -7 1300 l 114 1063 l 63 1063 z "},"Ï":{"ha":340,"x_min":3,"x_max":336,"o":"m 128 0 l 128 979 l 213 979 l 213 0 l 128 0 m 235 1129 l 235 1231 l 336 1231 l 336 1129 l 235 1129 m 3 1129 l 3 1231 l 104 1231 l 104 1129 l 3 1129 z "},"Ḯ":{"ha":340,"x_min":3,"x_max":363,"o":"m 128 0 l 128 979 l 213 979 l 213 0 l 128 0 m 138 1217 l 265 1419 l 363 1419 l 201 1217 l 138 1217 m 3 1071 l 3 1163 l 104 1163 l 104 1071 l 3 1071 m 235 1071 l 235 1163 l 336 1163 l 336 1071 l 235 1071 z "},"İ":{"ha":340,"x_min":117,"x_max":222,"o":"m 128 0 l 128 979 l 213 979 l 213 0 l 128 0 m 117 1129 l 117 1233 l 222 1233 l 222 1129 l 117 1129 z "},"Ị":{"ha":340,"x_min":115,"x_max":224,"o":"m 128 0 l 128 979 l 213 979 l 213 0 l 128 0 m 115 -249 l 115 -144 l 224 -144 l 224 -249 l 115 -249 z "},"Ì":{"ha":340,"x_min":-61,"x_max":213,"o":"m 128 0 l 128 979 l 213 979 l 213 0 l 128 0 m 135 1063 l -61 1300 l 40 1300 l 204 1063 l 135 1063 z "},"Ỉ":{"ha":340,"x_min":56,"x_max":303,"o":"m 128 0 l 128 979 l 213 979 l 213 0 l 128 0 m 138 1063 l 138 1083 q 151 1131 138 1113 q 183 1161 165 1149 q 215 1186 201 1174 q 229 1215 229 1199 q 160 1250 229 1250 q 118 1245 139 1250 q 72 1228 97 1240 l 56 1281 q 174 1307 106 1307 q 269 1284 235 1307 q 303 1224 303 1261 q 288 1176 303 1193 q 252 1147 272 1160 q 217 1119 232 1135 q 203 1076 203 1104 l 203 1063 l 138 1063 z "},"Ȋ":{"ha":340,"x_min":-57,"x_max":396,"o":"m 128 0 l 128 979 l 213 979 l 213 0 l 128 0 m 1 1056 l -57 1063 q 15 1233 -47 1171 q 169 1296 76 1296 q 324 1233 263 1296 q 396 1063 386 1171 l 338 1056 q 287 1187 332 1140 q 169 1233 242 1233 q 52 1187 97 1233 q 1 1056 7 1140 z "},"Ī":{"ha":340,"x_min":-51,"x_max":390,"o":"m 128 0 l 128 979 l 213 979 l 213 0 l 128 0 m -51 1136 l -51 1201 l 390 1201 l 390 1136 l -51 1136 z "},"Į":{"ha":340,"x_min":42,"x_max":283,"o":"m 128 0 l 128 979 l 213 979 l 213 0 l 128 0 m 179 -265 q 80 -230 118 -265 q 42 -133 42 -194 q 76 -32 42 -81 q 169 47 110 17 l 204 0 q 140 -47 172 -14 q 108 -125 108 -79 q 132 -186 108 -167 q 190 -206 156 -206 q 264 -189 225 -206 l 283 -242 q 179 -265 244 -265 z "},"Ĩ":{"ha":340,"x_min":-111,"x_max":450,"o":"m 128 0 l 128 979 l 213 979 l 213 0 l 128 0 m -57 1093 l -111 1097 q -61 1228 -103 1182 q 46 1274 -19 1274 q 110 1259 78 1274 q 188 1213 143 1244 q 255 1172 232 1183 q 297 1161 278 1161 q 396 1278 378 1161 l 450 1274 q 400 1143 442 1189 q 294 1097 358 1097 q 228 1112 263 1097 q 147 1160 194 1126 q 85 1199 108 1188 q 42 1210 61 1210 q -57 1093 -37 1210 z "},"J":{"ha":431,"x_min":-14,"x_max":304,"o":"m -7 -10 l -14 65 l 64 71 q 178 125 138 76 q 218 254 218 174 l 218 979 l 304 979 l 304 253 q 244 71 304 138 q 72 -4 185 4 l -7 -10 z "},"Ĵ":{"ha":431,"x_min":-14,"x_max":474,"o":"m -7 -10 l -14 65 l 64 71 q 178 125 138 76 q 218 254 218 174 l 218 979 l 304 979 l 304 253 q 244 71 304 138 q 72 -4 185 4 l -7 -10 m 49 1063 l 218 1300 l 304 1300 l 474 1063 l 406 1063 l 261 1238 l 117 1063 l 49 1063 z "},"K":{"ha":843,"x_min":128,"x_max":856,"o":"m 128 0 l 128 979 l 213 979 l 213 529 l 215 529 l 710 979 l 822 979 l 296 501 l 856 0 l 739 0 l 215 465 l 213 465 l 213 0 l 128 0 z "},"Ķ":{"ha":843,"x_min":128,"x_max":856,"o":"m 128 0 l 128 979 l 213 979 l 213 529 l 215 529 l 710 979 l 822 979 l 296 501 l 856 0 l 739 0 l 215 465 l 213 465 l 213 0 l 128 0 m 419 -365 l 376 -335 q 417 -275 406 -303 q 429 -217 428 -247 l 371 -217 l 371 -115 l 488 -115 l 488 -194 q 471 -287 488 -243 q 419 -365 454 -331 z "},"L":{"ha":743,"x_min":128,"x_max":724,"o":"m 128 0 l 128 979 l 213 979 l 213 76 l 724 76 l 724 0 l 128 0 z "},"Ǉ":{"ha":1229,"x_min":128,"x_max":1103,"o":"m 128 0 l 128 979 l 213 979 l 213 76 l 724 76 l 724 0 l 128 0 m 792 -10 l 785 65 l 863 71 q 976 125 936 76 q 1017 254 1017 174 l 1017 979 l 1103 979 l 1103 253 q 1043 71 1103 138 q 871 -4 983 4 l 792 -10 z "},"Ĺ":{"ha":743,"x_min":128,"x_max":724,"o":"m 128 0 l 128 979 l 213 979 l 213 76 l 724 76 l 724 0 l 128 0 m 135 1063 l 299 1300 l 400 1300 l 204 1063 l 135 1063 z "},"Ľ":{"ha":743,"x_min":128,"x_max":724,"o":"m 128 0 l 128 979 l 213 979 l 213 76 l 724 76 l 724 0 l 128 0 m 378 672 l 378 979 l 461 979 l 433 672 l 378 672 z "},"Ļ":{"ha":743,"x_min":128,"x_max":724,"o":"m 128 0 l 128 979 l 213 979 l 213 76 l 724 76 l 724 0 l 128 0 m 415 -365 l 372 -335 q 413 -275 401 -303 q 425 -217 424 -247 l 367 -217 l 367 -115 l 483 -115 l 483 -194 q 467 -287 483 -243 q 415 -365 450 -331 z "},"Ŀ":{"ha":743,"x_min":128,"x_max":724,"o":"m 128 0 l 128 979 l 213 979 l 213 76 l 724 76 l 724 0 l 128 0 m 488 482 l 488 594 l 604 594 l 604 482 l 488 482 z "},"Ḷ":{"ha":743,"x_min":128,"x_max":724,"o":"m 128 0 l 128 979 l 213 979 l 213 76 l 724 76 l 724 0 l 128 0 m 371 -249 l 371 -144 l 479 -144 l 479 -249 l 371 -249 z "},"ǈ":{"ha":1056,"x_min":128,"x_max":958,"o":"m 128 0 l 128 979 l 213 979 l 213 76 l 724 76 l 724 0 l 128 0 m 844 851 l 844 958 l 958 958 l 958 851 l 844 851 m 669 -268 l 664 -199 l 722 -193 q 860 -26 860 -182 l 860 674 l 944 674 l 944 -19 q 729 -264 944 -250 l 669 -268 z "},"Ḻ":{"ha":743,"x_min":128,"x_max":724,"o":"m 128 0 l 128 979 l 213 979 l 213 76 l 724 76 l 724 0 l 128 0 m 225 -211 l 225 -147 l 625 -147 l 625 -211 l 225 -211 z "},"Ł":{"ha":743,"x_min":-25,"x_max":724,"o":"m 128 0 l 128 979 l 213 979 l 213 76 l 724 76 l 724 0 l 128 0 m 13 369 l -25 432 l 450 706 l 486 643 l 13 369 z "},"M":{"ha":1179,"x_min":131,"x_max":1050,"o":"m 131 0 l 131 979 l 203 979 l 592 242 l 978 979 l 1050 979 l 1050 0 l 971 0 l 971 814 l 622 151 l 561 151 l 208 813 l 208 0 l 131 0 z "},"Ṃ":{"ha":1179,"x_min":131,"x_max":1050,"o":"m 131 0 l 131 979 l 203 979 l 592 242 l 978 979 l 1050 979 l 1050 0 l 971 0 l 971 814 l 622 151 l 561 151 l 208 813 l 208 0 l 131 0 m 536 -249 l 536 -144 l 644 -144 l 644 -249 l 536 -249 z "},"N":{"ha":1022,"x_min":128,"x_max":894,"o":"m 128 0 l 128 979 l 196 979 l 815 144 l 815 979 l 894 979 l 894 0 l 828 0 l 207 836 l 207 0 l 128 0 z "},"Ǌ":{"ha":1453,"x_min":128,"x_max":1326,"o":"m 128 0 l 128 979 l 196 979 l 815 144 l 815 979 l 894 979 l 894 0 l 828 0 l 207 836 l 207 0 l 128 0 m 1015 -10 l 1008 65 l 1086 71 q 1200 125 1160 76 q 1240 254 1240 174 l 1240 979 l 1326 979 l 1326 253 q 1267 71 1326 138 q 1094 -4 1207 4 l 1015 -10 z "},"Ń":{"ha":1022,"x_min":128,"x_max":894,"o":"m 128 0 l 128 979 l 196 979 l 815 144 l 815 979 l 894 979 l 894 0 l 828 0 l 207 836 l 207 0 l 128 0 m 476 1063 l 640 1300 l 742 1300 l 546 1063 l 476 1063 z "},"Ň":{"ha":1022,"x_min":128,"x_max":894,"o":"m 128 0 l 128 979 l 196 979 l 815 144 l 815 979 l 894 979 l 894 0 l 828 0 l 207 836 l 207 0 l 128 0 m 468 1063 l 299 1300 l 367 1300 l 511 1125 l 656 1300 l 724 1300 l 554 1063 l 468 1063 z "},"Ņ":{"ha":1022,"x_min":128,"x_max":894,"o":"m 128 0 l 128 979 l 196 979 l 815 144 l 815 979 l 894 979 l 894 0 l 828 0 l 207 836 l 207 0 l 128 0 m 501 -365 l 458 -335 q 499 -275 488 -303 q 511 -217 510 -247 l 453 -217 l 453 -115 l 569 -115 l 569 -194 q 553 -287 569 -243 q 501 -365 536 -331 z "},"Ṅ":{"ha":1022,"x_min":128,"x_max":894,"o":"m 128 0 l 128 979 l 196 979 l 815 144 l 815 979 l 894 979 l 894 0 l 828 0 l 207 836 l 207 0 l 128 0 m 458 1129 l 458 1233 l 564 1233 l 564 1129 l 458 1129 z "},"Ṇ":{"ha":1022,"x_min":128,"x_max":894,"o":"m 128 0 l 128 979 l 196 979 l 815 144 l 815 979 l 894 979 l 894 0 l 828 0 l 207 836 l 207 0 l 128 0 m 457 -249 l 457 -144 l 565 -144 l 565 -249 l 457 -249 z "},"Ŋ":{"ha":1022,"x_min":128,"x_max":894,"o":"m 621 -268 l 615 -199 l 674 -193 q 815 -26 815 -182 l 815 18 l 207 836 l 207 0 l 128 0 l 128 979 l 196 979 l 815 144 l 815 979 l 894 979 l 894 -19 q 681 -264 894 -249 l 621 -268 z "},"ǋ":{"ha":1335,"x_min":128,"x_max":1238,"o":"m 128 0 l 128 979 l 196 979 l 815 144 l 815 979 l 894 979 l 894 0 l 828 0 l 207 836 l 207 0 l 128 0 m 1124 851 l 1124 958 l 1238 958 l 1238 851 l 1124 851 m 949 -268 l 943 -199 l 1001 -193 q 1139 -26 1139 -182 l 1139 674 l 1224 674 l 1224 -19 q 1008 -264 1224 -250 l 949 -268 z "},"Ṉ":{"ha":1022,"x_min":128,"x_max":894,"o":"m 128 0 l 128 979 l 196 979 l 815 144 l 815 979 l 894 979 l 894 0 l 828 0 l 207 836 l 207 0 l 128 0 m 311 -211 l 311 -147 l 711 -147 l 711 -211 l 311 -211 z "},"Ñ":{"ha":1022,"x_min":128,"x_max":894,"o":"m 128 0 l 128 979 l 196 979 l 815 144 l 815 979 l 894 979 l 894 0 l 828 0 l 207 836 l 207 0 l 128 0 m 285 1093 l 231 1097 q 281 1228 239 1182 q 388 1274 322 1274 q 452 1259 419 1274 q 529 1213 485 1244 q 597 1172 574 1183 q 639 1161 619 1161 q 738 1278 719 1161 l 792 1274 q 742 1143 783 1189 q 636 1097 700 1097 q 570 1112 604 1097 q 489 1160 536 1126 q 426 1199 450 1188 q 383 1210 403 1210 q 285 1093 304 1210 z "},"O":{"ha":1054,"x_min":89,"x_max":965,"o":"m 526 -11 q 294 50 392 -11 q 142 224 196 111 q 89 490 89 336 q 142 757 89 644 q 293 930 194 869 q 526 990 392 990 q 760 930 663 990 q 912 758 858 869 q 965 492 965 646 q 912 224 965 336 q 760 50 858 111 q 526 -11 661 -11 m 526 67 q 783 178 692 67 q 875 490 875 289 q 784 802 875 692 q 526 913 693 913 q 270 801 361 913 q 179 490 179 690 q 270 178 179 290 q 526 67 361 67 z "},"Ó":{"ha":1054,"x_min":89,"x_max":965,"o":"m 526 -11 q 294 50 392 -11 q 142 224 196 111 q 89 490 89 336 q 142 757 89 644 q 293 930 194 869 q 526 990 392 990 q 760 930 663 990 q 912 758 858 869 q 965 492 965 646 q 912 224 965 336 q 760 50 858 111 q 526 -11 661 -11 m 526 67 q 783 178 692 67 q 875 490 875 289 q 784 802 875 692 q 526 913 693 913 q 270 801 361 913 q 179 490 179 690 q 270 178 179 290 q 526 67 361 67 m 492 1063 l 656 1300 l 757 1300 l 561 1063 l 492 1063 z "},"Ŏ":{"ha":1054,"x_min":89,"x_max":965,"o":"m 526 -11 q 294 50 392 -11 q 142 224 196 111 q 89 490 89 336 q 142 757 89 644 q 293 930 194 869 q 526 990 392 990 q 760 930 663 990 q 912 758 858 869 q 965 492 965 646 q 912 224 965 336 q 760 50 858 111 q 526 -11 661 -11 m 526 67 q 783 178 692 67 q 875 490 875 289 q 784 802 875 692 q 526 913 693 913 q 270 801 361 913 q 179 490 179 690 q 270 178 179 290 q 526 67 361 67 m 526 1056 q 372 1118 433 1056 q 300 1289 310 1181 l 358 1296 q 409 1165 364 1211 q 526 1118 454 1118 q 644 1165 599 1118 q 694 1296 689 1211 l 753 1289 q 681 1118 743 1181 q 526 1056 619 1056 z "},"Ô":{"ha":1054,"x_min":89,"x_max":965,"o":"m 526 -11 q 294 50 392 -11 q 142 224 196 111 q 89 490 89 336 q 142 757 89 644 q 293 930 194 869 q 526 990 392 990 q 760 930 663 990 q 912 758 858 869 q 965 492 965 646 q 912 224 965 336 q 760 50 858 111 q 526 -11 661 -11 m 526 67 q 783 178 692 67 q 875 490 875 289 q 784 802 875 692 q 526 913 693 913 q 270 801 361 913 q 179 490 179 690 q 270 178 179 290 q 526 67 361 67 m 314 1063 l 483 1300 l 569 1300 l 739 1063 l 671 1063 l 526 1238 l 382 1063 l 314 1063 z "},"Ố":{"ha":1054,"x_min":89,"x_max":965,"o":"m 526 -11 q 294 50 392 -11 q 142 224 196 111 q 89 490 89 336 q 142 757 89 644 q 293 930 194 869 q 526 990 392 990 q 760 930 663 990 q 912 758 858 869 q 965 492 965 646 q 912 224 965 336 q 760 50 858 111 q 526 -11 661 -11 m 526 67 q 783 178 692 67 q 875 490 875 289 q 784 802 875 692 q 526 913 693 913 q 270 801 361 913 q 179 490 179 690 q 270 178 179 290 q 526 67 361 67 m 647 1204 l 768 1413 l 860 1413 l 708 1204 l 647 1204 m 332 1063 l 483 1286 l 569 1286 l 721 1063 l 660 1063 l 526 1225 l 393 1063 l 332 1063 z "},"Ộ":{"ha":1054,"x_min":89,"x_max":965,"o":"m 526 -11 q 294 50 392 -11 q 142 224 196 111 q 89 490 89 336 q 142 757 89 644 q 293 930 194 869 q 526 990 392 990 q 760 930 663 990 q 912 758 858 869 q 965 492 965 646 q 912 224 965 336 q 760 50 858 111 q 526 -11 661 -11 m 526 67 q 783 178 692 67 q 875 490 875 289 q 784 802 875 692 q 526 913 693 913 q 270 801 361 913 q 179 490 179 690 q 270 178 179 290 q 526 67 361 67 m 472 -249 l 472 -144 l 581 -144 l 581 -249 l 472 -249 m 314 1063 l 483 1300 l 569 1300 l 739 1063 l 671 1063 l 526 1238 l 382 1063 l 314 1063 z "},"Ồ":{"ha":1054,"x_min":89,"x_max":965,"o":"m 526 -11 q 294 50 392 -11 q 142 224 196 111 q 89 490 89 336 q 142 757 89 644 q 293 930 194 869 q 526 990 392 990 q 760 930 663 990 q 912 758 858 869 q 965 492 965 646 q 912 224 965 336 q 760 50 858 111 q 526 -11 661 -11 m 526 67 q 783 178 692 67 q 875 490 875 289 q 784 802 875 692 q 526 913 693 913 q 270 801 361 913 q 179 490 179 690 q 270 178 179 290 q 526 67 361 67 m 704 1204 l 553 1413 l 644 1413 l 765 1204 l 704 1204 m 332 1063 l 483 1286 l 569 1286 l 721 1063 l 660 1063 l 526 1225 l 393 1063 l 332 1063 z "},"Ổ":{"ha":1054,"x_min":89,"x_max":965,"o":"m 526 -11 q 294 50 392 -11 q 142 224 196 111 q 89 490 89 336 q 142 757 89 644 q 293 930 194 869 q 526 990 392 990 q 760 930 663 990 q 912 758 858 869 q 965 492 965 646 q 912 224 965 336 q 760 50 858 111 q 526 -11 661 -11 m 526 67 q 783 178 692 67 q 875 490 875 289 q 784 802 875 692 q 526 913 693 913 q 270 801 361 913 q 179 490 179 690 q 270 178 179 290 q 526 67 361 67 m 661 1204 q 674 1255 661 1236 q 705 1285 688 1274 q 735 1308 722 1297 q 749 1338 749 1319 q 682 1367 749 1367 q 642 1363 663 1367 q 596 1350 621 1358 l 582 1396 q 694 1418 628 1418 q 785 1399 753 1418 q 817 1347 817 1379 q 802 1301 817 1318 q 768 1273 788 1285 q 734 1246 749 1261 q 719 1204 719 1231 l 661 1204 m 332 1063 l 483 1286 l 569 1286 l 721 1063 l 660 1063 l 526 1225 l 393 1063 l 332 1063 z "},"Ỗ":{"ha":1054,"x_min":89,"x_max":965,"o":"m 526 -11 q 294 50 392 -11 q 142 224 196 111 q 89 490 89 336 q 142 757 89 644 q 293 930 194 869 q 526 990 392 990 q 760 930 663 990 q 912 758 858 869 q 965 492 965 646 q 912 224 965 336 q 760 50 858 111 q 526 -11 661 -11 m 526 67 q 783 178 692 67 q 875 490 875 289 q 784 802 875 692 q 526 913 693 913 q 270 801 361 913 q 179 490 179 690 q 270 178 179 290 q 526 67 361 67 m 369 1276 l 315 1279 q 354 1383 321 1349 q 438 1417 388 1417 q 487 1406 464 1417 q 539 1374 510 1396 q 584 1345 568 1351 q 614 1339 600 1339 q 661 1358 646 1339 q 683 1419 676 1376 l 738 1417 q 699 1313 732 1347 q 617 1279 667 1279 q 567 1290 590 1279 q 508 1326 543 1301 q 474 1348 490 1339 q 439 1357 457 1357 q 392 1338 408 1357 q 369 1276 376 1319 m 332 1063 l 483 1244 l 569 1244 l 721 1063 l 661 1063 l 526 1189 l 393 1063 l 332 1063 z "},"Ȍ":{"ha":1054,"x_min":89,"x_max":965,"o":"m 526 -11 q 294 50 392 -11 q 142 224 196 111 q 89 490 89 336 q 142 757 89 644 q 293 930 194 869 q 526 990 392 990 q 760 930 663 990 q 912 758 858 869 q 965 492 965 646 q 912 224 965 336 q 760 50 858 111 q 526 -11 661 -11 m 526 67 q 783 178 692 67 q 875 490 875 289 q 784 802 875 692 q 526 913 693 913 q 270 801 361 913 q 179 490 179 690 q 270 178 179 290 q 526 67 361 67 m 582 1063 l 424 1300 l 515 1300 l 633 1063 l 582 1063 m 419 1063 l 258 1300 l 350 1300 l 471 1063 l 419 1063 z "},"Ö":{"ha":1054,"x_min":89,"x_max":965,"o":"m 526 -11 q 294 50 392 -11 q 142 224 196 111 q 89 490 89 336 q 142 757 89 644 q 293 930 194 869 q 526 990 392 990 q 760 930 663 990 q 912 758 858 869 q 965 492 965 646 q 912 224 965 336 q 760 50 858 111 q 526 -11 661 -11 m 526 67 q 783 178 692 67 q 875 490 875 289 q 784 802 875 692 q 526 913 693 913 q 270 801 361 913 q 179 490 179 690 q 270 178 179 290 q 526 67 361 67 m 592 1129 l 592 1231 l 693 1231 l 693 1129 l 592 1129 m 360 1129 l 360 1231 l 461 1231 l 461 1129 l 360 1129 z "},"Ȫ":{"ha":1054,"x_min":89,"x_max":965,"o":"m 526 -11 q 294 50 392 -11 q 142 224 196 111 q 89 490 89 336 q 142 757 89 644 q 293 930 194 869 q 526 990 392 990 q 760 930 663 990 q 912 758 858 869 q 965 492 965 646 q 912 224 965 336 q 760 50 858 111 q 526 -11 661 -11 m 526 67 q 783 178 692 67 q 875 490 875 289 q 784 802 875 692 q 526 913 693 913 q 270 801 361 913 q 179 490 179 690 q 270 178 179 290 q 526 67 361 67 m 326 1286 l 326 1351 l 726 1351 l 726 1286 l 326 1286 m 360 1114 l 360 1206 l 461 1206 l 461 1114 l 360 1114 m 592 1114 l 592 1206 l 693 1206 l 693 1114 l 592 1114 z "},"Ȱ":{"ha":1054,"x_min":89,"x_max":965,"o":"m 526 -11 q 294 50 392 -11 q 142 224 196 111 q 89 490 89 336 q 142 757 89 644 q 293 930 194 869 q 526 990 392 990 q 760 930 663 990 q 912 758 858 869 q 965 492 965 646 q 912 224 965 336 q 760 50 858 111 q 526 -11 661 -11 m 526 67 q 783 178 692 67 q 875 490 875 289 q 784 802 875 692 q 526 913 693 913 q 270 801 361 913 q 179 490 179 690 q 270 178 179 290 q 526 67 361 67 m 326 1286 l 326 1351 l 726 1351 l 726 1286 l 326 1286 m 476 1114 l 476 1206 l 578 1206 l 578 1114 l 476 1114 z "},"Ọ":{"ha":1054,"x_min":89,"x_max":965,"o":"m 526 -11 q 294 50 392 -11 q 142 224 196 111 q 89 490 89 336 q 142 757 89 644 q 293 930 194 869 q 526 990 392 990 q 760 930 663 990 q 912 758 858 869 q 965 492 965 646 q 912 224 965 336 q 760 50 858 111 q 526 -11 661 -11 m 526 67 q 783 178 692 67 q 875 490 875 289 q 784 802 875 692 q 526 913 693 913 q 270 801 361 913 q 179 490 179 690 q 270 178 179 290 q 526 67 361 67 m 472 -249 l 472 -144 l 581 -144 l 581 -249 l 472 -249 z "},"Ò":{"ha":1054,"x_min":89,"x_max":965,"o":"m 526 -11 q 294 50 392 -11 q 142 224 196 111 q 89 490 89 336 q 142 757 89 644 q 293 930 194 869 q 526 990 392 990 q 760 930 663 990 q 912 758 858 869 q 965 492 965 646 q 912 224 965 336 q 760 50 858 111 q 526 -11 661 -11 m 526 67 q 783 178 692 67 q 875 490 875 289 q 784 802 875 692 q 526 913 693 913 q 270 801 361 913 q 179 490 179 690 q 270 178 179 290 q 526 67 361 67 m 492 1063 l 296 1300 l 397 1300 l 561 1063 l 492 1063 z "},"Ỏ":{"ha":1054,"x_min":89,"x_max":965,"o":"m 526 -11 q 294 50 392 -11 q 142 224 196 111 q 89 490 89 336 q 142 757 89 644 q 293 930 194 869 q 526 990 392 990 q 760 930 663 990 q 912 758 858 869 q 965 492 965 646 q 912 224 965 336 q 760 50 858 111 q 526 -11 661 -11 m 526 67 q 783 178 692 67 q 875 490 875 289 q 784 802 875 692 q 526 913 693 913 q 270 801 361 913 q 179 490 179 690 q 270 178 179 290 q 526 67 361 67 m 494 1063 l 494 1083 q 508 1131 494 1113 q 540 1161 522 1149 q 572 1186 558 1174 q 586 1215 586 1199 q 517 1250 586 1250 q 475 1245 496 1250 q 429 1228 454 1240 l 413 1281 q 531 1307 463 1307 q 626 1284 592 1307 q 660 1224 660 1261 q 644 1176 660 1193 q 609 1147 629 1160 q 574 1119 589 1135 q 560 1076 560 1104 l 560 1063 l 494 1063 z "},"Ơ":{"ha":1054,"x_min":89,"x_max":965,"o":"m 526 -11 q 294 50 392 -11 q 142 224 196 111 q 89 490 89 336 q 142 757 89 644 q 293 930 194 869 q 526 990 392 990 q 760 930 663 990 q 912 758 858 869 q 965 492 965 646 q 912 224 965 336 q 760 50 858 111 q 526 -11 661 -11 m 526 67 q 783 178 692 67 q 875 490 875 289 q 784 802 875 692 q 526 913 693 913 q 270 801 361 913 q 179 490 179 690 q 270 178 179 290 q 526 67 361 67 m 675 918 l 603 985 q 726 979 675 979 q 853 1019 821 979 q 886 1142 886 1060 l 886 1161 l 963 1161 l 963 1128 q 910 975 963 1032 q 764 918 857 918 l 675 918 z "},"Ớ":{"ha":1054,"x_min":89,"x_max":965,"o":"m 526 -11 q 294 50 392 -11 q 142 224 196 111 q 89 490 89 336 q 142 757 89 644 q 293 930 194 869 q 526 990 392 990 q 760 930 663 990 q 912 758 858 869 q 965 492 965 646 q 912 224 965 336 q 760 50 858 111 q 526 -11 661 -11 m 526 67 q 783 178 692 67 q 875 490 875 289 q 784 802 875 692 q 526 913 693 913 q 270 801 361 913 q 179 490 179 690 q 270 178 179 290 q 526 67 361 67 m 675 918 l 603 985 q 726 979 675 979 q 853 1019 821 979 q 886 1142 886 1060 l 886 1161 l 963 1161 l 963 1128 q 910 975 963 1032 q 764 918 857 918 l 675 918 m 490 1063 l 654 1300 l 756 1300 l 560 1063 l 490 1063 z "},"Ợ":{"ha":1054,"x_min":89,"x_max":965,"o":"m 526 -11 q 294 50 392 -11 q 142 224 196 111 q 89 490 89 336 q 142 757 89 644 q 293 930 194 869 q 526 990 392 990 q 760 930 663 990 q 912 758 858 869 q 965 492 965 646 q 912 224 965 336 q 760 50 858 111 q 526 -11 661 -11 m 526 67 q 783 178 692 67 q 875 490 875 289 q 784 802 875 692 q 526 913 693 913 q 270 801 361 913 q 179 490 179 690 q 270 178 179 290 q 526 67 361 67 m 675 918 l 603 985 q 726 979 675 979 q 853 1019 821 979 q 886 1142 886 1060 l 886 1161 l 963 1161 l 963 1128 q 910 975 963 1032 q 764 918 857 918 l 675 918 m 472 -249 l 472 -144 l 581 -144 l 581 -249 l 472 -249 z "},"Ờ":{"ha":1054,"x_min":89,"x_max":965,"o":"m 526 -11 q 294 50 392 -11 q 142 224 196 111 q 89 490 89 336 q 142 757 89 644 q 293 930 194 869 q 526 990 392 990 q 760 930 663 990 q 912 758 858 869 q 965 492 965 646 q 912 224 965 336 q 760 50 858 111 q 526 -11 661 -11 m 526 67 q 783 178 692 67 q 875 490 875 289 q 784 802 875 692 q 526 913 693 913 q 270 801 361 913 q 179 490 179 690 q 270 178 179 290 q 526 67 361 67 m 675 918 l 603 985 q 726 979 675 979 q 853 1019 821 979 q 886 1142 886 1060 l 886 1161 l 963 1161 l 963 1128 q 910 975 963 1032 q 764 918 857 918 l 675 918 m 490 1063 l 294 1300 l 396 1300 l 560 1063 l 490 1063 z "},"Ở":{"ha":1054,"x_min":89,"x_max":965,"o":"m 526 -11 q 294 50 392 -11 q 142 224 196 111 q 89 490 89 336 q 142 757 89 644 q 293 930 194 869 q 526 990 392 990 q 760 930 663 990 q 912 758 858 869 q 965 492 965 646 q 912 224 965 336 q 760 50 858 111 q 526 -11 661 -11 m 526 67 q 783 178 692 67 q 875 490 875 289 q 784 802 875 692 q 526 913 693 913 q 270 801 361 913 q 179 490 179 690 q 270 178 179 290 q 526 67 361 67 m 675 918 l 603 985 q 726 979 675 979 q 853 1019 821 979 q 886 1142 886 1060 l 886 1161 l 963 1161 l 963 1128 q 910 975 963 1032 q 764 918 857 918 l 675 918 m 493 1063 l 493 1083 q 507 1131 493 1113 q 539 1161 521 1149 q 571 1186 557 1174 q 585 1215 585 1199 q 515 1250 585 1250 q 474 1245 494 1250 q 428 1228 453 1240 l 411 1281 q 529 1307 461 1307 q 624 1284 590 1307 q 658 1224 658 1261 q 643 1176 658 1193 q 608 1147 628 1160 q 573 1119 588 1135 q 558 1076 558 1104 l 558 1063 l 493 1063 z "},"Ỡ":{"ha":1054,"x_min":89,"x_max":965,"o":"m 526 -11 q 294 50 392 -11 q 142 224 196 111 q 89 490 89 336 q 142 757 89 644 q 293 930 194 869 q 526 990 392 990 q 760 930 663 990 q 912 758 858 869 q 965 492 965 646 q 912 224 965 336 q 760 50 858 111 q 526 -11 661 -11 m 526 67 q 783 178 692 67 q 875 490 875 289 q 784 802 875 692 q 526 913 693 913 q 270 801 361 913 q 179 490 179 690 q 270 178 179 290 q 526 67 361 67 m 675 918 l 603 985 q 726 979 675 979 q 853 1019 821 979 q 886 1142 886 1060 l 886 1161 l 963 1161 l 963 1128 q 910 975 963 1032 q 764 918 857 918 l 675 918 m 313 1093 l 258 1097 q 308 1228 267 1182 q 413 1274 349 1274 q 474 1258 444 1274 q 539 1213 503 1243 q 591 1174 569 1186 q 633 1161 613 1161 q 732 1278 713 1161 l 786 1274 q 736 1143 776 1189 q 632 1097 696 1097 q 567 1114 597 1097 q 504 1158 538 1131 q 410 1210 447 1210 q 313 1093 331 1210 z "},"Ő":{"ha":1054,"x_min":89,"x_max":965,"o":"m 526 -11 q 294 50 392 -11 q 142 224 196 111 q 89 490 89 336 q 142 757 89 644 q 293 930 194 869 q 526 990 392 990 q 760 930 663 990 q 912 758 858 869 q 965 492 965 646 q 912 224 965 336 q 760 50 858 111 q 526 -11 661 -11 m 526 67 q 783 178 692 67 q 875 490 875 289 q 784 802 875 692 q 526 913 693 913 q 270 801 361 913 q 179 490 179 690 q 270 178 179 290 q 526 67 361 67 m 419 1063 l 539 1300 l 629 1300 l 471 1063 l 419 1063 m 582 1063 l 704 1300 l 794 1300 l 633 1063 l 582 1063 z "},"Ȏ":{"ha":1054,"x_min":89,"x_max":965,"o":"m 526 -11 q 294 50 392 -11 q 142 224 196 111 q 89 490 89 336 q 142 757 89 644 q 293 930 194 869 q 526 990 392 990 q 760 930 663 990 q 912 758 858 869 q 965 492 965 646 q 912 224 965 336 q 760 50 858 111 q 526 -11 661 -11 m 526 67 q 783 178 692 67 q 875 490 875 289 q 784 802 875 692 q 526 913 693 913 q 270 801 361 913 q 179 490 179 690 q 270 178 179 290 q 526 67 361 67 m 358 1056 l 300 1063 q 372 1233 310 1171 q 526 1296 433 1296 q 681 1233 619 1296 q 753 1063 743 1171 l 694 1056 q 644 1187 689 1140 q 526 1233 599 1233 q 409 1187 454 1233 q 358 1056 364 1140 z "},"Ō":{"ha":1054,"x_min":89,"x_max":965,"o":"m 526 -11 q 294 50 392 -11 q 142 224 196 111 q 89 490 89 336 q 142 757 89 644 q 293 930 194 869 q 526 990 392 990 q 760 930 663 990 q 912 758 858 869 q 965 492 965 646 q 912 224 965 336 q 760 50 858 111 q 526 -11 661 -11 m 526 67 q 783 178 692 67 q 875 490 875 289 q 784 802 875 692 q 526 913 693 913 q 270 801 361 913 q 179 490 179 690 q 270 178 179 290 q 526 67 361 67 m 306 1136 l 306 1201 l 747 1201 l 747 1136 l 306 1136 z "},"Ṓ":{"ha":1054,"x_min":89,"x_max":965,"o":"m 526 -11 q 294 50 392 -11 q 142 224 196 111 q 89 490 89 336 q 142 757 89 644 q 293 930 194 869 q 526 990 392 990 q 760 930 663 990 q 912 758 858 869 q 965 492 965 646 q 912 224 965 336 q 760 50 858 111 q 526 -11 661 -11 m 526 67 q 783 178 692 67 q 875 490 875 289 q 784 802 875 692 q 526 913 693 913 q 270 801 361 913 q 179 490 179 690 q 270 178 179 290 q 526 67 361 67 m 494 1217 l 622 1419 l 719 1419 l 558 1217 l 494 1217 m 326 1101 l 326 1165 l 726 1165 l 726 1101 l 326 1101 z "},"Ṑ":{"ha":1054,"x_min":89,"x_max":965,"o":"m 526 -11 q 294 50 392 -11 q 142 224 196 111 q 89 490 89 336 q 142 757 89 644 q 293 930 194 869 q 526 990 392 990 q 760 930 663 990 q 912 758 858 869 q 965 492 965 646 q 912 224 965 336 q 760 50 858 111 q 526 -11 661 -11 m 526 67 q 783 178 692 67 q 875 490 875 289 q 784 802 875 692 q 526 913 693 913 q 270 801 361 913 q 179 490 179 690 q 270 178 179 290 q 526 67 361 67 m 494 1217 l 335 1419 l 431 1419 l 558 1217 l 494 1217 m 326 1101 l 326 1165 l 726 1165 l 726 1101 l 326 1101 z "},"Ǫ":{"ha":1054,"x_min":89,"x_max":965,"o":"m 526 -11 q 294 50 392 -11 q 142 224 196 111 q 89 490 89 336 q 142 757 89 644 q 293 930 194 869 q 526 990 392 990 q 760 930 663 990 q 912 758 858 869 q 965 492 965 646 q 912 224 965 336 q 760 50 858 111 q 526 -11 661 -11 m 526 67 q 783 178 692 67 q 875 490 875 289 q 784 802 875 692 q 526 913 693 913 q 270 801 361 913 q 179 490 179 690 q 270 178 179 290 q 526 67 361 67 m 579 -265 q 480 -230 518 -265 q 442 -133 442 -194 q 476 -32 442 -81 q 569 47 510 17 l 604 0 q 540 -47 572 -14 q 508 -125 508 -79 q 532 -186 508 -167 q 590 -206 556 -206 q 664 -189 625 -206 l 683 -242 q 579 -265 644 -265 z "},"Ø":{"ha":1054,"x_min":89,"x_max":965,"o":"m 526 -11 q 294 50 392 -11 q 142 224 196 111 q 89 490 89 336 q 142 757 89 644 q 293 930 194 869 q 526 990 392 990 q 760 930 663 990 q 912 758 858 869 q 965 492 965 646 q 912 224 965 336 q 760 50 858 111 q 526 -11 661 -11 m 526 67 q 783 178 692 67 q 875 490 875 289 q 784 802 875 692 q 526 913 693 913 q 270 801 361 913 q 179 490 179 690 q 270 178 179 290 q 526 67 361 67 m 250 -57 l 188 -22 l 257 97 l 283 140 l 714 879 l 736 918 l 804 1036 l 867 1001 l 797 882 l 772 839 l 342 100 l 319 61 l 250 -57 z "},"Ǿ":{"ha":1054,"x_min":89,"x_max":965,"o":"m 526 -11 q 294 50 392 -11 q 142 224 196 111 q 89 490 89 336 q 142 757 89 644 q 293 930 194 869 q 526 990 392 990 q 760 930 663 990 q 912 758 858 869 q 965 492 965 646 q 912 224 965 336 q 760 50 858 111 q 526 -11 661 -11 m 526 67 q 783 178 692 67 q 875 490 875 289 q 784 802 875 692 q 526 913 693 913 q 270 801 361 913 q 179 490 179 690 q 270 178 179 290 q 526 67 361 67 m 250 -57 l 188 -22 l 257 97 l 283 140 l 714 879 l 736 918 l 804 1036 l 867 1001 l 797 882 l 772 839 l 342 100 l 319 61 l 250 -57 m 492 1063 l 656 1300 l 757 1300 l 561 1063 l 492 1063 z "},"Õ":{"ha":1054,"x_min":89,"x_max":965,"o":"m 526 -11 q 294 50 392 -11 q 142 224 196 111 q 89 490 89 336 q 142 757 89 644 q 293 930 194 869 q 526 990 392 990 q 760 930 663 990 q 912 758 858 869 q 965 492 965 646 q 912 224 965 336 q 760 50 858 111 q 526 -11 661 -11 m 526 67 q 783 178 692 67 q 875 490 875 289 q 784 802 875 692 q 526 913 693 913 q 270 801 361 913 q 179 490 179 690 q 270 178 179 290 q 526 67 361 67 m 300 1093 l 246 1097 q 296 1228 254 1182 q 403 1274 338 1274 q 467 1259 435 1274 q 544 1213 500 1244 q 612 1172 589 1183 q 654 1161 635 1161 q 753 1278 735 1161 l 807 1274 q 757 1143 799 1189 q 651 1097 715 1097 q 585 1112 619 1097 q 504 1160 551 1126 q 442 1199 465 1188 q 399 1210 418 1210 q 300 1093 319 1210 z "},"Ṍ":{"ha":1054,"x_min":89,"x_max":965,"o":"m 526 -11 q 294 50 392 -11 q 142 224 196 111 q 89 490 89 336 q 142 757 89 644 q 293 930 194 869 q 526 990 392 990 q 760 930 663 990 q 912 758 858 869 q 965 492 965 646 q 912 224 965 336 q 760 50 858 111 q 526 -11 661 -11 m 526 67 q 783 178 692 67 q 875 490 875 289 q 784 802 875 692 q 526 913 693 913 q 270 801 361 913 q 179 490 179 690 q 270 178 179 290 q 526 67 361 67 m 494 1217 l 622 1419 l 719 1419 l 558 1217 l 494 1217 m 617 1067 q 568 1077 592 1067 q 513 1111 544 1088 q 469 1138 485 1132 q 439 1144 453 1144 q 392 1126 408 1144 q 369 1064 376 1107 l 315 1067 q 354 1170 321 1136 q 438 1204 388 1204 q 483 1195 461 1204 q 536 1163 504 1186 q 582 1134 565 1142 q 614 1126 599 1126 q 661 1145 646 1126 q 683 1207 676 1164 l 738 1204 q 699 1101 732 1135 q 617 1067 667 1067 z "},"Ṏ":{"ha":1054,"x_min":89,"x_max":965,"o":"m 526 -11 q 294 50 392 -11 q 142 224 196 111 q 89 490 89 336 q 142 757 89 644 q 293 930 194 869 q 526 990 392 990 q 760 930 663 990 q 912 758 858 869 q 965 492 965 646 q 912 224 965 336 q 760 50 858 111 q 526 -11 661 -11 m 526 67 q 783 178 692 67 q 875 490 875 289 q 784 802 875 692 q 526 913 693 913 q 270 801 361 913 q 179 490 179 690 q 270 178 179 290 q 526 67 361 67 m 360 1265 l 360 1357 l 461 1357 l 461 1265 l 360 1265 m 592 1265 l 592 1357 l 693 1357 l 693 1265 l 592 1265 m 617 1067 q 568 1077 592 1067 q 513 1111 544 1088 q 469 1138 485 1132 q 439 1144 453 1144 q 392 1126 408 1144 q 369 1064 376 1107 l 315 1067 q 354 1170 321 1136 q 438 1204 388 1204 q 483 1195 461 1204 q 536 1163 504 1186 q 582 1134 565 1142 q 614 1126 599 1126 q 661 1145 646 1126 q 683 1207 676 1164 l 738 1204 q 699 1101 732 1135 q 617 1067 667 1067 z "},"Ȭ":{"ha":1054,"x_min":89,"x_max":965,"o":"m 526 -11 q 294 50 392 -11 q 142 224 196 111 q 89 490 89 336 q 142 757 89 644 q 293 930 194 869 q 526 990 392 990 q 760 930 663 990 q 912 758 858 869 q 965 492 965 646 q 912 224 965 336 q 760 50 858 111 q 526 -11 661 -11 m 526 67 q 783 178 692 67 q 875 490 875 289 q 784 802 875 692 q 526 913 693 913 q 270 801 361 913 q 179 490 179 690 q 270 178 179 290 q 526 67 361 67 m 326 1286 l 326 1351 l 726 1351 l 726 1286 l 326 1286 m 617 1067 q 568 1077 592 1067 q 513 1111 544 1088 q 469 1138 485 1132 q 439 1144 453 1144 q 392 1126 408 1144 q 369 1064 376 1107 l 315 1067 q 354 1170 321 1136 q 438 1204 388 1204 q 483 1195 461 1204 q 536 1163 504 1186 q 582 1134 565 1142 q 614 1126 599 1126 q 661 1145 646 1126 q 683 1207 676 1164 l 738 1204 q 699 1101 732 1135 q 617 1067 667 1067 z "},"Œ":{"ha":1447,"x_min":89,"x_max":1378,"o":"m 576 0 q 215 126 342 0 q 89 490 89 251 q 215 854 89 729 q 576 979 342 979 l 1378 979 l 1378 906 l 858 906 l 858 533 l 1349 533 l 1349 460 l 858 460 l 858 74 l 1378 74 l 1378 0 l 576 0 m 583 75 l 775 75 l 775 904 l 583 904 q 179 490 179 904 q 583 75 179 75 z "},"P":{"ha":867,"x_min":128,"x_max":819,"o":"m 128 0 l 128 979 l 497 979 q 737 904 654 979 q 819 690 819 829 q 737 477 819 553 q 497 401 654 401 l 213 401 l 213 0 l 128 0 m 213 476 l 490 476 q 733 690 733 476 q 490 906 733 906 l 213 906 l 213 476 z "},"Þ":{"ha":868,"x_min":128,"x_max":821,"o":"m 128 0 l 128 979 l 213 979 l 213 796 l 499 796 q 738 721 654 796 q 821 507 821 646 q 738 294 821 369 q 499 219 654 219 l 213 219 l 213 0 l 128 0 m 213 293 l 490 293 q 733 507 733 293 q 490 722 733 722 l 213 722 l 213 293 z "},"Q":{"ha":1054,"x_min":89,"x_max":965,"o":"m 800 -271 l 692 -97 q 526 -11 639 -11 l 526 -11 q 294 50 392 -11 q 142 224 196 111 q 89 490 89 336 q 142 757 89 644 q 293 930 194 869 q 526 990 392 990 q 760 930 663 990 q 912 758 858 869 q 965 492 965 646 q 889 182 965 307 q 678 11 813 57 q 732 -22 708 1 q 779 -87 756 -46 l 869 -231 l 800 -271 m 526 67 q 783 178 692 67 q 875 490 875 289 q 784 802 875 692 q 526 913 693 913 q 270 801 361 913 q 179 490 179 690 q 270 178 179 290 q 526 67 361 67 z "},"R":{"ha":918,"x_min":128,"x_max":874,"o":"m 128 0 l 128 979 l 497 979 q 737 907 654 979 q 819 701 819 835 q 760 524 819 592 q 590 436 700 456 q 696 328 650 414 l 874 0 l 781 0 l 611 314 q 531 401 575 379 q 411 424 486 424 l 213 424 l 213 0 l 128 0 m 213 496 l 486 496 q 733 701 733 496 q 486 906 733 906 l 213 906 l 213 496 z "},"Ŕ":{"ha":918,"x_min":128,"x_max":874,"o":"m 128 0 l 128 979 l 497 979 q 737 907 654 979 q 819 701 819 835 q 760 524 819 592 q 590 436 700 456 q 696 328 650 414 l 874 0 l 781 0 l 611 314 q 531 401 575 379 q 411 424 486 424 l 213 424 l 213 0 l 128 0 m 213 496 l 486 496 q 733 701 733 496 q 486 906 733 906 l 213 906 l 213 496 m 433 1063 l 597 1300 l 699 1300 l 503 1063 l 433 1063 z "},"Ř":{"ha":918,"x_min":128,"x_max":874,"o":"m 128 0 l 128 979 l 497 979 q 737 907 654 979 q 819 701 819 835 q 760 524 819 592 q 590 436 700 456 q 696 328 650 414 l 874 0 l 781 0 l 611 314 q 531 401 575 379 q 411 424 486 424 l 213 424 l 213 0 l 128 0 m 213 496 l 486 496 q 733 701 733 496 q 486 906 733 906 l 213 906 l 213 496 m 425 1063 l 256 1300 l 324 1300 l 468 1125 l 613 1300 l 681 1300 l 511 1063 l 425 1063 z "},"Ŗ":{"ha":918,"x_min":128,"x_max":874,"o":"m 128 0 l 128 979 l 497 979 q 737 907 654 979 q 819 701 819 835 q 760 524 819 592 q 590 436 700 456 q 696 328 650 414 l 874 0 l 781 0 l 611 314 q 531 401 575 379 q 411 424 486 424 l 213 424 l 213 0 l 128 0 m 213 496 l 486 496 q 733 701 733 496 q 486 906 733 906 l 213 906 l 213 496 m 458 -365 l 415 -335 q 456 -275 444 -303 q 468 -217 467 -247 l 410 -217 l 410 -115 l 526 -115 l 526 -194 q 510 -287 526 -243 q 458 -365 493 -331 z "},"Ȑ":{"ha":918,"x_min":128,"x_max":874,"o":"m 128 0 l 128 979 l 497 979 q 737 907 654 979 q 819 701 819 835 q 760 524 819 592 q 590 436 700 456 q 696 328 650 414 l 874 0 l 781 0 l 611 314 q 531 401 575 379 q 411 424 486 424 l 213 424 l 213 0 l 128 0 m 213 496 l 486 496 q 733 701 733 496 q 486 906 733 906 l 213 906 l 213 496 m 524 1063 l 365 1300 l 457 1300 l 575 1063 l 524 1063 m 361 1063 l 200 1300 l 292 1300 l 413 1063 l 361 1063 z "},"Ṛ":{"ha":918,"x_min":128,"x_max":874,"o":"m 128 0 l 128 979 l 497 979 q 737 907 654 979 q 819 701 819 835 q 760 524 819 592 q 590 436 700 456 q 696 328 650 414 l 874 0 l 781 0 l 611 314 q 531 401 575 379 q 411 424 486 424 l 213 424 l 213 0 l 128 0 m 213 496 l 486 496 q 733 701 733 496 q 486 906 733 906 l 213 906 l 213 496 m 414 -249 l 414 -144 l 522 -144 l 522 -249 l 414 -249 z "},"Ȓ":{"ha":918,"x_min":128,"x_max":874,"o":"m 128 0 l 128 979 l 497 979 q 737 907 654 979 q 819 701 819 835 q 760 524 819 592 q 590 436 700 456 q 696 328 650 414 l 874 0 l 781 0 l 611 314 q 531 401 575 379 q 411 424 486 424 l 213 424 l 213 0 l 128 0 m 213 496 l 486 496 q 733 701 733 496 q 486 906 733 906 l 213 906 l 213 496 m 300 1056 l 242 1063 q 313 1233 251 1171 q 468 1296 375 1296 q 623 1233 561 1296 q 694 1063 685 1171 l 636 1056 q 585 1187 631 1140 q 468 1233 540 1233 q 351 1187 396 1233 q 300 1056 306 1140 z "},"Ṟ":{"ha":918,"x_min":128,"x_max":874,"o":"m 128 0 l 128 979 l 497 979 q 737 907 654 979 q 819 701 819 835 q 760 524 819 592 q 590 436 700 456 q 696 328 650 414 l 874 0 l 781 0 l 611 314 q 531 401 575 379 q 411 424 486 424 l 213 424 l 213 0 l 128 0 m 213 496 l 486 496 q 733 701 733 496 q 486 906 733 906 l 213 906 l 213 496 m 268 -211 l 268 -147 l 668 -147 l 668 -211 l 268 -211 z "},"S":{"ha":843,"x_min":71,"x_max":785,"o":"m 433 -11 q 228 19 319 -11 q 71 107 138 49 l 104 178 q 252 94 176 121 q 433 67 328 67 q 631 118 565 67 q 697 253 697 169 q 649 361 697 322 q 492 422 601 400 l 351 451 q 156 540 221 478 q 92 707 92 603 q 135 856 92 792 q 257 955 179 919 q 436 990 335 990 q 760 868 639 990 l 726 799 q 593 885 663 858 q 436 913 524 913 q 249 857 319 913 q 179 708 179 801 q 224 592 179 635 q 367 531 268 550 l 508 501 q 717 415 649 472 q 785 257 785 357 q 742 117 785 178 q 621 23 700 57 q 433 -11 542 -11 z "},"Ś":{"ha":843,"x_min":71,"x_max":785,"o":"m 433 -11 q 228 19 319 -11 q 71 107 138 49 l 104 178 q 252 94 176 121 q 433 67 328 67 q 631 118 565 67 q 697 253 697 169 q 649 361 697 322 q 492 422 601 400 l 351 451 q 156 540 221 478 q 92 707 92 603 q 135 856 92 792 q 257 955 179 919 q 436 990 335 990 q 760 868 639 990 l 726 799 q 593 885 663 858 q 436 913 524 913 q 249 857 319 913 q 179 708 179 801 q 224 592 179 635 q 367 531 268 550 l 508 501 q 717 415 649 472 q 785 257 785 357 q 742 117 785 178 q 621 23 700 57 q 433 -11 542 -11 m 394 1063 l 558 1300 l 660 1300 l 464 1063 l 394 1063 z "},"Ṥ":{"ha":843,"x_min":71,"x_max":785,"o":"m 433 -11 q 228 19 319 -11 q 71 107 138 49 l 104 178 q 252 94 176 121 q 433 67 328 67 q 631 118 565 67 q 697 253 697 169 q 649 361 697 322 q 492 422 601 400 l 351 451 q 156 540 221 478 q 92 707 92 603 q 135 856 92 792 q 257 955 179 919 q 436 990 335 990 q 760 868 639 990 l 726 799 q 593 885 663 858 q 436 913 524 913 q 249 857 319 913 q 179 708 179 801 q 224 592 179 635 q 367 531 268 550 l 508 501 q 717 415 649 472 q 785 257 785 357 q 742 117 785 178 q 621 23 700 57 q 433 -11 542 -11 m 326 1310 l 326 1401 l 429 1401 l 429 1310 l 326 1310 m 394 1063 l 558 1300 l 660 1300 l 464 1063 l 394 1063 z "},"Š":{"ha":843,"x_min":71,"x_max":785,"o":"m 433 -11 q 228 19 319 -11 q 71 107 138 49 l 104 178 q 252 94 176 121 q 433 67 328 67 q 631 118 565 67 q 697 253 697 169 q 649 361 697 322 q 492 422 601 400 l 351 451 q 156 540 221 478 q 92 707 92 603 q 135 856 92 792 q 257 955 179 919 q 436 990 335 990 q 760 868 639 990 l 726 799 q 593 885 663 858 q 436 913 524 913 q 249 857 319 913 q 179 708 179 801 q 224 592 179 635 q 367 531 268 550 l 508 501 q 717 415 649 472 q 785 257 785 357 q 742 117 785 178 q 621 23 700 57 q 433 -11 542 -11 m 386 1063 l 217 1300 l 285 1300 l 429 1125 l 574 1300 l 642 1300 l 472 1063 l 386 1063 z "},"Ṧ":{"ha":843,"x_min":71,"x_max":785,"o":"m 433 -11 q 228 19 319 -11 q 71 107 138 49 l 104 178 q 252 94 176 121 q 433 67 328 67 q 631 118 565 67 q 697 253 697 169 q 649 361 697 322 q 492 422 601 400 l 351 451 q 156 540 221 478 q 92 707 92 603 q 135 856 92 792 q 257 955 179 919 q 436 990 335 990 q 760 868 639 990 l 726 799 q 593 885 663 858 q 436 913 524 913 q 249 857 319 913 q 179 708 179 801 q 224 592 179 635 q 367 531 268 550 l 508 501 q 717 415 649 472 q 785 257 785 357 q 742 117 785 178 q 621 23 700 57 q 433 -11 542 -11 m 379 1351 l 379 1443 l 481 1443 l 481 1351 l 379 1351 m 386 1063 l 235 1285 l 297 1285 l 429 1126 l 561 1285 l 624 1285 l 472 1063 l 386 1063 z "},"Ş":{"ha":843,"x_min":71,"x_max":785,"o":"m 433 -11 q 228 19 319 -11 q 71 107 138 49 l 104 178 q 252 94 176 121 q 433 67 328 67 q 631 118 565 67 q 697 253 697 169 q 649 361 697 322 q 492 422 601 400 l 351 451 q 156 540 221 478 q 92 707 92 603 q 135 856 92 792 q 257 955 179 919 q 436 990 335 990 q 760 868 639 990 l 726 799 q 593 885 663 858 q 436 913 524 913 q 249 857 319 913 q 179 708 179 801 q 224 592 179 635 q 367 531 268 550 l 508 501 q 717 415 649 472 q 785 257 785 357 q 742 117 785 178 q 621 23 700 57 q 433 -11 542 -11 m 440 -265 q 325 -239 368 -265 l 340 -185 q 388 -203 365 -197 q 442 -208 410 -208 q 502 -194 479 -208 q 525 -153 525 -179 q 472 -111 525 -111 q 441 -113 457 -111 q 404 -124 425 -115 l 382 -104 l 401 28 l 464 28 l 449 -64 q 479 -61 465 -61 q 559 -85 526 -61 q 592 -154 592 -110 q 550 -235 592 -204 q 440 -265 508 -265 z "},"Ŝ":{"ha":843,"x_min":71,"x_max":785,"o":"m 433 -11 q 228 19 319 -11 q 71 107 138 49 l 104 178 q 252 94 176 121 q 433 67 328 67 q 631 118 565 67 q 697 253 697 169 q 649 361 697 322 q 492 422 601 400 l 351 451 q 156 540 221 478 q 92 707 92 603 q 135 856 92 792 q 257 955 179 919 q 436 990 335 990 q 760 868 639 990 l 726 799 q 593 885 663 858 q 436 913 524 913 q 249 857 319 913 q 179 708 179 801 q 224 592 179 635 q 367 531 268 550 l 508 501 q 717 415 649 472 q 785 257 785 357 q 742 117 785 178 q 621 23 700 57 q 433 -11 542 -11 m 217 1063 l 386 1300 l 472 1300 l 642 1063 l 574 1063 l 429 1238 l 285 1063 l 217 1063 z "},"Ș":{"ha":843,"x_min":71,"x_max":785,"o":"m 433 -11 q 228 19 319 -11 q 71 107 138 49 l 104 178 q 252 94 176 121 q 433 67 328 67 q 631 118 565 67 q 697 253 697 169 q 649 361 697 322 q 492 422 601 400 l 351 451 q 156 540 221 478 q 92 707 92 603 q 135 856 92 792 q 257 955 179 919 q 436 990 335 990 q 760 868 639 990 l 726 799 q 593 885 663 858 q 436 913 524 913 q 249 857 319 913 q 179 708 179 801 q 224 592 179 635 q 367 531 268 550 l 508 501 q 717 415 649 472 q 785 257 785 357 q 742 117 785 178 q 621 23 700 57 q 433 -11 542 -11 m 425 -365 l 382 -335 q 422 -275 411 -303 q 435 -217 433 -247 l 376 -217 l 376 -115 l 493 -115 l 493 -194 q 476 -287 493 -243 q 425 -365 460 -331 z "},"Ṡ":{"ha":843,"x_min":71,"x_max":785,"o":"m 433 -11 q 228 19 319 -11 q 71 107 138 49 l 104 178 q 252 94 176 121 q 433 67 328 67 q 631 118 565 67 q 697 253 697 169 q 649 361 697 322 q 492 422 601 400 l 351 451 q 156 540 221 478 q 92 707 92 603 q 135 856 92 792 q 257 955 179 919 q 436 990 335 990 q 760 868 639 990 l 726 799 q 593 885 663 858 q 436 913 524 913 q 249 857 319 913 q 179 708 179 801 q 224 592 179 635 q 367 531 268 550 l 508 501 q 717 415 649 472 q 785 257 785 357 q 742 117 785 178 q 621 23 700 57 q 433 -11 542 -11 m 376 1129 l 376 1233 l 482 1233 l 482 1129 l 376 1129 z "},"Ṣ":{"ha":843,"x_min":71,"x_max":785,"o":"m 433 -11 q 228 19 319 -11 q 71 107 138 49 l 104 178 q 252 94 176 121 q 433 67 328 67 q 631 118 565 67 q 697 253 697 169 q 649 361 697 322 q 492 422 601 400 l 351 451 q 156 540 221 478 q 92 707 92 603 q 135 856 92 792 q 257 955 179 919 q 436 990 335 990 q 760 868 639 990 l 726 799 q 593 885 663 858 q 436 913 524 913 q 249 857 319 913 q 179 708 179 801 q 224 592 179 635 q 367 531 268 550 l 508 501 q 717 415 649 472 q 785 257 785 357 q 742 117 785 178 q 621 23 700 57 q 433 -11 542 -11 m 381 -249 l 381 -144 l 489 -144 l 489 -249 l 381 -249 z "},"Ṩ":{"ha":843,"x_min":71,"x_max":785,"o":"m 433 -11 q 228 19 319 -11 q 71 107 138 49 l 104 178 q 252 94 176 121 q 433 67 328 67 q 631 118 565 67 q 697 253 697 169 q 649 361 697 322 q 492 422 601 400 l 351 451 q 156 540 221 478 q 92 707 92 603 q 135 856 92 792 q 257 955 179 919 q 436 990 335 990 q 760 868 639 990 l 726 799 q 593 885 663 858 q 436 913 524 913 q 249 857 319 913 q 179 708 179 801 q 224 592 179 635 q 367 531 268 550 l 508 501 q 717 415 649 472 q 785 257 785 357 q 742 117 785 178 q 621 23 700 57 q 433 -11 542 -11 m 381 -249 l 381 -144 l 489 -144 l 489 -249 l 381 -249 m 376 1129 l 376 1233 l 482 1233 l 482 1129 l 376 1129 z "},"ẞ":{"ha":979,"x_min":128,"x_max":886,"o":"m 586 -11 q 313 81 413 -11 l 349 149 q 457 83 401 101 q 582 64 513 64 q 744 117 688 64 q 800 263 800 169 q 741 406 800 356 q 563 456 682 456 l 369 456 l 369 529 l 526 529 q 688 579 628 529 q 747 722 747 629 q 685 866 747 817 q 504 915 622 915 q 287 847 361 915 q 213 643 213 779 l 213 0 l 128 0 l 128 646 q 228 903 128 817 q 506 990 328 990 q 744 922 656 990 q 833 733 833 853 q 796 593 833 654 q 693 504 758 532 q 834 419 782 482 q 886 260 886 357 q 807 59 886 129 q 586 -11 728 -11 z "},"Ə":{"ha":1054,"x_min":89,"x_max":965,"o":"m 535 -11 q 287 51 386 -11 q 138 224 188 113 q 89 488 89 336 l 89 532 l 874 532 q 764 813 863 714 q 492 913 665 913 q 310 885 386 913 q 163 794 233 857 l 126 863 q 497 990 265 990 q 747 931 642 990 q 908 758 851 871 q 965 490 965 646 q 912 222 965 335 q 762 49 858 110 q 535 -11 665 -11 m 531 65 q 776 167 685 65 q 874 457 867 269 l 178 457 q 273 165 185 265 q 531 65 361 65 z "},"T":{"ha":825,"x_min":4,"x_max":821,"o":"m 369 0 l 369 903 l 4 903 l 4 979 l 821 979 l 821 903 l 456 903 l 456 0 l 369 0 z "},"Ŧ":{"ha":825,"x_min":4,"x_max":821,"o":"m 369 0 l 369 903 l 4 903 l 4 979 l 821 979 l 821 903 l 456 903 l 456 0 l 369 0 m 169 463 l 169 532 l 656 532 l 656 463 l 169 463 z "},"Ť":{"ha":825,"x_min":4,"x_max":821,"o":"m 369 0 l 369 903 l 4 903 l 4 979 l 821 979 l 821 903 l 456 903 l 456 0 l 369 0 m 369 1063 l 200 1300 l 268 1300 l 413 1125 l 557 1300 l 625 1300 l 456 1063 l 369 1063 z "},"Ţ":{"ha":825,"x_min":4,"x_max":821,"o":"m 369 0 l 369 903 l 4 903 l 4 979 l 821 979 l 821 903 l 456 903 l 456 0 l 369 0 m 418 -265 q 303 -239 346 -265 l 318 -185 q 365 -203 343 -197 q 419 -208 388 -208 q 480 -194 457 -208 q 503 -153 503 -179 q 450 -111 503 -111 q 419 -113 435 -111 q 382 -124 403 -115 l 360 -104 l 379 28 l 442 28 l 426 -64 q 457 -61 443 -61 q 537 -85 504 -61 q 569 -154 569 -110 q 528 -235 569 -204 q 418 -265 486 -265 z "},"Ț":{"ha":825,"x_min":4,"x_max":821,"o":"m 369 0 l 369 903 l 4 903 l 4 979 l 821 979 l 821 903 l 456 903 l 456 0 l 369 0 m 403 -365 l 360 -335 q 400 -275 389 -303 q 413 -217 411 -247 l 354 -217 l 354 -115 l 471 -115 l 471 -194 q 454 -287 471 -243 q 403 -365 438 -331 z "},"Ṭ":{"ha":825,"x_min":4,"x_max":821,"o":"m 369 0 l 369 903 l 4 903 l 4 979 l 821 979 l 821 903 l 456 903 l 456 0 l 369 0 m 358 -249 l 358 -144 l 467 -144 l 467 -249 l 358 -249 z "},"Ṯ":{"ha":825,"x_min":4,"x_max":821,"o":"m 369 0 l 369 903 l 4 903 l 4 979 l 821 979 l 821 903 l 456 903 l 456 0 l 369 0 m 213 -211 l 213 -147 l 613 -147 l 613 -211 l 213 -211 z "},"U":{"ha":1006,"x_min":121,"x_max":885,"o":"m 503 -11 q 218 90 315 -11 q 121 382 121 190 l 121 979 l 206 979 l 206 389 q 503 67 206 67 q 800 389 800 67 l 800 979 l 885 979 l 885 382 q 788 90 885 190 q 503 -11 690 -11 z "},"Ú":{"ha":1006,"x_min":121,"x_max":885,"o":"m 503 -11 q 218 90 315 -11 q 121 382 121 190 l 121 979 l 206 979 l 206 389 q 503 67 206 67 q 800 389 800 67 l 800 979 l 885 979 l 885 382 q 788 90 885 190 q 503 -11 690 -11 m 468 1063 l 632 1300 l 733 1300 l 538 1063 l 468 1063 z "},"Ŭ":{"ha":1006,"x_min":121,"x_max":885,"o":"m 503 -11 q 218 90 315 -11 q 121 382 121 190 l 121 979 l 206 979 l 206 389 q 503 67 206 67 q 800 389 800 67 l 800 979 l 885 979 l 885 382 q 788 90 885 190 q 503 -11 690 -11 m 503 1056 q 348 1118 410 1056 q 276 1289 286 1181 l 335 1296 q 385 1165 340 1211 q 503 1118 431 1118 q 620 1165 575 1118 q 671 1296 665 1211 l 729 1289 q 658 1118 719 1181 q 503 1056 596 1056 z "},"Û":{"ha":1006,"x_min":121,"x_max":885,"o":"m 503 -11 q 218 90 315 -11 q 121 382 121 190 l 121 979 l 206 979 l 206 389 q 503 67 206 67 q 800 389 800 67 l 800 979 l 885 979 l 885 382 q 788 90 885 190 q 503 -11 690 -11 m 290 1063 l 460 1300 l 546 1300 l 715 1063 l 647 1063 l 503 1238 l 358 1063 l 290 1063 z "},"Ȕ":{"ha":1006,"x_min":121,"x_max":885,"o":"m 503 -11 q 218 90 315 -11 q 121 382 121 190 l 121 979 l 206 979 l 206 389 q 503 67 206 67 q 800 389 800 67 l 800 979 l 885 979 l 885 382 q 788 90 885 190 q 503 -11 690 -11 m 558 1063 l 400 1300 l 492 1300 l 610 1063 l 558 1063 m 396 1063 l 235 1300 l 326 1300 l 447 1063 l 396 1063 z "},"Ü":{"ha":1006,"x_min":121,"x_max":885,"o":"m 503 -11 q 218 90 315 -11 q 121 382 121 190 l 121 979 l 206 979 l 206 389 q 503 67 206 67 q 800 389 800 67 l 800 979 l 885 979 l 885 382 q 788 90 885 190 q 503 -11 690 -11 m 568 1129 l 568 1231 l 669 1231 l 669 1129 l 568 1129 m 336 1129 l 336 1231 l 438 1231 l 438 1129 l 336 1129 z "},"Ụ":{"ha":1006,"x_min":121,"x_max":885,"o":"m 503 -11 q 218 90 315 -11 q 121 382 121 190 l 121 979 l 206 979 l 206 389 q 503 67 206 67 q 800 389 800 67 l 800 979 l 885 979 l 885 382 q 788 90 885 190 q 503 -11 690 -11 m 449 -249 l 449 -144 l 557 -144 l 557 -249 l 449 -249 z "},"Ù":{"ha":1006,"x_min":121,"x_max":885,"o":"m 503 -11 q 218 90 315 -11 q 121 382 121 190 l 121 979 l 206 979 l 206 389 q 503 67 206 67 q 800 389 800 67 l 800 979 l 885 979 l 885 382 q 788 90 885 190 q 503 -11 690 -11 m 468 1063 l 272 1300 l 374 1300 l 538 1063 l 468 1063 z "},"Ủ":{"ha":1006,"x_min":121,"x_max":885,"o":"m 503 -11 q 218 90 315 -11 q 121 382 121 190 l 121 979 l 206 979 l 206 389 q 503 67 206 67 q 800 389 800 67 l 800 979 l 885 979 l 885 382 q 788 90 885 190 q 503 -11 690 -11 m 471 1063 l 471 1083 q 485 1131 471 1113 q 517 1161 499 1149 q 549 1186 535 1174 q 563 1215 563 1199 q 493 1250 563 1250 q 451 1245 472 1250 q 406 1228 431 1240 l 389 1281 q 507 1307 439 1307 q 602 1284 568 1307 q 636 1224 636 1261 q 621 1176 636 1193 q 585 1147 606 1160 q 551 1119 565 1135 q 536 1076 536 1104 l 536 1063 l 471 1063 z "},"Ư":{"ha":1006,"x_min":121,"x_max":1050,"o":"m 503 -11 q 218 90 315 -11 q 121 382 121 190 l 121 979 l 206 979 l 206 389 q 503 67 206 67 q 800 389 800 67 l 800 979 l 885 979 l 885 382 q 788 90 885 190 q 503 -11 690 -11 m 851 918 l 813 946 l 813 979 q 940 1021 907 981 q 972 1142 972 1061 l 972 1161 l 1050 1161 l 1050 1128 q 999 978 1050 1032 q 851 918 947 924 z "},"Ứ":{"ha":1006,"x_min":121,"x_max":1050,"o":"m 503 -11 q 218 90 315 -11 q 121 382 121 190 l 121 979 l 206 979 l 206 389 q 503 67 206 67 q 800 389 800 67 l 800 979 l 885 979 l 885 382 q 788 90 885 190 q 503 -11 690 -11 m 851 918 l 813 946 l 813 979 q 940 1021 907 981 q 972 1142 972 1061 l 972 1161 l 1050 1161 l 1050 1128 q 999 978 1050 1032 q 851 918 947 924 m 468 1063 l 632 1300 l 733 1300 l 538 1063 l 468 1063 z "},"Ự":{"ha":1006,"x_min":121,"x_max":1050,"o":"m 503 -11 q 218 90 315 -11 q 121 382 121 190 l 121 979 l 206 979 l 206 389 q 503 67 206 67 q 800 389 800 67 l 800 979 l 885 979 l 885 382 q 788 90 885 190 q 503 -11 690 -11 m 851 918 l 813 946 l 813 979 q 940 1021 907 981 q 972 1142 972 1061 l 972 1161 l 1050 1161 l 1050 1128 q 999 978 1050 1032 q 851 918 947 924 m 449 -249 l 449 -144 l 557 -144 l 557 -249 l 449 -249 z "},"Ừ":{"ha":1006,"x_min":121,"x_max":1050,"o":"m 503 -11 q 218 90 315 -11 q 121 382 121 190 l 121 979 l 206 979 l 206 389 q 503 67 206 67 q 800 389 800 67 l 800 979 l 885 979 l 885 382 q 788 90 885 190 q 503 -11 690 -11 m 851 918 l 813 946 l 813 979 q 940 1021 907 981 q 972 1142 972 1061 l 972 1161 l 1050 1161 l 1050 1128 q 999 978 1050 1032 q 851 918 947 924 m 468 1063 l 272 1300 l 374 1300 l 538 1063 l 468 1063 z "},"Ử":{"ha":1006,"x_min":121,"x_max":1050,"o":"m 503 -11 q 218 90 315 -11 q 121 382 121 190 l 121 979 l 206 979 l 206 389 q 503 67 206 67 q 800 389 800 67 l 800 979 l 885 979 l 885 382 q 788 90 885 190 q 503 -11 690 -11 m 851 918 l 813 946 l 813 979 q 940 1021 907 981 q 972 1142 972 1061 l 972 1161 l 1050 1161 l 1050 1128 q 999 978 1050 1032 q 851 918 947 924 m 471 1063 l 471 1083 q 485 1131 471 1113 q 517 1161 499 1149 q 549 1186 535 1174 q 563 1215 563 1199 q 493 1250 563 1250 q 451 1245 472 1250 q 406 1228 431 1240 l 389 1281 q 507 1307 439 1307 q 602 1284 568 1307 q 636 1224 636 1261 q 621 1176 636 1193 q 585 1147 606 1160 q 551 1119 565 1135 q 536 1076 536 1104 l 536 1063 l 471 1063 z "},"Ữ":{"ha":1006,"x_min":121,"x_max":1050,"o":"m 503 -11 q 218 90 315 -11 q 121 382 121 190 l 121 979 l 206 979 l 206 389 q 503 67 206 67 q 800 389 800 67 l 800 979 l 885 979 l 885 382 q 788 90 885 190 q 503 -11 690 -11 m 851 918 l 813 946 l 813 979 q 940 1021 907 981 q 972 1142 972 1061 l 972 1161 l 1050 1161 l 1050 1128 q 999 978 1050 1032 q 851 918 947 924 m 290 1093 l 236 1097 q 285 1228 244 1182 q 390 1274 326 1274 q 451 1258 422 1274 q 517 1213 481 1243 q 569 1174 547 1186 q 611 1161 590 1161 q 710 1278 690 1161 l 764 1274 q 714 1143 754 1189 q 610 1097 674 1097 q 545 1114 575 1097 q 482 1158 515 1131 q 388 1210 425 1210 q 290 1093 308 1210 z "},"Ű":{"ha":1006,"x_min":121,"x_max":885,"o":"m 503 -11 q 218 90 315 -11 q 121 382 121 190 l 121 979 l 206 979 l 206 389 q 503 67 206 67 q 800 389 800 67 l 800 979 l 885 979 l 885 382 q 788 90 885 190 q 503 -11 690 -11 m 396 1063 l 515 1300 l 606 1300 l 447 1063 l 396 1063 m 558 1063 l 681 1300 l 771 1300 l 610 1063 l 558 1063 z "},"Ȗ":{"ha":1006,"x_min":121,"x_max":885,"o":"m 503 -11 q 218 90 315 -11 q 121 382 121 190 l 121 979 l 206 979 l 206 389 q 503 67 206 67 q 800 389 800 67 l 800 979 l 885 979 l 885 382 q 788 90 885 190 q 503 -11 690 -11 m 335 1056 l 276 1063 q 348 1233 286 1171 q 503 1296 410 1296 q 658 1233 596 1296 q 729 1063 719 1171 l 671 1056 q 620 1187 665 1140 q 503 1233 575 1233 q 385 1187 431 1233 q 335 1056 340 1140 z "},"Ū":{"ha":1006,"x_min":121,"x_max":885,"o":"m 503 -11 q 218 90 315 -11 q 121 382 121 190 l 121 979 l 206 979 l 206 389 q 503 67 206 67 q 800 389 800 67 l 800 979 l 885 979 l 885 382 q 788 90 885 190 q 503 -11 690 -11 m 282 1136 l 282 1201 l 724 1201 l 724 1136 l 282 1136 z "},"Ṻ":{"ha":1006,"x_min":121,"x_max":885,"o":"m 503 -11 q 218 90 315 -11 q 121 382 121 190 l 121 979 l 206 979 l 206 389 q 503 67 206 67 q 800 389 800 67 l 800 979 l 885 979 l 885 382 q 788 90 885 190 q 503 -11 690 -11 m 336 1258 l 336 1351 l 438 1351 l 438 1258 l 336 1258 m 568 1258 l 568 1351 l 669 1351 l 669 1258 l 568 1258 m 303 1114 l 303 1178 l 703 1178 l 703 1114 l 303 1114 z "},"Ų":{"ha":1006,"x_min":121,"x_max":885,"o":"m 503 -11 q 218 90 315 -11 q 121 382 121 190 l 121 979 l 206 979 l 206 389 q 503 67 206 67 q 800 389 800 67 l 800 979 l 885 979 l 885 382 q 788 90 885 190 q 503 -11 690 -11 m 557 -265 q 458 -230 496 -265 q 419 -133 419 -194 q 453 -32 419 -81 q 547 47 488 17 l 582 0 q 518 -47 550 -14 q 486 -125 486 -79 q 510 -186 486 -167 q 568 -206 533 -206 q 642 -189 603 -206 l 661 -242 q 557 -265 622 -265 z "},"Ů":{"ha":1006,"x_min":121,"x_max":885,"o":"m 503 -11 q 218 90 315 -11 q 121 382 121 190 l 121 979 l 206 979 l 206 389 q 503 67 206 67 q 800 389 800 67 l 800 979 l 885 979 l 885 382 q 788 90 885 190 q 503 -11 690 -11 m 503 1054 q 389 1100 435 1054 q 343 1211 343 1146 q 389 1322 343 1276 q 503 1368 435 1368 q 617 1322 571 1368 q 663 1211 663 1276 q 617 1100 663 1146 q 503 1054 571 1054 m 503 1107 q 578 1137 549 1107 q 607 1211 607 1167 q 578 1285 607 1256 q 503 1315 549 1315 q 428 1285 457 1315 q 399 1211 399 1256 q 428 1137 399 1167 q 503 1107 457 1107 z "},"Ũ":{"ha":1006,"x_min":121,"x_max":885,"o":"m 503 -11 q 218 90 315 -11 q 121 382 121 190 l 121 979 l 206 979 l 206 389 q 503 67 206 67 q 800 389 800 67 l 800 979 l 885 979 l 885 382 q 788 90 885 190 q 503 -11 690 -11 m 276 1093 l 222 1097 q 272 1228 231 1182 q 379 1274 314 1274 q 444 1259 411 1274 q 521 1213 476 1244 q 588 1172 565 1183 q 631 1161 611 1161 q 729 1278 711 1161 l 783 1274 q 733 1143 775 1189 q 628 1097 692 1097 q 562 1112 596 1097 q 481 1160 528 1126 q 418 1199 442 1188 q 375 1210 394 1210 q 276 1093 296 1210 z "},"Ṹ":{"ha":1006,"x_min":121,"x_max":885,"o":"m 503 -11 q 218 90 315 -11 q 121 382 121 190 l 121 979 l 206 979 l 206 389 q 503 67 206 67 q 800 389 800 67 l 800 979 l 885 979 l 885 382 q 788 90 885 190 q 503 -11 690 -11 m 471 1217 l 599 1419 l 696 1419 l 535 1217 l 471 1217 m 593 1067 q 544 1077 568 1067 q 489 1111 521 1088 q 445 1138 461 1132 q 415 1144 429 1144 q 369 1126 385 1144 q 346 1064 353 1107 l 292 1067 q 331 1170 297 1136 q 414 1204 364 1204 q 459 1195 438 1204 q 513 1163 481 1186 q 558 1134 542 1142 q 590 1126 575 1126 q 638 1145 622 1126 q 660 1207 653 1164 l 714 1204 q 676 1101 708 1135 q 593 1067 643 1067 z "},"V":{"ha":942,"x_min":6,"x_max":936,"o":"m 429 0 l 6 979 l 97 979 l 472 107 l 847 979 l 936 979 l 511 0 l 429 0 z "},"W":{"ha":1522,"x_min":47,"x_max":1475,"o":"m 388 0 l 47 979 l 136 979 l 429 126 l 725 979 l 797 979 l 1093 121 l 1389 979 l 1475 979 l 1135 0 l 1054 0 l 761 850 l 465 0 l 388 0 z "},"Ẃ":{"ha":1522,"x_min":47,"x_max":1475,"o":"m 388 0 l 47 979 l 136 979 l 429 126 l 725 979 l 797 979 l 1093 121 l 1389 979 l 1475 979 l 1135 0 l 1054 0 l 761 850 l 465 0 l 388 0 m 726 1063 l 890 1300 l 992 1300 l 796 1063 l 726 1063 z "},"Ŵ":{"ha":1522,"x_min":47,"x_max":1475,"o":"m 388 0 l 47 979 l 136 979 l 429 126 l 725 979 l 797 979 l 1093 121 l 1389 979 l 1475 979 l 1135 0 l 1054 0 l 761 850 l 465 0 l 388 0 m 549 1063 l 718 1300 l 804 1300 l 974 1063 l 906 1063 l 761 1238 l 617 1063 l 549 1063 z "},"Ẅ":{"ha":1522,"x_min":47,"x_max":1475,"o":"m 388 0 l 47 979 l 136 979 l 429 126 l 725 979 l 797 979 l 1093 121 l 1389 979 l 1475 979 l 1135 0 l 1054 0 l 761 850 l 465 0 l 388 0 m 826 1129 l 826 1231 l 928 1231 l 928 1129 l 826 1129 m 594 1129 l 594 1231 l 696 1231 l 696 1129 l 594 1129 z "},"Ẁ":{"ha":1522,"x_min":47,"x_max":1475,"o":"m 388 0 l 47 979 l 136 979 l 429 126 l 725 979 l 797 979 l 1093 121 l 1389 979 l 1475 979 l 1135 0 l 1054 0 l 761 850 l 465 0 l 388 0 m 726 1063 l 531 1300 l 632 1300 l 796 1063 l 726 1063 z "},"X":{"ha":889,"x_min":24,"x_max":865,"o":"m 24 0 l 396 501 l 43 979 l 144 979 l 446 567 l 746 979 l 847 979 l 494 501 l 865 0 l 764 0 l 444 435 l 126 0 l 24 0 z "},"Y":{"ha":814,"x_min":-10,"x_max":824,"o":"m 364 0 l 364 469 l -10 979 l 90 979 l 408 544 l 728 979 l 824 979 l 450 468 l 450 0 l 364 0 z "},"Ý":{"ha":814,"x_min":-10,"x_max":824,"o":"m 364 0 l 364 469 l -10 979 l 90 979 l 408 544 l 728 979 l 824 979 l 450 468 l 450 0 l 364 0 m 372 1063 l 536 1300 l 638 1300 l 442 1063 l 372 1063 z "},"Ŷ":{"ha":814,"x_min":-10,"x_max":824,"o":"m 364 0 l 364 469 l -10 979 l 90 979 l 408 544 l 728 979 l 824 979 l 450 468 l 450 0 l 364 0 m 194 1063 l 364 1300 l 450 1300 l 619 1063 l 551 1063 l 407 1238 l 263 1063 l 194 1063 z "},"Ÿ":{"ha":814,"x_min":-10,"x_max":824,"o":"m 364 0 l 364 469 l -10 979 l 90 979 l 408 544 l 728 979 l 824 979 l 450 468 l 450 0 l 364 0 m 472 1129 l 472 1231 l 574 1231 l 574 1129 l 472 1129 m 240 1129 l 240 1231 l 342 1231 l 342 1129 l 240 1129 z "},"Ẏ":{"ha":814,"x_min":-10,"x_max":824,"o":"m 364 0 l 364 469 l -10 979 l 90 979 l 408 544 l 728 979 l 824 979 l 450 468 l 450 0 l 364 0 m 354 1129 l 354 1233 l 460 1233 l 460 1129 l 354 1129 z "},"Ỵ":{"ha":814,"x_min":-10,"x_max":824,"o":"m 364 0 l 364 469 l -10 979 l 90 979 l 408 544 l 728 979 l 824 979 l 450 468 l 450 0 l 364 0 m 353 -249 l 353 -144 l 461 -144 l 461 -249 l 353 -249 z "},"Ỳ":{"ha":814,"x_min":-10,"x_max":824,"o":"m 364 0 l 364 469 l -10 979 l 90 979 l 408 544 l 728 979 l 824 979 l 450 468 l 450 0 l 364 0 m 372 1063 l 176 1300 l 278 1300 l 442 1063 l 372 1063 z "},"Ƴ":{"ha":847,"x_min":-10,"x_max":907,"o":"m 364 0 l 364 469 l -10 979 l 90 979 l 410 543 l 650 886 q 733 965 689 940 q 832 989 778 989 q 907 978 875 989 l 907 910 q 878 918 893 915 q 842 921 863 921 q 777 905 807 921 q 718 850 747 889 l 450 469 l 450 0 l 364 0 z "},"Ỷ":{"ha":814,"x_min":-10,"x_max":824,"o":"m 364 0 l 364 469 l -10 979 l 90 979 l 408 544 l 728 979 l 824 979 l 450 468 l 450 0 l 364 0 m 375 1063 l 375 1083 q 389 1131 375 1113 q 421 1161 403 1149 q 453 1186 439 1174 q 467 1215 467 1199 q 397 1250 467 1250 q 356 1245 376 1250 q 310 1228 335 1240 l 293 1281 q 411 1307 343 1307 q 506 1284 472 1307 q 540 1224 540 1261 q 525 1176 540 1193 q 490 1147 510 1160 q 455 1119 469 1135 q 440 1076 440 1104 l 440 1063 l 375 1063 z "},"Ȳ":{"ha":814,"x_min":-10,"x_max":824,"o":"m 364 0 l 364 469 l -10 979 l 90 979 l 408 544 l 728 979 l 824 979 l 450 468 l 450 0 l 364 0 m 186 1136 l 186 1201 l 628 1201 l 628 1136 l 186 1136 z "},"Ỹ":{"ha":814,"x_min":-10,"x_max":824,"o":"m 364 0 l 364 469 l -10 979 l 90 979 l 408 544 l 728 979 l 824 979 l 450 468 l 450 0 l 364 0 m 181 1093 l 126 1097 q 176 1228 135 1182 q 283 1274 218 1274 q 348 1259 315 1274 q 425 1213 381 1244 q 492 1172 469 1183 q 535 1161 515 1161 q 633 1278 615 1161 l 688 1274 q 638 1143 679 1189 q 532 1097 596 1097 q 466 1112 500 1097 q 385 1160 432 1126 q 322 1199 346 1188 q 279 1210 299 1210 q 181 1093 200 1210 z "},"Z":{"ha":808,"x_min":68,"x_max":776,"o":"m 68 0 l 68 63 l 651 903 l 68 903 l 68 979 l 757 979 l 757 917 l 174 76 l 776 76 l 776 0 l 68 0 z "},"Ź":{"ha":808,"x_min":68,"x_max":776,"o":"m 68 0 l 68 63 l 651 903 l 68 903 l 68 979 l 757 979 l 757 917 l 174 76 l 776 76 l 776 0 l 68 0 m 386 1063 l 550 1300 l 651 1300 l 456 1063 l 386 1063 z "},"Ž":{"ha":808,"x_min":68,"x_max":776,"o":"m 68 0 l 68 63 l 651 903 l 68 903 l 68 979 l 757 979 l 757 917 l 174 76 l 776 76 l 776 0 l 68 0 m 378 1063 l 208 1300 l 276 1300 l 421 1125 l 565 1300 l 633 1300 l 464 1063 l 378 1063 z "},"Ż":{"ha":808,"x_min":68,"x_max":776,"o":"m 68 0 l 68 63 l 651 903 l 68 903 l 68 979 l 757 979 l 757 917 l 174 76 l 776 76 l 776 0 l 68 0 m 368 1129 l 368 1233 l 474 1233 l 474 1129 l 368 1129 z "},"Ẓ":{"ha":808,"x_min":68,"x_max":776,"o":"m 68 0 l 68 63 l 651 903 l 68 903 l 68 979 l 757 979 l 757 917 l 174 76 l 776 76 l 776 0 l 68 0 m 368 -249 l 368 -144 l 476 -144 l 476 -249 l 368 -249 z "},"a":{"ha":725,"x_min":82,"x_max":615,"o":"m 319 -11 q 198 15 251 -11 q 113 88 144 42 q 82 190 82 133 q 119 308 82 265 q 246 368 157 350 q 490 386 335 386 l 533 386 l 533 436 q 496 572 533 529 q 376 614 458 614 q 259 596 315 614 q 143 539 203 578 l 110 604 q 235 664 163 642 q 375 686 307 686 q 556 624 497 686 q 615 432 615 561 l 615 0 l 535 0 l 535 121 q 451 24 507 58 q 319 -11 394 -11 m 331 57 q 435 85 390 57 q 507 164 481 114 q 533 278 533 214 l 533 324 l 492 324 q 297 313 367 324 q 199 274 226 301 q 171 197 171 246 q 214 96 171 135 q 331 57 257 57 z "},"á":{"ha":725,"x_min":82,"x_max":615,"o":"m 319 -11 q 198 15 251 -11 q 113 88 144 42 q 82 190 82 133 q 119 308 82 265 q 246 368 157 350 q 490 386 335 386 l 533 386 l 533 436 q 496 572 533 529 q 376 614 458 614 q 259 596 315 614 q 143 539 203 578 l 110 604 q 235 664 163 642 q 375 686 307 686 q 556 624 497 686 q 615 432 615 561 l 615 0 l 535 0 l 535 121 q 451 24 507 58 q 319 -11 394 -11 m 331 57 q 435 85 390 57 q 507 164 481 114 q 533 278 533 214 l 533 324 l 492 324 q 297 313 367 324 q 199 274 226 301 q 171 197 171 246 q 214 96 171 135 q 331 57 257 57 m 340 764 l 483 1043 l 581 1043 l 404 764 l 340 764 z "},"ă":{"ha":725,"x_min":82,"x_max":615,"o":"m 319 -11 q 198 15 251 -11 q 113 88 144 42 q 82 190 82 133 q 119 308 82 265 q 246 368 157 350 q 490 386 335 386 l 533 386 l 533 436 q 496 572 533 529 q 376 614 458 614 q 259 596 315 614 q 143 539 203 578 l 110 604 q 235 664 163 642 q 375 686 307 686 q 556 624 497 686 q 615 432 615 561 l 615 0 l 535 0 l 535 121 q 451 24 507 58 q 319 -11 394 -11 m 331 57 q 435 85 390 57 q 507 164 481 114 q 533 278 533 214 l 533 324 l 492 324 q 297 313 367 324 q 199 274 226 301 q 171 197 171 246 q 214 96 171 135 q 331 57 257 57 m 372 761 q 227 831 282 761 q 165 1022 172 900 l 224 1029 q 267 877 228 931 q 372 824 306 824 q 478 877 439 824 q 521 1029 517 931 l 579 1022 q 517 831 572 900 q 372 761 463 761 z "},"ắ":{"ha":725,"x_min":82,"x_max":615,"o":"m 319 -11 q 198 15 251 -11 q 113 88 144 42 q 82 190 82 133 q 119 308 82 265 q 246 368 157 350 q 490 386 335 386 l 533 386 l 533 436 q 496 572 533 529 q 376 614 458 614 q 259 596 315 614 q 143 539 203 578 l 110 604 q 235 664 163 642 q 375 686 307 686 q 556 624 497 686 q 615 432 615 561 l 615 0 l 535 0 l 535 121 q 451 24 507 58 q 319 -11 394 -11 m 331 57 q 435 85 390 57 q 507 164 481 114 q 533 278 533 214 l 533 324 l 492 324 q 297 313 367 324 q 199 274 226 301 q 171 197 171 246 q 214 96 171 135 q 331 57 257 57 m 332 911 l 460 1114 l 557 1114 l 396 911 l 332 911 m 372 761 q 226 816 282 761 q 164 967 171 871 l 218 974 q 265 862 225 901 q 372 822 304 822 q 480 862 440 822 q 526 974 519 901 l 581 967 q 518 816 574 871 q 372 761 463 761 z "},"ặ":{"ha":725,"x_min":82,"x_max":615,"o":"m 319 -11 q 198 15 251 -11 q 113 88 144 42 q 82 190 82 133 q 119 308 82 265 q 246 368 157 350 q 490 386 335 386 l 533 386 l 533 436 q 496 572 533 529 q 376 614 458 614 q 259 596 315 614 q 143 539 203 578 l 110 604 q 235 664 163 642 q 375 686 307 686 q 556 624 497 686 q 615 432 615 561 l 615 0 l 535 0 l 535 121 q 451 24 507 58 q 319 -11 394 -11 m 331 57 q 435 85 390 57 q 507 164 481 114 q 533 278 533 214 l 533 324 l 492 324 q 297 313 367 324 q 199 274 226 301 q 171 197 171 246 q 214 96 171 135 q 331 57 257 57 m 314 -249 l 314 -144 l 422 -144 l 422 -249 l 314 -249 m 372 761 q 227 831 282 761 q 165 1022 172 900 l 224 1029 q 267 877 228 931 q 372 824 306 824 q 478 877 439 824 q 521 1029 517 931 l 579 1022 q 517 831 572 900 q 372 761 463 761 z "},"ằ":{"ha":725,"x_min":82,"x_max":615,"o":"m 319 -11 q 198 15 251 -11 q 113 88 144 42 q 82 190 82 133 q 119 308 82 265 q 246 368 157 350 q 490 386 335 386 l 533 386 l 533 436 q 496 572 533 529 q 376 614 458 614 q 259 596 315 614 q 143 539 203 578 l 110 604 q 235 664 163 642 q 375 686 307 686 q 556 624 497 686 q 615 432 615 561 l 615 0 l 535 0 l 535 121 q 451 24 507 58 q 319 -11 394 -11 m 331 57 q 435 85 390 57 q 507 164 481 114 q 533 278 533 214 l 533 324 l 492 324 q 297 313 367 324 q 199 274 226 301 q 171 197 171 246 q 214 96 171 135 q 331 57 257 57 m 349 911 l 189 1114 l 285 1114 l 413 911 l 349 911 m 372 761 q 226 816 282 761 q 164 967 171 871 l 218 974 q 265 862 225 901 q 372 822 304 822 q 480 862 440 822 q 526 974 519 901 l 581 967 q 518 816 574 871 q 372 761 463 761 z "},"ẳ":{"ha":725,"x_min":82,"x_max":615,"o":"m 319 -11 q 198 15 251 -11 q 113 88 144 42 q 82 190 82 133 q 119 308 82 265 q 246 368 157 350 q 490 386 335 386 l 533 386 l 533 436 q 496 572 533 529 q 376 614 458 614 q 259 596 315 614 q 143 539 203 578 l 110 604 q 235 664 163 642 q 375 686 307 686 q 556 624 497 686 q 615 432 615 561 l 615 0 l 535 0 l 535 121 q 451 24 507 58 q 319 -11 394 -11 m 331 57 q 435 85 390 57 q 507 164 481 114 q 533 278 533 214 l 533 324 l 492 324 q 297 313 367 324 q 199 274 226 301 q 171 197 171 246 q 214 96 171 135 q 331 57 257 57 m 343 911 q 356 961 343 943 q 387 991 369 979 q 417 1013 404 1003 q 431 1042 431 1024 q 364 1071 431 1071 q 324 1067 344 1071 q 278 1054 303 1063 l 264 1100 q 376 1122 310 1122 q 467 1103 435 1122 q 499 1051 499 1083 q 484 1006 499 1022 q 450 978 469 990 q 416 952 431 967 q 401 911 401 938 l 343 911 m 372 761 q 226 816 282 761 q 164 967 171 871 l 218 974 q 265 862 225 901 q 372 822 304 822 q 480 862 440 822 q 526 974 519 901 l 581 967 q 518 817 574 872 q 372 761 463 761 z "},"ẵ":{"ha":725,"x_min":82,"x_max":615,"o":"m 319 -11 q 198 15 251 -11 q 113 88 144 42 q 82 190 82 133 q 119 308 82 265 q 246 368 157 350 q 490 386 335 386 l 533 386 l 533 436 q 496 572 533 529 q 376 614 458 614 q 259 596 315 614 q 143 539 203 578 l 110 604 q 235 664 163 642 q 375 686 307 686 q 556 624 497 686 q 615 432 615 561 l 615 0 l 535 0 l 535 121 q 451 24 507 58 q 319 -11 394 -11 m 331 57 q 435 85 390 57 q 507 164 481 114 q 533 278 533 214 l 533 324 l 492 324 q 297 313 367 324 q 199 274 226 301 q 171 197 171 246 q 214 96 171 135 q 331 57 257 57 m 215 981 l 161 985 q 200 1087 167 1053 q 283 1121 233 1121 q 333 1110 310 1121 q 385 1078 356 1100 q 430 1050 414 1057 q 460 1043 446 1043 q 507 1062 492 1043 q 529 1124 522 1081 l 583 1121 q 545 1018 578 1053 q 463 983 513 983 q 413 994 436 983 q 354 1031 389 1006 q 319 1052 336 1043 q 285 1061 303 1061 q 238 1042 254 1061 q 215 981 222 1024 m 372 761 q 238 801 293 761 q 164 911 182 842 l 218 921 q 372 822 251 822 q 526 921 493 822 l 581 911 q 507 801 563 842 q 372 761 451 761 z "},"ǎ":{"ha":725,"x_min":82,"x_max":615,"o":"m 319 -11 q 198 15 251 -11 q 113 88 144 42 q 82 190 82 133 q 119 308 82 265 q 246 368 157 350 q 490 386 335 386 l 533 386 l 533 436 q 496 572 533 529 q 376 614 458 614 q 259 596 315 614 q 143 539 203 578 l 110 604 q 235 664 163 642 q 375 686 307 686 q 556 624 497 686 q 615 432 615 561 l 615 0 l 535 0 l 535 121 q 451 24 507 58 q 319 -11 394 -11 m 331 57 q 435 85 390 57 q 507 164 481 114 q 533 278 533 214 l 533 324 l 492 324 q 297 313 367 324 q 199 274 226 301 q 171 197 171 246 q 214 96 171 135 q 331 57 257 57 m 329 764 l 178 1043 l 240 1043 l 372 828 l 504 1043 l 567 1043 l 415 764 l 329 764 z "},"â":{"ha":725,"x_min":82,"x_max":615,"o":"m 319 -11 q 198 15 251 -11 q 113 88 144 42 q 82 190 82 133 q 119 308 82 265 q 246 368 157 350 q 490 386 335 386 l 533 386 l 533 436 q 496 572 533 529 q 376 614 458 614 q 259 596 315 614 q 143 539 203 578 l 110 604 q 235 664 163 642 q 375 686 307 686 q 556 624 497 686 q 615 432 615 561 l 615 0 l 535 0 l 535 121 q 451 24 507 58 q 319 -11 394 -11 m 331 57 q 435 85 390 57 q 507 164 481 114 q 533 278 533 214 l 533 324 l 492 324 q 297 313 367 324 q 199 274 226 301 q 171 197 171 246 q 214 96 171 135 q 331 57 257 57 m 178 764 l 329 1043 l 415 1043 l 567 764 l 504 764 l 372 979 l 240 764 l 178 764 z "},"ấ":{"ha":725,"x_min":82,"x_max":706,"o":"m 319 -11 q 198 15 251 -11 q 113 88 144 42 q 82 190 82 133 q 119 308 82 265 q 246 368 157 350 q 490 386 335 386 l 533 386 l 533 436 q 496 572 533 529 q 376 614 458 614 q 259 596 315 614 q 143 539 203 578 l 110 604 q 235 664 163 642 q 375 686 307 686 q 556 624 497 686 q 615 432 615 561 l 615 0 l 535 0 l 535 121 q 451 24 507 58 q 319 -11 394 -11 m 331 57 q 435 85 390 57 q 507 164 481 114 q 533 278 533 214 l 533 324 l 492 324 q 297 313 367 324 q 199 274 226 301 q 171 197 171 246 q 214 96 171 135 q 331 57 257 57 m 493 906 l 614 1114 l 706 1114 l 554 906 l 493 906 m 178 764 l 329 988 l 415 988 l 567 764 l 506 764 l 372 926 l 239 764 l 178 764 z "},"ậ":{"ha":725,"x_min":82,"x_max":615,"o":"m 319 -11 q 198 15 251 -11 q 113 88 144 42 q 82 190 82 133 q 119 308 82 265 q 246 368 157 350 q 490 386 335 386 l 533 386 l 533 436 q 496 572 533 529 q 376 614 458 614 q 259 596 315 614 q 143 539 203 578 l 110 604 q 235 664 163 642 q 375 686 307 686 q 556 624 497 686 q 615 432 615 561 l 615 0 l 535 0 l 535 121 q 451 24 507 58 q 319 -11 394 -11 m 331 57 q 435 85 390 57 q 507 164 481 114 q 533 278 533 214 l 533 324 l 492 324 q 297 313 367 324 q 199 274 226 301 q 171 197 171 246 q 214 96 171 135 q 331 57 257 57 m 314 -249 l 314 -144 l 422 -144 l 422 -249 l 314 -249 m 178 764 l 329 1043 l 415 1043 l 567 764 l 504 764 l 372 979 l 240 764 l 178 764 z "},"ầ":{"ha":725,"x_min":82,"x_max":615,"o":"m 319 -11 q 198 15 251 -11 q 113 88 144 42 q 82 190 82 133 q 119 308 82 265 q 246 368 157 350 q 490 386 335 386 l 533 386 l 533 436 q 496 572 533 529 q 376 614 458 614 q 259 596 315 614 q 143 539 203 578 l 110 604 q 235 664 163 642 q 375 686 307 686 q 556 624 497 686 q 615 432 615 561 l 615 0 l 535 0 l 535 121 q 451 24 507 58 q 319 -11 394 -11 m 331 57 q 435 85 390 57 q 507 164 481 114 q 533 278 533 214 l 533 324 l 492 324 q 297 313 367 324 q 199 274 226 301 q 171 197 171 246 q 214 96 171 135 q 331 57 257 57 m 550 906 l 399 1114 l 490 1114 l 611 906 l 550 906 m 178 764 l 329 988 l 415 988 l 567 764 l 506 764 l 372 926 l 239 764 l 178 764 z "},"ẩ":{"ha":725,"x_min":82,"x_max":663,"o":"m 319 -11 q 198 15 251 -11 q 113 88 144 42 q 82 190 82 133 q 119 308 82 265 q 246 368 157 350 q 490 386 335 386 l 533 386 l 533 436 q 496 572 533 529 q 376 614 458 614 q 259 596 315 614 q 143 539 203 578 l 110 604 q 235 664 163 642 q 375 686 307 686 q 556 624 497 686 q 615 432 615 561 l 615 0 l 535 0 l 535 121 q 451 24 507 58 q 319 -11 394 -11 m 331 57 q 435 85 390 57 q 507 164 481 114 q 533 278 533 214 l 533 324 l 492 324 q 297 313 367 324 q 199 274 226 301 q 171 197 171 246 q 214 96 171 135 q 331 57 257 57 m 507 906 q 520 956 507 938 q 551 987 533 975 q 581 1010 568 999 q 594 1039 594 1021 q 528 1067 594 1067 q 488 1063 508 1067 q 442 1051 467 1060 l 428 1097 q 540 1119 472 1119 q 631 1101 599 1119 q 663 1049 663 1082 q 648 1003 663 1019 q 614 974 633 986 q 580 947 594 963 q 565 906 565 932 l 507 906 m 178 764 l 329 988 l 415 988 l 567 764 l 506 764 l 372 926 l 239 764 l 178 764 z "},"ẫ":{"ha":725,"x_min":82,"x_max":615,"o":"m 319 -11 q 198 15 251 -11 q 113 88 144 42 q 82 190 82 133 q 119 308 82 265 q 246 368 157 350 q 490 386 335 386 l 533 386 l 533 436 q 496 572 533 529 q 376 614 458 614 q 259 596 315 614 q 143 539 203 578 l 110 604 q 235 664 163 642 q 375 686 307 686 q 556 624 497 686 q 615 432 615 561 l 615 0 l 535 0 l 535 121 q 451 24 507 58 q 319 -11 394 -11 m 331 57 q 435 85 390 57 q 507 164 481 114 q 533 278 533 214 l 533 324 l 492 324 q 297 313 367 324 q 199 274 226 301 q 171 197 171 246 q 214 96 171 135 q 331 57 257 57 m 215 981 l 161 985 q 200 1087 167 1053 q 283 1121 233 1121 q 333 1110 310 1121 q 385 1078 356 1100 q 430 1050 414 1057 q 460 1043 446 1043 q 507 1062 492 1043 q 529 1124 522 1081 l 583 1121 q 545 1018 578 1053 q 463 983 513 983 q 413 994 436 983 q 354 1031 389 1006 q 319 1052 336 1043 q 285 1061 303 1061 q 238 1042 254 1061 q 215 981 222 1024 m 178 764 l 329 946 l 415 946 l 567 764 l 506 764 l 372 890 l 239 764 l 178 764 z "},"ȁ":{"ha":725,"x_min":82,"x_max":615,"o":"m 319 -11 q 198 15 251 -11 q 113 88 144 42 q 82 190 82 133 q 119 308 82 265 q 246 368 157 350 q 490 386 335 386 l 533 386 l 533 436 q 496 572 533 529 q 376 614 458 614 q 259 596 315 614 q 143 539 203 578 l 110 604 q 235 664 163 642 q 375 686 307 686 q 556 624 497 686 q 615 432 615 561 l 615 0 l 535 0 l 535 121 q 451 24 507 58 q 319 -11 394 -11 m 331 57 q 435 85 390 57 q 507 164 481 114 q 533 278 533 214 l 533 324 l 492 324 q 297 313 367 324 q 199 274 226 301 q 171 197 171 246 q 214 96 171 135 q 331 57 257 57 m 429 764 l 317 1043 l 401 1043 l 479 764 l 429 764 m 267 764 l 153 1043 l 238 1043 l 315 764 l 267 764 z "},"ä":{"ha":725,"x_min":82,"x_max":615,"o":"m 319 -11 q 198 15 251 -11 q 113 88 144 42 q 82 190 82 133 q 119 308 82 265 q 246 368 157 350 q 490 386 335 386 l 533 386 l 533 436 q 496 572 533 529 q 376 614 458 614 q 259 596 315 614 q 143 539 203 578 l 110 604 q 235 664 163 642 q 375 686 307 686 q 556 624 497 686 q 615 432 615 561 l 615 0 l 535 0 l 535 121 q 451 24 507 58 q 319 -11 394 -11 m 331 57 q 435 85 390 57 q 507 164 481 114 q 533 278 533 214 l 533 324 l 492 324 q 297 313 367 324 q 199 274 226 301 q 171 197 171 246 q 214 96 171 135 q 331 57 257 57 m 438 854 l 438 954 l 539 954 l 539 854 l 438 854 m 206 854 l 206 954 l 307 954 l 307 854 l 206 854 z "},"ȧ":{"ha":725,"x_min":82,"x_max":615,"o":"m 319 -11 q 198 15 251 -11 q 113 88 144 42 q 82 190 82 133 q 119 308 82 265 q 246 368 157 350 q 490 386 335 386 l 533 386 l 533 436 q 496 572 533 529 q 376 614 458 614 q 259 596 315 614 q 143 539 203 578 l 110 604 q 235 664 163 642 q 375 686 307 686 q 556 624 497 686 q 615 432 615 561 l 615 0 l 535 0 l 535 121 q 451 24 507 58 q 319 -11 394 -11 m 331 57 q 435 85 390 57 q 507 164 481 114 q 533 278 533 214 l 533 324 l 492 324 q 297 313 367 324 q 199 274 226 301 q 171 197 171 246 q 214 96 171 135 q 331 57 257 57 m 318 853 l 318 957 l 426 957 l 426 853 l 318 853 z "},"ạ":{"ha":725,"x_min":82,"x_max":615,"o":"m 319 -11 q 198 15 251 -11 q 113 88 144 42 q 82 190 82 133 q 119 308 82 265 q 246 368 157 350 q 490 386 335 386 l 533 386 l 533 436 q 496 572 533 529 q 376 614 458 614 q 259 596 315 614 q 143 539 203 578 l 110 604 q 235 664 163 642 q 375 686 307 686 q 556 624 497 686 q 615 432 615 561 l 615 0 l 535 0 l 535 121 q 451 24 507 58 q 319 -11 394 -11 m 331 57 q 435 85 390 57 q 507 164 481 114 q 533 278 533 214 l 533 324 l 492 324 q 297 313 367 324 q 199 274 226 301 q 171 197 171 246 q 214 96 171 135 q 331 57 257 57 m 314 -249 l 314 -144 l 422 -144 l 422 -249 l 314 -249 z "},"à":{"ha":725,"x_min":82,"x_max":615,"o":"m 319 -11 q 198 15 251 -11 q 113 88 144 42 q 82 190 82 133 q 119 308 82 265 q 246 368 157 350 q 490 386 335 386 l 533 386 l 533 436 q 496 572 533 529 q 376 614 458 614 q 259 596 315 614 q 143 539 203 578 l 110 604 q 235 664 163 642 q 375 686 307 686 q 556 624 497 686 q 615 432 615 561 l 615 0 l 535 0 l 535 121 q 451 24 507 58 q 319 -11 394 -11 m 331 57 q 435 85 390 57 q 507 164 481 114 q 533 278 533 214 l 533 324 l 492 324 q 297 313 367 324 q 199 274 226 301 q 171 197 171 246 q 214 96 171 135 q 331 57 257 57 m 340 764 l 164 1043 l 261 1043 l 404 764 l 340 764 z "},"ả":{"ha":725,"x_min":82,"x_max":615,"o":"m 319 -11 q 198 15 251 -11 q 113 88 144 42 q 82 190 82 133 q 119 308 82 265 q 246 368 157 350 q 490 386 335 386 l 533 386 l 533 436 q 496 572 533 529 q 376 614 458 614 q 259 596 315 614 q 143 539 203 578 l 110 604 q 235 664 163 642 q 375 686 307 686 q 556 624 497 686 q 615 432 615 561 l 615 0 l 535 0 l 535 121 q 451 24 507 58 q 319 -11 394 -11 m 331 57 q 435 85 390 57 q 507 164 481 114 q 533 278 533 214 l 533 324 l 492 324 q 297 313 367 324 q 199 274 226 301 q 171 197 171 246 q 214 96 171 135 q 331 57 257 57 m 340 764 l 340 792 q 354 847 340 825 q 386 883 368 868 q 418 914 404 899 q 432 951 432 929 q 363 992 432 992 q 321 987 342 992 q 275 971 300 982 l 258 1022 q 376 1051 304 1051 q 472 1027 438 1051 q 506 958 506 1003 q 490 903 506 924 q 455 867 475 882 q 419 833 435 851 q 404 785 404 815 l 404 764 l 340 764 z "},"ȃ":{"ha":725,"x_min":82,"x_max":615,"o":"m 319 -11 q 198 15 251 -11 q 113 88 144 42 q 82 190 82 133 q 119 308 82 265 q 246 368 157 350 q 490 386 335 386 l 533 386 l 533 436 q 496 572 533 529 q 376 614 458 614 q 259 596 315 614 q 143 539 203 578 l 110 604 q 235 664 163 642 q 375 686 307 686 q 556 624 497 686 q 615 432 615 561 l 615 0 l 535 0 l 535 121 q 451 24 507 58 q 319 -11 394 -11 m 331 57 q 435 85 390 57 q 507 164 481 114 q 533 278 533 214 l 533 324 l 492 324 q 297 313 367 324 q 199 274 226 301 q 171 197 171 246 q 214 96 171 135 q 331 57 257 57 m 224 761 l 165 767 q 227 959 172 889 q 372 1029 282 1029 q 517 959 463 1029 q 579 767 572 889 l 521 761 q 478 913 517 860 q 372 967 439 967 q 267 913 306 967 q 224 761 228 860 z "},"ā":{"ha":725,"x_min":82,"x_max":615,"o":"m 319 -11 q 198 15 251 -11 q 113 88 144 42 q 82 190 82 133 q 119 308 82 265 q 246 368 157 350 q 490 386 335 386 l 533 386 l 533 436 q 496 572 533 529 q 376 614 458 614 q 259 596 315 614 q 143 539 203 578 l 110 604 q 235 664 163 642 q 375 686 307 686 q 556 624 497 686 q 615 432 615 561 l 615 0 l 535 0 l 535 121 q 451 24 507 58 q 319 -11 394 -11 m 331 57 q 435 85 390 57 q 507 164 481 114 q 533 278 533 214 l 533 324 l 492 324 q 297 313 367 324 q 199 274 226 301 q 171 197 171 246 q 214 96 171 135 q 331 57 257 57 m 172 874 l 172 938 l 572 938 l 572 874 l 172 874 z "},"ą":{"ha":725,"x_min":82,"x_max":683,"o":"m 319 -11 q 198 15 251 -11 q 113 88 144 42 q 82 190 82 133 q 119 308 82 265 q 246 368 157 350 q 490 386 335 386 l 533 386 l 533 436 q 496 572 533 529 q 376 614 458 614 q 259 596 315 614 q 143 539 203 578 l 110 604 q 235 664 163 642 q 375 686 307 686 q 556 624 497 686 q 615 432 615 561 l 615 0 l 535 0 l 535 121 q 451 24 507 58 q 319 -11 394 -11 m 331 57 q 435 85 390 57 q 507 164 481 114 q 533 278 533 214 l 533 324 l 492 324 q 297 313 367 324 q 199 274 226 301 q 171 197 171 246 q 214 96 171 135 q 331 57 257 57 m 579 -265 q 480 -230 518 -265 q 442 -133 442 -194 q 476 -32 442 -81 q 569 47 510 17 l 604 0 q 540 -47 572 -14 q 508 -125 508 -79 q 532 -186 508 -167 q 590 -206 556 -206 q 664 -189 625 -206 l 683 -242 q 579 -265 644 -265 z "},"å":{"ha":725,"x_min":82,"x_max":615,"o":"m 319 -11 q 198 15 251 -11 q 113 88 144 42 q 82 190 82 133 q 119 308 82 265 q 246 368 157 350 q 490 386 335 386 l 533 386 l 533 436 q 496 572 533 529 q 376 614 458 614 q 259 596 315 614 q 143 539 203 578 l 110 604 q 235 664 163 642 q 375 686 307 686 q 556 624 497 686 q 615 432 615 561 l 615 0 l 535 0 l 535 121 q 451 24 507 58 q 319 -11 394 -11 m 331 57 q 435 85 390 57 q 507 164 481 114 q 533 278 533 214 l 533 324 l 492 324 q 297 313 367 324 q 199 274 226 301 q 171 197 171 246 q 214 96 171 135 q 331 57 257 57 m 372 760 q 258 806 304 760 q 213 917 213 851 q 258 1027 213 982 q 372 1072 304 1072 q 486 1027 440 1072 q 532 917 532 982 q 486 806 532 851 q 372 760 440 760 m 372 811 q 447 842 418 811 q 476 917 476 872 q 447 991 476 961 q 372 1021 418 1021 q 297 991 326 1021 q 268 917 268 961 q 297 842 268 872 q 372 811 326 811 z "},"ǻ":{"ha":725,"x_min":82,"x_max":664,"o":"m 319 -11 q 198 15 251 -11 q 113 88 144 42 q 82 190 82 133 q 119 308 82 265 q 246 368 157 350 q 490 386 335 386 l 533 386 l 533 436 q 496 572 533 529 q 376 614 458 614 q 259 596 315 614 q 143 539 203 578 l 110 604 q 235 664 163 642 q 375 686 307 686 q 556 624 497 686 q 615 432 615 561 l 615 0 l 535 0 l 535 121 q 451 24 507 58 q 319 -11 394 -11 m 331 57 q 435 85 390 57 q 507 164 481 114 q 533 278 533 214 l 533 324 l 492 324 q 297 313 367 324 q 199 274 226 301 q 171 197 171 246 q 214 96 171 135 q 331 57 257 57 m 372 758 q 260 803 306 758 q 214 913 214 849 q 260 1023 214 978 q 372 1068 306 1068 q 465 1039 424 1068 l 568 1133 l 664 1133 l 504 999 q 531 913 531 961 q 485 803 531 849 q 372 758 439 758 m 372 808 q 447 838 418 808 q 476 913 476 868 q 447 987 476 957 q 372 1017 418 1017 q 297 987 326 1017 q 268 913 268 957 q 297 838 268 868 q 372 808 326 808 z "},"ã":{"ha":725,"x_min":82,"x_max":615,"o":"m 319 -11 q 198 15 251 -11 q 113 88 144 42 q 82 190 82 133 q 119 308 82 265 q 246 368 157 350 q 490 386 335 386 l 533 386 l 533 436 q 496 572 533 529 q 376 614 458 614 q 259 596 315 614 q 143 539 203 578 l 110 604 q 235 664 163 642 q 375 686 307 686 q 556 624 497 686 q 615 432 615 561 l 615 0 l 535 0 l 535 121 q 451 24 507 58 q 319 -11 394 -11 m 331 57 q 435 85 390 57 q 507 164 481 114 q 533 278 533 214 l 533 324 l 492 324 q 297 313 367 324 q 199 274 226 301 q 171 197 171 246 q 214 96 171 135 q 331 57 257 57 m 185 822 l 131 826 q 176 956 139 910 q 272 1003 213 1003 q 327 988 301 1003 q 386 940 353 972 q 435 901 417 913 q 472 890 454 890 q 560 1007 543 890 l 614 1003 q 569 873 606 919 q 474 826 532 826 q 420 841 446 826 q 358 889 394 856 q 310 927 329 915 q 272 939 292 939 q 185 822 201 939 z "},"æ":{"ha":1193,"x_min":82,"x_max":1131,"o":"m 325 -11 q 200 15 254 -11 q 114 88 146 42 q 82 190 82 133 q 120 308 82 265 q 248 368 158 350 q 490 386 338 386 l 539 386 l 539 433 q 499 571 539 528 q 379 614 460 614 q 259 597 315 614 q 143 540 203 579 l 110 604 q 235 664 163 642 q 378 686 307 686 q 601 546 554 686 q 706 650 640 614 q 853 686 771 686 q 1056 599 982 686 q 1131 358 1131 511 l 1131 324 l 622 324 q 688 128 626 197 q 865 60 750 60 q 1088 144 985 60 l 1119 81 q 1006 13 1075 38 q 869 -11 938 -11 q 688 33 763 -11 q 576 167 613 78 q 483 36 549 83 q 325 -11 418 -11 m 850 618 q 693 556 753 618 q 624 386 633 493 l 1056 386 q 999 556 1051 493 q 850 618 947 618 m 333 57 q 482 122 425 57 q 539 286 539 186 l 539 324 l 492 324 q 297 313 367 324 q 199 274 226 301 q 171 197 171 247 q 214 96 171 135 q 333 57 257 57 z "},"ǽ":{"ha":1193,"x_min":82,"x_max":1131,"o":"m 325 -11 q 200 15 254 -11 q 114 88 146 42 q 82 190 82 133 q 120 308 82 265 q 248 368 158 350 q 490 386 338 386 l 539 386 l 539 433 q 499 571 539 528 q 379 614 460 614 q 259 597 315 614 q 143 540 203 579 l 110 604 q 235 664 163 642 q 378 686 307 686 q 601 546 554 686 q 706 650 640 614 q 853 686 771 686 q 1056 599 982 686 q 1131 358 1131 511 l 1131 324 l 622 324 q 688 128 626 197 q 865 60 750 60 q 1088 144 985 60 l 1119 81 q 1006 13 1075 38 q 869 -11 938 -11 q 688 33 763 -11 q 576 167 613 78 q 483 36 549 83 q 325 -11 418 -11 m 850 618 q 693 556 753 618 q 624 386 633 493 l 1056 386 q 999 556 1051 493 q 850 618 947 618 m 333 57 q 482 122 425 57 q 539 286 539 186 l 539 324 l 492 324 q 297 313 367 324 q 199 274 226 301 q 171 197 171 247 q 214 96 171 135 q 333 57 257 57 m 546 764 l 689 1043 l 786 1043 l 610 764 l 546 764 z "},"b":{"ha":799,"x_min":111,"x_max":731,"o":"m 432 -11 q 288 26 350 -11 q 196 128 226 63 l 196 0 l 111 0 l 111 979 l 196 979 l 196 549 q 288 649 226 613 q 432 686 350 686 q 649 592 568 686 q 731 338 731 497 q 694 152 731 231 q 590 31 657 74 q 432 -11 522 -11 m 419 60 q 583 133 522 60 q 644 338 644 206 q 583 542 644 469 q 419 614 522 614 q 256 542 317 614 q 194 338 194 469 q 256 133 194 206 q 419 60 317 60 z "},"ɓ":{"ha":799,"x_min":111,"x_max":731,"o":"m 432 -11 q 288 26 350 -11 q 196 128 226 63 l 196 0 l 111 0 l 111 769 q 166 933 111 876 q 326 990 221 990 q 397 981 365 990 l 386 911 q 357 917 368 915 q 332 918 346 918 q 230 881 264 918 q 196 772 196 843 l 196 549 q 288 649 226 613 q 432 686 350 686 q 649 592 568 686 q 731 338 731 497 q 694 152 731 231 q 590 31 657 74 q 432 -11 522 -11 m 419 60 q 583 133 522 60 q 644 338 644 206 q 583 542 644 469 q 419 614 522 614 q 256 542 317 614 q 194 338 194 469 q 256 133 194 206 q 419 60 317 60 z "},"c":{"ha":638,"x_min":69,"x_max":607,"o":"m 386 -11 q 217 33 288 -11 q 108 156 146 76 q 69 342 69 236 q 153 594 69 501 q 386 686 238 686 q 507 663 447 686 q 607 597 567 639 l 574 533 q 482 594 531 575 q 389 613 433 613 q 216 542 276 613 q 156 340 156 471 q 216 135 156 210 q 389 61 276 61 q 482 80 433 61 q 574 140 531 99 l 607 76 q 506 13 567 36 q 386 -11 446 -11 z "},"ć":{"ha":638,"x_min":69,"x_max":607,"o":"m 386 -11 q 217 33 288 -11 q 108 156 146 76 q 69 342 69 236 q 153 594 69 501 q 386 686 238 686 q 507 663 447 686 q 607 597 567 639 l 574 533 q 482 594 531 575 q 389 613 433 613 q 216 542 276 613 q 156 340 156 471 q 216 135 156 210 q 389 61 276 61 q 482 80 433 61 q 574 140 531 99 l 607 76 q 506 13 567 36 q 386 -11 446 -11 m 350 764 l 493 1043 l 590 1043 l 414 764 l 350 764 z "},"č":{"ha":638,"x_min":69,"x_max":607,"o":"m 386 -11 q 217 33 288 -11 q 108 156 146 76 q 69 342 69 236 q 153 594 69 501 q 386 686 238 686 q 507 663 447 686 q 607 597 567 639 l 574 533 q 482 594 531 575 q 389 613 433 613 q 216 542 276 613 q 156 340 156 471 q 216 135 156 210 q 389 61 276 61 q 482 80 433 61 q 574 140 531 99 l 607 76 q 506 13 567 36 q 386 -11 446 -11 m 339 764 l 188 1043 l 250 1043 l 382 828 l 514 1043 l 576 1043 l 425 764 l 339 764 z "},"ç":{"ha":638,"x_min":69,"x_max":607,"o":"m 386 -11 q 217 33 288 -11 q 108 156 146 76 q 69 342 69 236 q 153 594 69 501 q 386 686 238 686 q 507 663 447 686 q 607 597 567 639 l 574 533 q 482 594 531 575 q 389 613 433 613 q 216 542 276 613 q 156 340 156 471 q 216 135 156 210 q 389 61 276 61 q 482 80 433 61 q 574 140 531 99 l 607 76 q 506 13 567 36 q 386 -11 446 -11 m 388 -265 q 272 -239 315 -265 l 288 -185 q 335 -203 313 -197 q 389 -208 357 -208 q 449 -194 426 -208 q 472 -153 472 -179 q 419 -111 472 -111 q 388 -113 404 -111 q 351 -124 372 -115 l 329 -104 l 349 28 l 411 28 l 396 -64 q 426 -61 413 -61 q 506 -85 474 -61 q 539 -154 539 -110 q 497 -235 539 -204 q 388 -265 456 -265 z "},"ḉ":{"ha":638,"x_min":69,"x_max":607,"o":"m 386 -11 q 217 33 288 -11 q 108 156 146 76 q 69 342 69 236 q 153 594 69 501 q 386 686 238 686 q 507 663 447 686 q 607 597 567 639 l 574 533 q 482 594 531 575 q 389 613 433 613 q 216 542 276 613 q 156 340 156 471 q 216 135 156 210 q 389 61 276 61 q 482 80 433 61 q 574 140 531 99 l 607 76 q 506 13 567 36 q 386 -11 446 -11 m 388 -265 q 272 -239 315 -265 l 288 -185 q 335 -203 313 -197 q 389 -208 357 -208 q 449 -194 426 -208 q 472 -153 472 -179 q 419 -111 472 -111 q 388 -113 404 -111 q 351 -124 372 -115 l 329 -104 l 349 28 l 411 28 l 396 -64 q 426 -61 413 -61 q 506 -85 474 -61 q 539 -154 539 -110 q 497 -235 539 -204 q 388 -265 456 -265 m 350 764 l 493 1043 l 590 1043 l 414 764 l 350 764 z "},"ĉ":{"ha":638,"x_min":69,"x_max":607,"o":"m 386 -11 q 217 33 288 -11 q 108 156 146 76 q 69 342 69 236 q 153 594 69 501 q 386 686 238 686 q 507 663 447 686 q 607 597 567 639 l 574 533 q 482 594 531 575 q 389 613 433 613 q 216 542 276 613 q 156 340 156 471 q 216 135 156 210 q 389 61 276 61 q 482 80 433 61 q 574 140 531 99 l 607 76 q 506 13 567 36 q 386 -11 446 -11 m 188 764 l 339 1043 l 425 1043 l 576 764 l 514 764 l 382 979 l 250 764 l 188 764 z "},"ċ":{"ha":638,"x_min":69,"x_max":607,"o":"m 386 -11 q 217 33 288 -11 q 108 156 146 76 q 69 342 69 236 q 153 594 69 501 q 386 686 238 686 q 507 663 447 686 q 607 597 567 639 l 574 533 q 482 594 531 575 q 389 613 433 613 q 216 542 276 613 q 156 340 156 471 q 216 135 156 210 q 389 61 276 61 q 482 80 433 61 q 574 140 531 99 l 607 76 q 506 13 567 36 q 386 -11 446 -11 m 328 853 l 328 957 l 436 957 l 436 853 l 328 853 z "},"d":{"ha":799,"x_min":69,"x_max":688,"o":"m 368 -11 q 210 31 276 -11 q 106 152 143 74 q 69 338 69 231 q 150 592 69 497 q 368 686 231 686 q 510 649 449 686 q 603 549 572 613 l 603 979 l 688 979 l 688 0 l 604 0 l 604 128 q 512 26 574 63 q 368 -11 450 -11 m 379 60 q 543 133 482 60 q 604 338 604 206 q 543 542 604 469 q 379 614 482 614 q 216 542 276 614 q 156 338 156 469 q 216 133 156 206 q 379 60 276 60 z "},"ð":{"ha":764,"x_min":69,"x_max":696,"o":"m 378 -11 q 215 28 285 -11 q 108 140 146 68 q 69 310 69 213 q 108 478 69 406 q 215 590 146 550 q 378 629 285 629 q 513 599 456 629 q 607 504 571 568 q 406 835 575 719 l 188 742 l 163 800 l 338 875 q 276 903 310 890 q 206 926 243 917 l 225 988 q 329 952 281 972 q 417 910 378 932 l 600 988 l 625 929 l 479 867 q 640 667 585 786 q 696 393 696 549 q 615 92 696 194 q 378 -11 533 -11 m 378 61 q 544 128 483 61 q 604 310 604 194 q 544 491 604 425 q 379 557 485 557 q 215 491 275 557 q 156 310 156 425 q 215 126 156 192 q 378 61 274 61 z "},"ď":{"ha":799,"x_min":69,"x_max":833,"o":"m 368 -11 q 210 31 276 -11 q 106 152 143 74 q 69 338 69 231 q 150 592 69 497 q 368 686 231 686 q 510 649 449 686 q 603 549 572 613 l 603 979 l 688 979 l 688 0 l 604 0 l 604 128 q 512 26 574 63 q 368 -11 450 -11 m 379 60 q 543 133 482 60 q 604 338 604 206 q 543 542 604 469 q 379 614 482 614 q 216 542 276 614 q 156 338 156 469 q 216 133 156 206 q 379 60 276 60 m 754 717 l 754 979 l 833 979 l 801 717 l 754 717 z "},"đ":{"ha":799,"x_min":69,"x_max":817,"o":"m 368 -11 q 210 31 278 -11 q 106 152 143 74 q 69 338 69 231 q 150 592 69 497 q 368 686 231 686 q 511 649 450 686 q 603 549 572 613 l 603 775 l 332 775 l 332 842 l 603 842 l 603 979 l 688 979 l 688 842 l 817 842 l 817 775 l 688 775 l 688 0 l 603 0 l 603 126 q 512 26 574 63 q 368 -11 450 -11 m 381 60 q 544 133 483 60 q 604 338 604 206 q 544 542 604 469 q 381 614 483 614 q 216 542 276 614 q 156 338 156 469 q 216 133 156 206 q 381 60 276 60 z "},"ḍ":{"ha":799,"x_min":69,"x_max":688,"o":"m 368 -11 q 210 31 276 -11 q 106 152 143 74 q 69 338 69 231 q 150 592 69 497 q 368 686 231 686 q 510 649 449 686 q 603 549 572 613 l 603 979 l 688 979 l 688 0 l 604 0 l 604 128 q 512 26 574 63 q 368 -11 450 -11 m 379 60 q 543 133 482 60 q 604 338 604 206 q 543 542 604 469 q 379 614 482 614 q 216 542 276 614 q 156 338 156 469 q 216 133 156 206 q 379 60 276 60 m 347 -249 l 347 -144 l 456 -144 l 456 -249 l 347 -249 z "},"ɗ":{"ha":799,"x_min":69,"x_max":889,"o":"m 368 -11 q 210 31 276 -11 q 106 152 143 74 q 69 338 69 231 q 150 592 69 497 q 368 686 231 686 q 510 649 449 686 q 603 549 572 613 l 603 769 q 658 933 603 876 q 817 990 713 990 q 889 981 857 990 l 878 911 q 847 917 858 915 q 824 918 836 918 q 688 772 688 918 l 688 0 l 604 0 l 604 128 q 512 26 574 63 q 368 -11 450 -11 m 379 60 q 543 133 482 60 q 604 338 604 206 q 543 542 604 469 q 379 614 482 614 q 216 542 276 614 q 156 338 156 469 q 216 133 156 206 q 379 60 276 60 z "},"ḏ":{"ha":799,"x_min":69,"x_max":688,"o":"m 368 -11 q 210 31 276 -11 q 106 152 143 74 q 69 338 69 231 q 150 592 69 497 q 368 686 231 686 q 510 649 449 686 q 603 549 572 613 l 603 979 l 688 979 l 688 0 l 604 0 l 604 128 q 512 26 574 63 q 368 -11 450 -11 m 379 60 q 543 133 482 60 q 604 338 604 206 q 543 542 604 469 q 379 614 482 614 q 216 542 276 614 q 156 338 156 469 q 216 133 156 206 q 379 60 276 60 m 201 -211 l 201 -147 l 601 -147 l 601 -211 l 201 -211 z "},"ǆ":{"ha":1436,"x_min":69,"x_max":1392,"o":"m 368 -11 q 210 31 276 -11 q 106 152 143 74 q 69 338 69 231 q 150 592 69 497 q 368 686 231 686 q 510 649 449 686 q 603 549 572 613 l 603 979 l 688 979 l 688 0 l 604 0 l 604 128 q 512 26 574 63 q 368 -11 450 -11 m 379 60 q 543 133 482 60 q 604 338 604 206 q 543 542 604 469 q 379 614 482 614 q 216 542 276 614 q 156 338 156 469 q 216 133 156 206 q 379 60 276 60 z "},"e":{"ha":732,"x_min":69,"x_max":671,"o":"m 404 -11 q 159 81 249 -11 q 69 335 69 174 q 110 518 69 439 q 222 642 150 597 q 386 686 293 686 q 596 599 521 686 q 671 358 671 511 l 671 319 l 153 319 q 222 127 157 194 q 401 60 286 60 q 519 79 464 60 q 626 144 574 99 l 660 81 q 546 13 615 38 q 404 -11 476 -11 m 388 618 q 223 552 282 618 q 154 382 164 486 l 594 382 q 539 556 592 493 q 388 618 486 618 z "},"é":{"ha":732,"x_min":69,"x_max":671,"o":"m 404 -11 q 159 81 249 -11 q 69 335 69 174 q 110 518 69 439 q 222 642 150 597 q 386 686 293 686 q 596 599 521 686 q 671 358 671 511 l 671 319 l 153 319 q 222 127 157 194 q 401 60 286 60 q 519 79 464 60 q 626 144 574 99 l 660 81 q 546 13 615 38 q 404 -11 476 -11 m 388 618 q 223 552 282 618 q 154 382 164 486 l 594 382 q 539 556 592 493 q 388 618 486 618 m 356 764 l 499 1043 l 596 1043 l 419 764 l 356 764 z "},"ĕ":{"ha":732,"x_min":69,"x_max":671,"o":"m 404 -11 q 159 81 249 -11 q 69 335 69 174 q 110 518 69 439 q 222 642 150 597 q 386 686 293 686 q 596 599 521 686 q 671 358 671 511 l 671 319 l 153 319 q 222 127 157 194 q 401 60 286 60 q 519 79 464 60 q 626 144 574 99 l 660 81 q 546 13 615 38 q 404 -11 476 -11 m 388 618 q 223 552 282 618 q 154 382 164 486 l 594 382 q 539 556 592 493 q 388 618 486 618 m 388 761 q 242 831 297 761 q 181 1022 188 900 l 239 1029 q 282 877 243 931 q 388 824 321 824 q 493 877 454 824 q 536 1029 532 931 l 594 1022 q 533 831 588 900 q 388 761 478 761 z "},"ě":{"ha":732,"x_min":69,"x_max":671,"o":"m 404 -11 q 159 81 249 -11 q 69 335 69 174 q 110 518 69 439 q 222 642 150 597 q 386 686 293 686 q 596 599 521 686 q 671 358 671 511 l 671 319 l 153 319 q 222 127 157 194 q 401 60 286 60 q 519 79 464 60 q 626 144 574 99 l 660 81 q 546 13 615 38 q 404 -11 476 -11 m 388 618 q 223 552 282 618 q 154 382 164 486 l 594 382 q 539 556 592 493 q 388 618 486 618 m 344 764 l 193 1043 l 256 1043 l 388 828 l 519 1043 l 582 1043 l 431 764 l 344 764 z "},"ḝ":{"ha":732,"x_min":69,"x_max":671,"o":"m 404 -11 q 159 81 249 -11 q 69 335 69 174 q 110 518 69 439 q 222 642 150 597 q 386 686 293 686 q 596 599 521 686 q 671 358 671 511 l 671 319 l 153 319 q 222 127 157 194 q 401 60 286 60 q 519 79 464 60 q 626 144 574 99 l 660 81 q 546 13 615 38 q 404 -11 476 -11 m 388 618 q 223 552 282 618 q 154 382 164 486 l 594 382 q 539 556 592 493 q 388 618 486 618 m 393 -265 q 278 -239 321 -265 l 293 -185 q 340 -203 318 -197 q 394 -208 363 -208 q 455 -194 432 -208 q 478 -153 478 -179 q 425 -111 478 -111 q 394 -113 410 -111 q 357 -124 378 -115 l 335 -104 l 354 28 l 417 28 l 401 -64 q 432 -61 418 -61 q 512 -85 479 -61 q 544 -154 544 -110 q 503 -235 544 -204 q 393 -265 461 -265 m 388 761 q 242 831 297 761 q 181 1022 188 900 l 239 1029 q 282 877 243 931 q 388 824 321 824 q 493 877 454 824 q 536 1029 532 931 l 594 1022 q 533 831 588 900 q 388 761 478 761 z "},"ê":{"ha":732,"x_min":69,"x_max":671,"o":"m 404 -11 q 159 81 249 -11 q 69 335 69 174 q 110 518 69 439 q 222 642 150 597 q 386 686 293 686 q 596 599 521 686 q 671 358 671 511 l 671 319 l 153 319 q 222 127 157 194 q 401 60 286 60 q 519 79 464 60 q 626 144 574 99 l 660 81 q 546 13 615 38 q 404 -11 476 -11 m 388 618 q 223 552 282 618 q 154 382 164 486 l 594 382 q 539 556 592 493 q 388 618 486 618 m 193 764 l 344 1043 l 431 1043 l 582 764 l 519 764 l 388 979 l 256 764 l 193 764 z "},"ế":{"ha":732,"x_min":69,"x_max":721,"o":"m 404 -11 q 159 81 249 -11 q 69 335 69 174 q 110 518 69 439 q 222 642 150 597 q 386 686 293 686 q 596 599 521 686 q 671 358 671 511 l 671 319 l 153 319 q 222 127 157 194 q 401 60 286 60 q 519 79 464 60 q 626 144 574 99 l 660 81 q 546 13 615 38 q 404 -11 476 -11 m 388 618 q 223 552 282 618 q 154 382 164 486 l 594 382 q 539 556 592 493 q 388 618 486 618 m 508 906 l 629 1114 l 721 1114 l 569 906 l 508 906 m 193 764 l 344 988 l 431 988 l 582 764 l 521 764 l 388 926 l 254 764 l 193 764 z "},"ệ":{"ha":732,"x_min":69,"x_max":671,"o":"m 404 -11 q 159 81 249 -11 q 69 335 69 174 q 110 518 69 439 q 222 642 150 597 q 386 686 293 686 q 596 599 521 686 q 671 358 671 511 l 671 319 l 153 319 q 222 127 157 194 q 401 60 286 60 q 519 79 464 60 q 626 144 574 99 l 660 81 q 546 13 615 38 q 404 -11 476 -11 m 388 618 q 223 552 282 618 q 154 382 164 486 l 594 382 q 539 556 592 493 q 388 618 486 618 m 333 -249 l 333 -144 l 442 -144 l 442 -249 l 333 -249 m 193 764 l 344 1043 l 431 1043 l 582 764 l 519 764 l 388 979 l 256 764 l 193 764 z "},"ề":{"ha":732,"x_min":69,"x_max":671,"o":"m 404 -11 q 159 81 249 -11 q 69 335 69 174 q 110 518 69 439 q 222 642 150 597 q 386 686 293 686 q 596 599 521 686 q 671 358 671 511 l 671 319 l 153 319 q 222 127 157 194 q 401 60 286 60 q 519 79 464 60 q 626 144 574 99 l 660 81 q 546 13 615 38 q 404 -11 476 -11 m 388 618 q 223 552 282 618 q 154 382 164 486 l 594 382 q 539 556 592 493 q 388 618 486 618 m 565 906 l 414 1114 l 506 1114 l 626 906 l 565 906 m 193 764 l 344 988 l 431 988 l 582 764 l 521 764 l 388 926 l 254 764 l 193 764 z "},"ể":{"ha":732,"x_min":69,"x_max":678,"o":"m 404 -11 q 159 81 249 -11 q 69 335 69 174 q 110 518 69 439 q 222 642 150 597 q 386 686 293 686 q 596 599 521 686 q 671 358 671 511 l 671 319 l 153 319 q 222 127 157 194 q 401 60 286 60 q 519 79 464 60 q 626 144 574 99 l 660 81 q 546 13 615 38 q 404 -11 476 -11 m 388 618 q 223 552 282 618 q 154 382 164 486 l 594 382 q 539 556 592 493 q 388 618 486 618 m 522 906 q 535 956 522 938 q 566 987 549 975 q 597 1010 583 999 q 610 1039 610 1021 q 543 1067 610 1067 q 503 1063 524 1067 q 457 1051 482 1060 l 443 1097 q 556 1119 488 1119 q 646 1101 614 1119 q 678 1049 678 1082 q 663 1003 678 1019 q 629 974 649 986 q 595 947 610 963 q 581 906 581 932 l 522 906 m 193 764 l 344 988 l 431 988 l 582 764 l 521 764 l 388 926 l 254 764 l 193 764 z "},"ễ":{"ha":732,"x_min":69,"x_max":671,"o":"m 404 -11 q 159 81 249 -11 q 69 335 69 174 q 110 518 69 439 q 222 642 150 597 q 386 686 293 686 q 596 599 521 686 q 671 358 671 511 l 671 319 l 153 319 q 222 127 157 194 q 401 60 286 60 q 519 79 464 60 q 626 144 574 99 l 660 81 q 546 13 615 38 q 404 -11 476 -11 m 388 618 q 223 552 282 618 q 154 382 164 486 l 594 382 q 539 556 592 493 q 388 618 486 618 m 231 981 l 176 985 q 215 1087 182 1053 q 299 1121 249 1121 q 348 1110 325 1121 q 400 1078 371 1100 q 445 1050 429 1057 q 475 1043 461 1043 q 522 1062 507 1043 q 544 1124 538 1081 l 599 1121 q 560 1018 593 1053 q 478 983 528 983 q 428 994 451 983 q 369 1031 404 1006 q 335 1052 351 1043 q 300 1061 318 1061 q 253 1042 269 1061 q 231 981 238 1024 m 193 764 l 344 946 l 431 946 l 582 764 l 521 764 l 388 890 l 254 764 l 193 764 z "},"ȅ":{"ha":732,"x_min":69,"x_max":671,"o":"m 404 -11 q 159 81 249 -11 q 69 335 69 174 q 110 518 69 439 q 222 642 150 597 q 386 686 293 686 q 596 599 521 686 q 671 358 671 511 l 671 319 l 153 319 q 222 127 157 194 q 401 60 286 60 q 519 79 464 60 q 626 144 574 99 l 660 81 q 546 13 615 38 q 404 -11 476 -11 m 388 618 q 223 552 282 618 q 154 382 164 486 l 594 382 q 539 556 592 493 q 388 618 486 618 m 444 764 l 332 1043 l 417 1043 l 494 764 l 444 764 m 282 764 l 168 1043 l 253 1043 l 331 764 l 282 764 z "},"ë":{"ha":732,"x_min":69,"x_max":671,"o":"m 404 -11 q 159 81 249 -11 q 69 335 69 174 q 110 518 69 439 q 222 642 150 597 q 386 686 293 686 q 596 599 521 686 q 671 358 671 511 l 671 319 l 153 319 q 222 127 157 194 q 401 60 286 60 q 519 79 464 60 q 626 144 574 99 l 660 81 q 546 13 615 38 q 404 -11 476 -11 m 388 618 q 223 552 282 618 q 154 382 164 486 l 594 382 q 539 556 592 493 q 388 618 486 618 m 453 854 l 453 954 l 554 954 l 554 854 l 453 854 m 221 854 l 221 954 l 322 954 l 322 854 l 221 854 z "},"ė":{"ha":732,"x_min":69,"x_max":671,"o":"m 404 -11 q 159 81 249 -11 q 69 335 69 174 q 110 518 69 439 q 222 642 150 597 q 386 686 293 686 q 596 599 521 686 q 671 358 671 511 l 671 319 l 153 319 q 222 127 157 194 q 401 60 286 60 q 519 79 464 60 q 626 144 574 99 l 660 81 q 546 13 615 38 q 404 -11 476 -11 m 388 618 q 223 552 282 618 q 154 382 164 486 l 594 382 q 539 556 592 493 q 388 618 486 618 m 333 853 l 333 957 l 442 957 l 442 853 l 333 853 z "},"ẹ":{"ha":732,"x_min":69,"x_max":671,"o":"m 404 -11 q 159 81 249 -11 q 69 335 69 174 q 110 518 69 439 q 222 642 150 597 q 386 686 293 686 q 596 599 521 686 q 671 358 671 511 l 671 319 l 153 319 q 222 127 157 194 q 401 60 286 60 q 519 79 464 60 q 626 144 574 99 l 660 81 q 546 13 615 38 q 404 -11 476 -11 m 388 618 q 223 552 282 618 q 154 382 164 486 l 594 382 q 539 556 592 493 q 388 618 486 618 m 333 -249 l 333 -144 l 442 -144 l 442 -249 l 333 -249 z "},"è":{"ha":732,"x_min":69,"x_max":671,"o":"m 404 -11 q 159 81 249 -11 q 69 335 69 174 q 110 518 69 439 q 222 642 150 597 q 386 686 293 686 q 596 599 521 686 q 671 358 671 511 l 671 319 l 153 319 q 222 127 157 194 q 401 60 286 60 q 519 79 464 60 q 626 144 574 99 l 660 81 q 546 13 615 38 q 404 -11 476 -11 m 388 618 q 223 552 282 618 q 154 382 164 486 l 594 382 q 539 556 592 493 q 388 618 486 618 m 356 764 l 179 1043 l 276 1043 l 419 764 l 356 764 z "},"ẻ":{"ha":732,"x_min":69,"x_max":671,"o":"m 404 -11 q 159 81 249 -11 q 69 335 69 174 q 110 518 69 439 q 222 642 150 597 q 386 686 293 686 q 596 599 521 686 q 671 358 671 511 l 671 319 l 153 319 q 222 127 157 194 q 401 60 286 60 q 519 79 464 60 q 626 144 574 99 l 660 81 q 546 13 615 38 q 404 -11 476 -11 m 388 618 q 223 552 282 618 q 154 382 164 486 l 594 382 q 539 556 592 493 q 388 618 486 618 m 356 764 l 356 792 q 369 847 356 825 q 401 883 383 868 q 433 914 419 899 q 447 951 447 929 q 378 992 447 992 q 336 987 357 992 q 290 971 315 982 l 274 1022 q 392 1051 319 1051 q 487 1027 453 1051 q 521 958 521 1003 q 506 903 521 924 q 470 867 490 882 q 435 833 450 851 q 419 785 419 815 l 419 764 l 356 764 z "},"ȇ":{"ha":732,"x_min":69,"x_max":671,"o":"m 404 -11 q 159 81 249 -11 q 69 335 69 174 q 110 518 69 439 q 222 642 150 597 q 386 686 293 686 q 596 599 521 686 q 671 358 671 511 l 671 319 l 153 319 q 222 127 157 194 q 401 60 286 60 q 519 79 464 60 q 626 144 574 99 l 660 81 q 546 13 615 38 q 404 -11 476 -11 m 388 618 q 223 552 282 618 q 154 382 164 486 l 594 382 q 539 556 592 493 q 388 618 486 618 m 239 761 l 181 767 q 242 959 188 889 q 388 1029 297 1029 q 533 959 478 1029 q 594 767 588 889 l 536 761 q 493 913 532 860 q 388 967 454 967 q 282 913 321 967 q 239 761 243 860 z "},"ē":{"ha":732,"x_min":69,"x_max":671,"o":"m 404 -11 q 159 81 249 -11 q 69 335 69 174 q 110 518 69 439 q 222 642 150 597 q 386 686 293 686 q 596 599 521 686 q 671 358 671 511 l 671 319 l 153 319 q 222 127 157 194 q 401 60 286 60 q 519 79 464 60 q 626 144 574 99 l 660 81 q 546 13 615 38 q 404 -11 476 -11 m 388 618 q 223 552 282 618 q 154 382 164 486 l 594 382 q 539 556 592 493 q 388 618 486 618 m 188 874 l 188 938 l 588 938 l 588 874 l 188 874 z "},"ḗ":{"ha":732,"x_min":69,"x_max":671,"o":"m 404 -11 q 159 81 249 -11 q 69 335 69 174 q 110 518 69 439 q 222 642 150 597 q 386 686 293 686 q 596 599 521 686 q 671 358 671 511 l 671 319 l 153 319 q 222 127 157 194 q 401 60 286 60 q 519 79 464 60 q 626 144 574 99 l 660 81 q 546 13 615 38 q 404 -11 476 -11 m 388 618 q 223 552 282 618 q 154 382 164 486 l 594 382 q 539 556 592 493 q 388 618 486 618 m 356 911 l 483 1114 l 581 1114 l 419 911 l 356 911 m 188 796 l 188 860 l 588 860 l 588 796 l 188 796 z "},"ḕ":{"ha":732,"x_min":69,"x_max":671,"o":"m 404 -11 q 159 81 249 -11 q 69 335 69 174 q 110 518 69 439 q 222 642 150 597 q 386 686 293 686 q 596 599 521 686 q 671 358 671 511 l 671 319 l 153 319 q 222 127 157 194 q 401 60 286 60 q 519 79 464 60 q 626 144 574 99 l 660 81 q 546 13 615 38 q 404 -11 476 -11 m 388 618 q 223 552 282 618 q 154 382 164 486 l 594 382 q 539 556 592 493 q 388 618 486 618 m 356 911 l 196 1114 l 292 1114 l 419 911 l 356 911 m 188 796 l 188 860 l 588 860 l 588 796 l 188 796 z "},"ę":{"ha":732,"x_min":69,"x_max":671,"o":"m 404 -11 q 159 81 249 -11 q 69 335 69 174 q 110 518 69 439 q 222 642 150 597 q 386 686 293 686 q 596 599 521 686 q 671 358 671 511 l 671 319 l 153 319 q 222 127 157 194 q 401 60 286 60 q 519 79 464 60 q 626 144 574 99 l 660 81 q 546 13 615 38 q 404 -11 476 -11 m 388 618 q 223 552 282 618 q 154 382 164 486 l 594 382 q 539 556 592 493 q 388 618 486 618 m 460 -265 q 360 -230 399 -265 q 322 -133 322 -194 q 356 -32 322 -81 q 450 47 390 17 l 485 0 q 421 -47 453 -14 q 389 -125 389 -79 q 413 -186 389 -167 q 471 -206 436 -206 q 544 -189 506 -206 l 564 -242 q 460 -265 525 -265 z "},"ẽ":{"ha":732,"x_min":69,"x_max":671,"o":"m 404 -11 q 159 81 249 -11 q 69 335 69 174 q 110 518 69 439 q 222 642 150 597 q 386 686 293 686 q 596 599 521 686 q 671 358 671 511 l 671 319 l 153 319 q 222 127 157 194 q 401 60 286 60 q 519 79 464 60 q 626 144 574 99 l 660 81 q 546 13 615 38 q 404 -11 476 -11 m 388 618 q 223 552 282 618 q 154 382 164 486 l 594 382 q 539 556 592 493 q 388 618 486 618 m 200 822 l 146 826 q 191 956 154 910 q 288 1003 228 1003 q 342 988 317 1003 q 401 940 368 972 q 451 901 432 913 q 488 890 469 890 q 575 1007 558 890 l 629 1003 q 584 873 621 919 q 489 826 547 826 q 435 841 461 826 q 374 889 410 856 q 326 927 344 915 q 288 939 307 939 q 200 822 217 939 z "},"ə":{"ha":733,"x_min":63,"x_max":664,"o":"m 354 -11 q 139 75 215 -11 q 63 319 63 161 l 63 354 l 581 354 q 510 547 575 479 q 332 614 446 614 q 106 531 211 614 l 74 593 q 189 661 119 636 q 331 686 258 686 q 574 593 485 686 q 664 340 664 500 q 625 154 664 233 q 516 32 586 75 q 354 -11 446 -11 m 354 56 q 509 117 449 56 q 579 292 569 179 l 142 292 q 199 116 146 176 q 354 56 253 56 z "},"ʒ":{"ha":674,"x_min":28,"x_max":628,"o":"m 314 -261 q 150 -239 224 -261 q 28 -176 76 -217 l 61 -112 q 310 -190 158 -190 q 483 -135 425 -190 q 542 26 542 -79 q 485 169 542 118 q 324 221 428 221 l 176 221 l 176 264 l 479 603 l 51 603 l 51 674 l 585 674 l 585 615 l 292 288 l 336 288 q 551 219 474 288 q 628 28 628 151 q 544 -184 628 -107 q 314 -261 461 -261 z "},"ǯ":{"ha":674,"x_min":28,"x_max":628,"o":"m 314 -261 q 150 -239 224 -261 q 28 -176 76 -217 l 61 -112 q 310 -190 158 -190 q 483 -135 425 -190 q 542 26 542 -79 q 485 169 542 118 q 324 221 428 221 l 176 221 l 176 264 l 479 603 l 51 603 l 51 674 l 585 674 l 585 615 l 292 288 l 336 288 q 551 219 474 288 q 628 28 628 151 q 544 -184 628 -107 q 314 -261 461 -261 m 275 764 l 124 1043 l 186 1043 l 318 828 l 450 1043 l 513 1043 l 361 764 l 275 764 z "},"f":{"ha":443,"x_min":10,"x_max":458,"o":"m 143 0 l 143 606 l 10 606 l 10 674 l 143 674 l 143 707 q 403 979 143 964 l 451 983 l 458 914 l 394 910 q 268 856 308 904 q 228 714 228 807 l 228 674 l 426 674 l 426 606 l 228 606 l 228 0 l 143 0 z "},"g":{"ha":803,"x_min":69,"x_max":690,"o":"m 404 -261 q 111 -168 228 -261 l 143 -104 q 267 -170 207 -150 q 401 -190 326 -190 q 556 -135 503 -190 q 608 26 608 -79 l 608 157 q 516 53 579 90 q 372 15 453 15 q 210 58 278 15 q 106 176 143 100 q 69 351 69 251 q 106 526 69 451 q 210 644 143 601 q 372 686 278 686 q 515 649 453 686 q 607 546 578 611 l 607 674 l 690 674 l 690 39 q 404 -261 690 -261 m 382 88 q 547 159 486 88 q 608 351 608 231 q 547 543 608 472 q 382 614 486 614 q 216 543 276 614 q 156 351 156 472 q 216 159 156 231 q 382 88 276 88 z "},"ğ":{"ha":803,"x_min":69,"x_max":690,"o":"m 404 -261 q 111 -168 228 -261 l 143 -104 q 267 -170 207 -150 q 401 -190 326 -190 q 556 -135 503 -190 q 608 26 608 -79 l 608 157 q 516 53 579 90 q 372 15 453 15 q 210 58 278 15 q 106 176 143 100 q 69 351 69 251 q 106 526 69 451 q 210 644 143 601 q 372 686 278 686 q 515 649 453 686 q 607 546 578 611 l 607 674 l 690 674 l 690 39 q 404 -261 690 -261 m 382 88 q 547 159 486 88 q 608 351 608 231 q 547 543 608 472 q 382 614 486 614 q 216 543 276 614 q 156 351 156 472 q 216 159 156 231 q 382 88 276 88 m 404 761 q 259 831 314 761 q 197 1022 204 900 l 256 1029 q 299 877 260 931 q 404 824 338 824 q 510 877 471 824 q 553 1029 549 931 l 611 1022 q 549 831 604 900 q 404 761 494 761 z "},"ǧ":{"ha":803,"x_min":69,"x_max":690,"o":"m 404 -261 q 111 -168 228 -261 l 143 -104 q 267 -170 207 -150 q 401 -190 326 -190 q 556 -135 503 -190 q 608 26 608 -79 l 608 157 q 516 53 579 90 q 372 15 453 15 q 210 58 278 15 q 106 176 143 100 q 69 351 69 251 q 106 526 69 451 q 210 644 143 601 q 372 686 278 686 q 515 649 453 686 q 607 546 578 611 l 607 674 l 690 674 l 690 39 q 404 -261 690 -261 m 382 88 q 547 159 486 88 q 608 351 608 231 q 547 543 608 472 q 382 614 486 614 q 216 543 276 614 q 156 351 156 472 q 216 159 156 231 q 382 88 276 88 m 361 764 l 210 1043 l 272 1043 l 404 828 l 536 1043 l 599 1043 l 447 764 l 361 764 z "},"ĝ":{"ha":803,"x_min":69,"x_max":690,"o":"m 404 -261 q 111 -168 228 -261 l 143 -104 q 267 -170 207 -150 q 401 -190 326 -190 q 556 -135 503 -190 q 608 26 608 -79 l 608 157 q 516 53 579 90 q 372 15 453 15 q 210 58 278 15 q 106 176 143 100 q 69 351 69 251 q 106 526 69 451 q 210 644 143 601 q 372 686 278 686 q 515 649 453 686 q 607 546 578 611 l 607 674 l 690 674 l 690 39 q 404 -261 690 -261 m 382 88 q 547 159 486 88 q 608 351 608 231 q 547 543 608 472 q 382 614 486 614 q 216 543 276 614 q 156 351 156 472 q 216 159 156 231 q 382 88 276 88 m 210 764 l 361 1043 l 447 1043 l 599 764 l 536 764 l 404 979 l 272 764 l 210 764 z "},"ģ":{"ha":803,"x_min":69,"x_max":690,"o":"m 404 -261 q 111 -168 228 -261 l 143 -104 q 267 -170 207 -150 q 401 -190 326 -190 q 556 -135 503 -190 q 608 26 608 -79 l 608 157 q 516 53 579 90 q 372 15 453 15 q 210 58 278 15 q 106 176 143 100 q 69 351 69 251 q 106 526 69 451 q 210 644 143 601 q 372 686 278 686 q 515 649 453 686 q 607 546 578 611 l 607 674 l 690 674 l 690 39 q 404 -261 690 -261 m 382 88 q 547 159 486 88 q 608 351 608 231 q 547 543 608 472 q 382 614 486 614 q 216 543 276 614 q 156 351 156 472 q 216 159 156 231 q 382 88 276 88 m 346 790 l 346 869 q 363 962 346 918 q 414 1040 379 1006 l 457 1008 q 417 949 428 976 q 404 892 406 922 l 463 892 l 463 790 l 346 790 z "},"ġ":{"ha":803,"x_min":69,"x_max":690,"o":"m 404 -261 q 111 -168 228 -261 l 143 -104 q 267 -170 207 -150 q 401 -190 326 -190 q 556 -135 503 -190 q 608 26 608 -79 l 608 157 q 516 53 579 90 q 372 15 453 15 q 210 58 278 15 q 106 176 143 100 q 69 351 69 251 q 106 526 69 451 q 210 644 143 601 q 372 686 278 686 q 515 649 453 686 q 607 546 578 611 l 607 674 l 690 674 l 690 39 q 404 -261 690 -261 m 382 88 q 547 159 486 88 q 608 351 608 231 q 547 543 608 472 q 382 614 486 614 q 216 543 276 614 q 156 351 156 472 q 216 159 156 231 q 382 88 276 88 m 350 853 l 350 957 l 458 957 l 458 853 l 350 853 z "},"ḡ":{"ha":803,"x_min":69,"x_max":690,"o":"m 404 -261 q 111 -168 228 -261 l 143 -104 q 267 -170 207 -150 q 401 -190 326 -190 q 556 -135 503 -190 q 608 26 608 -79 l 608 157 q 516 53 579 90 q 372 15 453 15 q 210 58 278 15 q 106 176 143 100 q 69 351 69 251 q 106 526 69 451 q 210 644 143 601 q 372 686 278 686 q 515 649 453 686 q 607 546 578 611 l 607 674 l 690 674 l 690 39 q 404 -261 690 -261 m 382 88 q 547 159 486 88 q 608 351 608 231 q 547 543 608 472 q 382 614 486 614 q 216 543 276 614 q 156 351 156 472 q 216 159 156 231 q 382 88 276 88 m 204 874 l 204 938 l 604 938 l 604 874 l 204 874 z "},"ǥ":{"ha":803,"x_min":69,"x_max":789,"o":"m 404 -261 q 111 -168 228 -261 l 143 -104 q 267 -169 207 -150 q 401 -189 326 -189 q 586 -86 540 -189 l 429 -86 l 429 -22 l 604 -22 q 608 26 608 1 l 608 185 q 518 83 579 119 q 372 47 457 47 q 213 88 282 47 q 107 200 144 128 q 69 367 69 272 q 107 533 69 461 q 213 645 144 604 q 372 686 282 686 q 517 651 456 686 q 607 550 578 615 l 607 674 l 690 674 l 690 39 q 688 -22 690 8 l 789 -22 l 789 -86 l 674 -86 q 404 -261 621 -261 m 382 119 q 547 186 486 119 q 607 367 607 253 q 547 547 607 481 q 382 614 486 614 q 217 548 278 614 q 156 367 156 482 q 217 185 156 251 q 382 119 278 119 z "},"h":{"ha":778,"x_min":111,"x_max":669,"o":"m 111 0 l 111 979 l 196 979 l 196 557 q 292 653 231 621 q 429 686 354 686 q 669 425 669 686 l 669 0 l 585 0 l 585 418 q 544 565 585 518 q 417 613 504 613 q 256 551 317 613 q 196 385 196 489 l 196 0 l 111 0 z "},"ħ":{"ha":778,"x_min":-18,"x_max":669,"o":"m 111 0 l 111 775 l -18 775 l -18 842 l 111 842 l 111 979 l 196 979 l 196 842 l 468 842 l 468 775 l 196 775 l 196 557 q 292 653 231 621 q 429 686 354 686 q 669 425 669 686 l 669 0 l 585 0 l 585 418 q 544 565 585 518 q 417 613 504 613 q 256 551 317 613 q 196 385 196 489 l 196 0 l 111 0 z "},"ḫ":{"ha":778,"x_min":111,"x_max":669,"o":"m 111 0 l 111 979 l 196 979 l 196 557 q 292 653 231 621 q 429 686 354 686 q 669 425 669 686 l 669 0 l 585 0 l 585 418 q 544 565 585 518 q 417 613 504 613 q 256 551 317 613 q 196 385 196 489 l 196 0 l 111 0 m 390 -299 q 245 -244 300 -299 q 183 -93 190 -189 l 242 -86 q 285 -197 246 -157 q 390 -236 324 -236 q 496 -197 457 -236 q 539 -86 535 -157 l 597 -93 q 535 -244 590 -189 q 390 -299 481 -299 z "},"ȟ":{"ha":778,"x_min":111,"x_max":669,"o":"m 111 0 l 111 979 l 196 979 l 196 557 q 292 653 231 621 q 429 686 354 686 q 669 425 669 686 l 669 0 l 585 0 l 585 418 q 544 565 585 518 q 417 613 504 613 q 256 551 317 613 q 196 385 196 489 l 196 0 l 111 0 m 349 1063 l 179 1300 l 247 1300 l 392 1125 l 536 1300 l 604 1300 l 435 1063 l 349 1063 z "},"ĥ":{"ha":778,"x_min":111,"x_max":669,"o":"m 111 0 l 111 979 l 196 979 l 196 557 q 292 653 231 621 q 429 686 354 686 q 669 425 669 686 l 669 0 l 585 0 l 585 418 q 544 565 585 518 q 417 613 504 613 q 256 551 317 613 q 196 385 196 489 l 196 0 l 111 0 m 179 1063 l 349 1300 l 435 1300 l 604 1063 l 536 1063 l 392 1238 l 247 1063 l 179 1063 z "},"ḥ":{"ha":778,"x_min":111,"x_max":669,"o":"m 111 0 l 111 979 l 196 979 l 196 557 q 292 653 231 621 q 429 686 354 686 q 669 425 669 686 l 669 0 l 585 0 l 585 418 q 544 565 585 518 q 417 613 504 613 q 256 551 317 613 q 196 385 196 489 l 196 0 l 111 0 m 336 -249 l 336 -144 l 444 -144 l 444 -249 l 336 -249 z "},"i":{"ha":308,"x_min":97,"x_max":211,"o":"m 97 851 l 97 958 l 211 958 l 211 851 l 97 851 m 111 0 l 111 674 l 196 674 l 196 0 l 111 0 z "},"ı":{"ha":308,"x_min":111,"x_max":196,"o":"m 111 0 l 111 674 l 196 674 l 196 0 l 111 0 z "},"í":{"ha":308,"x_min":111,"x_max":363,"o":"m 111 0 l 111 674 l 196 674 l 196 0 l 111 0 m 122 764 l 265 1043 l 363 1043 l 186 764 l 122 764 z "},"ĭ":{"ha":308,"x_min":-53,"x_max":361,"o":"m 111 0 l 111 674 l 196 674 l 196 0 l 111 0 m 154 761 q 9 831 64 761 q -53 1022 -46 900 l 6 1029 q 49 877 10 931 q 154 824 88 824 q 260 877 221 824 q 303 1029 299 931 l 361 1022 q 299 831 354 900 q 154 761 244 761 z "},"î":{"ha":308,"x_min":-40,"x_max":349,"o":"m 111 0 l 111 674 l 196 674 l 196 0 l 111 0 m -40 764 l 111 1043 l 197 1043 l 349 764 l 286 764 l 154 979 l 22 764 l -40 764 z "},"ȉ":{"ha":308,"x_min":-65,"x_max":261,"o":"m 111 0 l 111 674 l 196 674 l 196 0 l 111 0 m 211 764 l 99 1043 l 183 1043 l 261 764 l 211 764 m 49 764 l -65 1043 l 19 1043 l 97 764 l 49 764 z "},"ï":{"ha":308,"x_min":-12,"x_max":321,"o":"m 111 0 l 111 674 l 196 674 l 196 0 l 111 0 m 219 854 l 219 954 l 321 954 l 321 854 l 219 854 m -12 854 l -12 954 l 89 954 l 89 854 l -12 854 z "},"ḯ":{"ha":308,"x_min":-12,"x_max":347,"o":"m 111 0 l 111 674 l 196 674 l 196 0 l 111 0 m 122 911 l 250 1114 l 347 1114 l 186 911 l 122 911 m -12 765 l -12 857 l 89 857 l 89 765 l -12 765 m 219 765 l 219 857 l 321 857 l 321 765 l 219 765 z "},"ị":{"ha":308,"x_min":97,"x_max":211,"o":"m 97 851 l 97 958 l 211 958 l 211 851 l 97 851 m 111 0 l 111 674 l 196 674 l 196 0 l 111 0 m 99 -249 l 99 -144 l 207 -144 l 207 -249 l 99 -249 z "},"ì":{"ha":308,"x_min":-54,"x_max":196,"o":"m 111 0 l 111 674 l 196 674 l 196 0 l 111 0 m 122 764 l -54 1043 l 43 1043 l 186 764 l 122 764 z "},"ỉ":{"ha":308,"x_min":40,"x_max":288,"o":"m 111 0 l 111 674 l 196 674 l 196 0 l 111 0 m 122 764 l 122 792 q 136 847 122 825 q 168 883 150 868 q 200 914 186 899 q 214 951 214 929 q 144 992 214 992 q 103 987 124 992 q 57 971 82 982 l 40 1022 q 158 1051 86 1051 q 253 1027 219 1051 q 288 958 288 1003 q 272 903 288 924 q 237 867 257 882 q 201 833 217 851 q 186 785 186 815 l 186 764 l 122 764 z "},"ȋ":{"ha":308,"x_min":-53,"x_max":361,"o":"m 111 0 l 111 674 l 196 674 l 196 0 l 111 0 m 6 761 l -53 767 q 9 959 -46 889 q 154 1029 64 1029 q 299 959 244 1029 q 361 767 354 889 l 303 761 q 260 913 299 860 q 154 967 221 967 q 49 913 88 967 q 6 761 10 860 z "},"ī":{"ha":308,"x_min":-46,"x_max":354,"o":"m 111 0 l 111 674 l 196 674 l 196 0 l 111 0 m -46 874 l -46 938 l 354 938 l 354 874 l -46 874 z "},"į":{"ha":308,"x_min":25,"x_max":267,"o":"m 111 0 l 111 674 l 196 674 l 196 0 l 111 0 m 97 851 l 97 958 l 211 958 l 211 851 l 97 851 m 163 -265 q 63 -230 101 -265 q 25 -133 25 -194 q 59 -32 25 -81 q 153 47 93 17 l 188 0 q 124 -47 156 -14 q 92 -125 92 -79 q 115 -186 92 -167 q 174 -206 139 -206 q 247 -189 208 -206 l 267 -242 q 163 -265 228 -265 z "},"ĩ":{"ha":308,"x_min":-87,"x_max":396,"o":"m 111 0 l 111 674 l 196 674 l 196 0 l 111 0 m -33 822 l -87 826 q -42 956 -79 910 q 54 1003 -6 1003 q 109 988 83 1003 q 168 940 135 972 q 217 901 199 913 q 254 890 236 890 q 342 1007 325 890 l 396 1003 q 351 873 388 919 q 256 826 314 826 q 202 841 228 826 q 140 889 176 856 q 92 927 111 915 q 54 939 74 939 q -33 822 -17 939 z "},"j":{"ha":313,"x_min":-79,"x_max":215,"o":"m 101 851 l 101 958 l 215 958 l 215 851 l 101 851 m -74 -268 l -79 -199 l -21 -193 q 117 -26 117 -182 l 117 674 l 201 674 l 201 -19 q -14 -264 201 -250 l -74 -268 z "},"ȷ":{"ha":313,"x_min":-79,"x_max":201,"o":"m -74 -268 l -79 -199 l -21 -193 q 117 -26 117 -182 l 117 674 l 201 674 l 201 -19 q -14 -264 201 -250 l -74 -268 z "},"ĵ":{"ha":313,"x_min":-79,"x_max":353,"o":"m -74 -268 l -79 -199 l -21 -193 q 117 -26 117 -182 l 117 674 l 201 674 l 201 -19 q -14 -264 201 -250 l -74 -268 m -36 764 l 115 1043 l 201 1043 l 353 764 l 290 764 l 158 979 l 26 764 l -36 764 z "},"k":{"ha":672,"x_min":111,"x_max":676,"o":"m 111 0 l 111 979 l 196 979 l 196 368 l 199 368 l 531 674 l 643 674 l 289 349 l 676 0 l 564 0 l 199 324 l 196 324 l 196 0 l 111 0 z "},"ǩ":{"ha":672,"x_min":111,"x_max":676,"o":"m 111 0 l 111 979 l 196 979 l 196 368 l 199 368 l 531 674 l 643 674 l 289 349 l 676 0 l 564 0 l 199 324 l 196 324 l 196 0 l 111 0 m 349 1063 l 179 1300 l 247 1300 l 392 1125 l 536 1300 l 604 1300 l 435 1063 l 349 1063 z "},"ķ":{"ha":672,"x_min":111,"x_max":676,"o":"m 111 0 l 111 979 l 196 979 l 196 368 l 199 368 l 531 674 l 643 674 l 289 349 l 676 0 l 564 0 l 199 324 l 196 324 l 196 0 l 111 0 m 326 -365 l 283 -335 q 324 -275 313 -303 q 336 -217 335 -247 l 278 -217 l 278 -115 l 394 -115 l 394 -194 q 378 -287 394 -243 q 326 -365 361 -331 z "},"ĸ":{"ha":672,"x_min":111,"x_max":676,"o":"m 111 0 l 111 674 l 196 674 l 196 368 l 199 368 l 531 674 l 643 674 l 289 349 l 676 0 l 564 0 l 199 324 l 196 324 l 196 0 l 111 0 z "},"l":{"ha":396,"x_min":111,"x_max":385,"o":"m 307 -11 q 162 47 213 -11 q 111 213 111 104 l 111 979 l 196 979 l 196 222 q 321 63 196 63 q 385 71 356 63 l 382 -3 q 307 -11 342 -11 z "},"ĺ":{"ha":396,"x_min":111,"x_max":385,"o":"m 307 -11 q 162 47 213 -11 q 111 213 111 104 l 111 979 l 196 979 l 196 222 q 321 63 196 63 q 385 71 356 63 l 382 -3 q 307 -11 342 -11 m 119 1063 l 283 1300 l 385 1300 l 189 1063 l 119 1063 z "},"ľ":{"ha":396,"x_min":111,"x_max":385,"o":"m 307 -11 q 162 47 213 -11 q 111 213 111 104 l 111 979 l 196 979 l 196 222 q 321 63 196 63 q 385 71 356 63 l 382 -3 q 307 -11 342 -11 m 263 717 l 263 979 l 342 979 l 310 717 l 263 717 z "},"ļ":{"ha":396,"x_min":111,"x_max":385,"o":"m 307 -11 q 162 47 213 -11 q 111 213 111 104 l 111 979 l 196 979 l 196 222 q 321 63 196 63 q 385 71 356 63 l 382 -3 q 307 -11 342 -11 m 246 -365 l 203 -335 q 243 -275 232 -303 q 256 -217 254 -247 l 197 -217 l 197 -115 l 314 -115 l 314 -194 q 297 -287 314 -243 q 246 -365 281 -331 z "},"ŀ":{"ha":413,"x_min":111,"x_max":417,"o":"m 307 -11 q 162 47 213 -11 q 111 213 111 104 l 111 979 l 196 979 l 196 222 q 321 63 196 63 q 385 71 356 63 l 382 -3 q 307 -11 342 -11 m 300 439 l 300 551 l 417 551 l 417 439 l 300 439 z "},"ḷ":{"ha":396,"x_min":111,"x_max":385,"o":"m 307 -11 q 162 47 213 -11 q 111 213 111 104 l 111 979 l 196 979 l 196 222 q 321 63 196 63 q 385 71 356 63 l 382 -3 q 307 -11 342 -11 m 201 -249 l 201 -144 l 310 -144 l 310 -249 l 201 -249 z "},"ǉ":{"ha":708,"x_min":111,"x_max":611,"o":"m 307 -11 q 162 47 213 -11 q 111 213 111 104 l 111 979 l 196 979 l 196 222 q 321 63 196 63 q 385 71 356 63 l 382 -3 q 307 -11 342 -11 m 497 851 l 497 958 l 611 958 l 611 851 l 497 851 m 322 -268 l 317 -199 l 375 -193 q 513 -26 513 -182 l 513 674 l 597 674 l 597 -19 q 382 -264 597 -250 l 322 -268 z "},"ḻ":{"ha":396,"x_min":56,"x_max":456,"o":"m 307 -11 q 162 47 213 -11 q 111 213 111 104 l 111 979 l 196 979 l 196 222 q 321 63 196 63 q 385 71 356 63 l 382 -3 q 307 -11 342 -11 m 56 -211 l 56 -147 l 456 -147 l 456 -211 l 56 -211 z "},"ł":{"ha":396,"x_min":-21,"x_max":385,"o":"m 307 -11 q 162 47 213 -11 q 111 213 111 104 l 111 979 l 196 979 l 196 222 q 321 63 196 63 q 385 71 356 63 l 382 -3 q 307 -11 342 -11 m 17 365 l -21 428 l 319 626 l 357 564 l 17 365 z "},"m":{"ha":1176,"x_min":114,"x_max":1065,"o":"m 114 0 l 114 674 l 197 674 l 197 556 q 410 686 260 686 q 614 546 571 686 q 703 649 643 611 q 842 686 763 686 q 1065 425 1065 686 l 1065 0 l 981 0 l 981 418 q 945 565 981 518 q 826 613 910 613 q 685 551 738 613 q 632 383 632 489 l 632 0 l 547 0 l 547 418 q 512 565 547 518 q 394 613 476 613 q 251 551 304 613 q 199 383 199 489 l 199 0 l 114 0 z "},"ṃ":{"ha":1176,"x_min":114,"x_max":1065,"o":"m 114 0 l 114 674 l 197 674 l 197 556 q 410 686 260 686 q 614 546 571 686 q 703 649 643 611 q 842 686 763 686 q 1065 425 1065 686 l 1065 0 l 981 0 l 981 418 q 945 565 981 518 q 826 613 910 613 q 685 551 738 613 q 632 383 632 489 l 632 0 l 547 0 l 547 418 q 512 565 547 518 q 394 613 476 613 q 251 551 304 613 q 199 383 199 489 l 199 0 l 114 0 m 536 -249 l 536 -144 l 644 -144 l 644 -249 l 536 -249 z "},"n":{"ha":778,"x_min":111,"x_max":669,"o":"m 111 0 l 111 674 l 194 674 l 194 553 q 290 653 228 619 q 429 686 353 686 q 669 425 669 686 l 669 0 l 585 0 l 585 418 q 544 565 585 518 q 417 613 504 613 q 256 551 317 613 q 196 385 196 489 l 196 0 l 111 0 z "},"ń":{"ha":778,"x_min":111,"x_max":669,"o":"m 111 0 l 111 674 l 194 674 l 194 553 q 290 653 228 619 q 429 686 353 686 q 669 425 669 686 l 669 0 l 585 0 l 585 418 q 544 565 585 518 q 417 613 504 613 q 256 551 317 613 q 196 385 196 489 l 196 0 l 111 0 m 358 764 l 501 1043 l 599 1043 l 422 764 l 358 764 z "},"ŉ":{"ha":778,"x_min":-10,"x_max":669,"o":"m 40 796 l -3 828 q 33 882 24 857 q 44 932 43 907 l -10 932 l -10 1040 l 106 1040 l 106 960 q 92 873 106 914 q 40 796 78 832 m 111 0 l 111 674 l 194 674 l 194 553 q 290 653 228 619 q 429 686 353 686 q 669 425 669 686 l 669 0 l 585 0 l 585 418 q 544 565 585 518 q 417 613 504 613 q 256 551 317 613 q 196 385 196 489 l 196 0 l 111 0 z "},"ň":{"ha":778,"x_min":111,"x_max":669,"o":"m 111 0 l 111 674 l 194 674 l 194 553 q 290 653 228 619 q 429 686 353 686 q 669 425 669 686 l 669 0 l 585 0 l 585 418 q 544 565 585 518 q 417 613 504 613 q 256 551 317 613 q 196 385 196 489 l 196 0 l 111 0 m 347 764 l 196 1043 l 258 1043 l 390 828 l 522 1043 l 585 1043 l 433 764 l 347 764 z "},"ņ":{"ha":778,"x_min":111,"x_max":669,"o":"m 111 0 l 111 674 l 194 674 l 194 553 q 290 653 228 619 q 429 686 353 686 q 669 425 669 686 l 669 0 l 585 0 l 585 418 q 544 565 585 518 q 417 613 504 613 q 256 551 317 613 q 196 385 196 489 l 196 0 l 111 0 m 381 -365 l 338 -335 q 378 -275 367 -303 q 390 -217 389 -247 l 332 -217 l 332 -115 l 449 -115 l 449 -194 q 432 -287 449 -243 q 381 -365 415 -331 z "},"ṅ":{"ha":778,"x_min":111,"x_max":669,"o":"m 111 0 l 111 674 l 194 674 l 194 553 q 290 653 228 619 q 429 686 353 686 q 669 425 669 686 l 669 0 l 585 0 l 585 418 q 544 565 585 518 q 417 613 504 613 q 256 551 317 613 q 196 385 196 489 l 196 0 l 111 0 m 336 853 l 336 957 l 444 957 l 444 853 l 336 853 z "},"ṇ":{"ha":778,"x_min":111,"x_max":669,"o":"m 111 0 l 111 674 l 194 674 l 194 553 q 290 653 228 619 q 429 686 353 686 q 669 425 669 686 l 669 0 l 585 0 l 585 418 q 544 565 585 518 q 417 613 504 613 q 256 551 317 613 q 196 385 196 489 l 196 0 l 111 0 m 336 -249 l 336 -144 l 444 -144 l 444 -249 l 336 -249 z "},"ŋ":{"ha":778,"x_min":111,"x_max":669,"o":"m 396 -268 l 390 -199 l 449 -193 q 585 -26 585 -182 l 585 418 q 544 565 585 518 q 417 613 504 613 q 256 551 317 613 q 196 385 196 489 l 196 0 l 111 0 l 111 674 l 194 674 l 194 553 q 290 653 228 619 q 429 686 353 686 q 669 425 669 686 l 669 -19 q 456 -264 669 -249 l 396 -268 z "},"ǌ":{"ha":1090,"x_min":111,"x_max":993,"o":"m 111 0 l 111 674 l 194 674 l 194 553 q 290 653 228 619 q 429 686 353 686 q 669 425 669 686 l 669 0 l 585 0 l 585 418 q 544 565 585 518 q 417 613 504 613 q 256 551 317 613 q 196 385 196 489 l 196 0 l 111 0 m 879 851 l 879 958 l 993 958 l 993 851 l 879 851 m 704 -268 l 699 -199 l 757 -193 q 894 -26 894 -182 l 894 674 l 979 674 l 979 -19 q 764 -264 979 -250 l 704 -268 z "},"ṉ":{"ha":778,"x_min":111,"x_max":669,"o":"m 111 0 l 111 674 l 194 674 l 194 553 q 290 653 228 619 q 429 686 353 686 q 669 425 669 686 l 669 0 l 585 0 l 585 418 q 544 565 585 518 q 417 613 504 613 q 256 551 317 613 q 196 385 196 489 l 196 0 l 111 0 m 190 -211 l 190 -147 l 590 -147 l 590 -211 l 190 -211 z "},"ñ":{"ha":778,"x_min":111,"x_max":669,"o":"m 111 0 l 111 674 l 194 674 l 194 553 q 290 653 228 619 q 429 686 353 686 q 669 425 669 686 l 669 0 l 585 0 l 585 418 q 544 565 585 518 q 417 613 504 613 q 256 551 317 613 q 196 385 196 489 l 196 0 l 111 0 m 203 822 l 149 826 q 194 956 157 910 q 290 1003 231 1003 q 345 988 319 1003 q 404 940 371 972 q 453 901 435 913 q 490 890 472 890 q 578 1007 561 890 l 632 1003 q 587 873 624 919 q 492 826 550 826 q 438 841 464 826 q 376 889 413 856 q 328 927 347 915 q 290 939 310 939 q 203 822 219 939 z "},"o":{"ha":760,"x_min":69,"x_max":690,"o":"m 379 -11 q 215 31 285 -11 q 108 152 146 74 q 69 338 69 231 q 108 522 69 443 q 215 643 146 600 q 379 686 285 686 q 544 643 475 686 q 652 522 614 600 q 690 338 690 443 q 652 152 690 231 q 544 31 614 74 q 379 -11 475 -11 m 379 60 q 543 133 482 60 q 604 338 604 206 q 543 542 604 469 q 379 614 482 614 q 216 542 276 614 q 156 338 156 469 q 216 133 156 206 q 379 60 276 60 z "},"ó":{"ha":760,"x_min":69,"x_max":690,"o":"m 379 -11 q 215 31 285 -11 q 108 152 146 74 q 69 338 69 231 q 108 522 69 443 q 215 643 146 600 q 379 686 285 686 q 544 643 475 686 q 652 522 614 600 q 690 338 690 443 q 652 152 690 231 q 544 31 614 74 q 379 -11 475 -11 m 379 60 q 543 133 482 60 q 604 338 604 206 q 543 542 604 469 q 379 614 482 614 q 216 542 276 614 q 156 338 156 469 q 216 133 156 206 q 379 60 276 60 m 347 764 l 490 1043 l 588 1043 l 411 764 l 347 764 z "},"ŏ":{"ha":760,"x_min":69,"x_max":690,"o":"m 379 -11 q 215 31 285 -11 q 108 152 146 74 q 69 338 69 231 q 108 522 69 443 q 215 643 146 600 q 379 686 285 686 q 544 643 475 686 q 652 522 614 600 q 690 338 690 443 q 652 152 690 231 q 544 31 614 74 q 379 -11 475 -11 m 379 60 q 543 133 482 60 q 604 338 604 206 q 543 542 604 469 q 379 614 482 614 q 216 542 276 614 q 156 338 156 469 q 216 133 156 206 q 379 60 276 60 m 379 761 q 234 831 289 761 q 172 1022 179 900 l 231 1029 q 274 877 235 931 q 379 824 313 824 q 485 877 446 824 q 528 1029 524 931 l 586 1022 q 524 831 579 900 q 379 761 469 761 z "},"ô":{"ha":760,"x_min":69,"x_max":690,"o":"m 379 -11 q 215 31 285 -11 q 108 152 146 74 q 69 338 69 231 q 108 522 69 443 q 215 643 146 600 q 379 686 285 686 q 544 643 475 686 q 652 522 614 600 q 690 338 690 443 q 652 152 690 231 q 544 31 614 74 q 379 -11 475 -11 m 379 60 q 543 133 482 60 q 604 338 604 206 q 543 542 604 469 q 379 614 482 614 q 216 542 276 614 q 156 338 156 469 q 216 133 156 206 q 379 60 276 60 m 185 764 l 336 1043 l 422 1043 l 574 764 l 511 764 l 379 979 l 247 764 l 185 764 z "},"ố":{"ha":760,"x_min":69,"x_max":713,"o":"m 379 -11 q 215 31 285 -11 q 108 152 146 74 q 69 338 69 231 q 108 522 69 443 q 215 643 146 600 q 379 686 285 686 q 544 643 475 686 q 652 522 614 600 q 690 338 690 443 q 652 152 690 231 q 544 31 614 74 q 379 -11 475 -11 m 379 60 q 543 133 482 60 q 604 338 604 206 q 543 542 604 469 q 379 614 482 614 q 216 542 276 614 q 156 338 156 469 q 216 133 156 206 q 379 60 276 60 m 500 906 l 621 1114 l 713 1114 l 561 906 l 500 906 m 185 764 l 336 988 l 422 988 l 574 764 l 513 764 l 379 926 l 246 764 l 185 764 z "},"ộ":{"ha":760,"x_min":69,"x_max":690,"o":"m 379 -11 q 215 31 285 -11 q 108 152 146 74 q 69 338 69 231 q 108 522 69 443 q 215 643 146 600 q 379 686 285 686 q 544 643 475 686 q 652 522 614 600 q 690 338 690 443 q 652 152 690 231 q 544 31 614 74 q 379 -11 475 -11 m 379 60 q 543 133 482 60 q 604 338 604 206 q 543 542 604 469 q 379 614 482 614 q 216 542 276 614 q 156 338 156 469 q 216 133 156 206 q 379 60 276 60 m 325 -249 l 325 -144 l 433 -144 l 433 -249 l 325 -249 m 185 764 l 336 1043 l 422 1043 l 574 764 l 511 764 l 379 979 l 247 764 l 185 764 z "},"ồ":{"ha":760,"x_min":69,"x_max":690,"o":"m 379 -11 q 215 31 285 -11 q 108 152 146 74 q 69 338 69 231 q 108 522 69 443 q 215 643 146 600 q 379 686 285 686 q 544 643 475 686 q 652 522 614 600 q 690 338 690 443 q 652 152 690 231 q 544 31 614 74 q 379 -11 475 -11 m 379 60 q 543 133 482 60 q 604 338 604 206 q 543 542 604 469 q 379 614 482 614 q 216 542 276 614 q 156 338 156 469 q 216 133 156 206 q 379 60 276 60 m 557 906 l 406 1114 l 497 1114 l 618 906 l 557 906 m 185 764 l 336 988 l 422 988 l 574 764 l 513 764 l 379 926 l 246 764 l 185 764 z "},"ổ":{"ha":760,"x_min":69,"x_max":690,"o":"m 379 -11 q 215 31 285 -11 q 108 152 146 74 q 69 338 69 231 q 108 522 69 443 q 215 643 146 600 q 379 686 285 686 q 544 643 475 686 q 652 522 614 600 q 690 338 690 443 q 652 152 690 231 q 544 31 614 74 q 379 -11 475 -11 m 379 60 q 543 133 482 60 q 604 338 604 206 q 543 542 604 469 q 379 614 482 614 q 216 542 276 614 q 156 338 156 469 q 216 133 156 206 q 379 60 276 60 m 514 906 q 527 956 514 938 q 558 987 540 975 q 588 1010 575 999 q 601 1039 601 1021 q 535 1067 601 1067 q 494 1063 515 1067 q 449 1051 474 1060 l 435 1097 q 547 1119 479 1119 q 638 1101 606 1119 q 669 1049 669 1082 q 655 1003 669 1019 q 621 974 640 986 q 587 947 601 963 q 572 906 572 932 l 514 906 m 185 764 l 336 988 l 422 988 l 574 764 l 513 764 l 379 926 l 246 764 l 185 764 z "},"ỗ":{"ha":760,"x_min":69,"x_max":690,"o":"m 379 -11 q 215 31 285 -11 q 108 152 146 74 q 69 338 69 231 q 108 522 69 443 q 215 643 146 600 q 379 686 285 686 q 544 643 475 686 q 652 522 614 600 q 690 338 690 443 q 652 152 690 231 q 544 31 614 74 q 379 -11 475 -11 m 379 60 q 543 133 482 60 q 604 338 604 206 q 543 542 604 469 q 379 614 482 614 q 216 542 276 614 q 156 338 156 469 q 216 133 156 206 q 379 60 276 60 m 222 981 l 168 985 q 207 1087 174 1053 q 290 1121 240 1121 q 340 1110 317 1121 q 392 1078 363 1100 q 437 1050 421 1057 q 467 1043 453 1043 q 514 1062 499 1043 q 536 1124 529 1081 l 590 1121 q 552 1018 585 1053 q 469 983 519 983 q 419 994 443 983 q 361 1031 396 1006 q 326 1052 343 1043 q 292 1061 310 1061 q 245 1042 261 1061 q 222 981 229 1024 m 185 764 l 336 946 l 422 946 l 574 764 l 513 764 l 379 890 l 246 764 l 185 764 z "},"ȍ":{"ha":760,"x_min":69,"x_max":690,"o":"m 379 -11 q 215 31 285 -11 q 108 152 146 74 q 69 338 69 231 q 108 522 69 443 q 215 643 146 600 q 379 686 285 686 q 544 643 475 686 q 652 522 614 600 q 690 338 690 443 q 652 152 690 231 q 544 31 614 74 q 379 -11 475 -11 m 379 60 q 543 133 482 60 q 604 338 604 206 q 543 542 604 469 q 379 614 482 614 q 216 542 276 614 q 156 338 156 469 q 216 133 156 206 q 379 60 276 60 m 436 764 l 324 1043 l 408 1043 l 486 764 l 436 764 m 274 764 l 160 1043 l 244 1043 l 322 764 l 274 764 z "},"ö":{"ha":760,"x_min":69,"x_max":690,"o":"m 379 -11 q 215 31 285 -11 q 108 152 146 74 q 69 338 69 231 q 108 522 69 443 q 215 643 146 600 q 379 686 285 686 q 544 643 475 686 q 652 522 614 600 q 690 338 690 443 q 652 152 690 231 q 544 31 614 74 q 379 -11 475 -11 m 379 60 q 543 133 482 60 q 604 338 604 206 q 543 542 604 469 q 379 614 482 614 q 216 542 276 614 q 156 338 156 469 q 216 133 156 206 q 379 60 276 60 m 444 854 l 444 954 l 546 954 l 546 854 l 444 854 m 213 854 l 213 954 l 314 954 l 314 854 l 213 854 z "},"ȫ":{"ha":760,"x_min":69,"x_max":690,"o":"m 379 -11 q 215 31 285 -11 q 108 152 146 74 q 69 338 69 231 q 108 522 69 443 q 215 643 146 600 q 379 686 285 686 q 544 643 475 686 q 652 522 614 600 q 690 338 690 443 q 652 152 690 231 q 544 31 614 74 q 379 -11 475 -11 m 379 60 q 543 133 482 60 q 604 338 604 206 q 543 542 604 469 q 379 614 482 614 q 216 542 276 614 q 156 338 156 469 q 216 133 156 206 q 379 60 276 60 m 179 981 l 179 1046 l 579 1046 l 579 981 l 179 981 m 213 808 l 213 900 l 314 900 l 314 808 l 213 808 m 444 808 l 444 900 l 546 900 l 546 808 l 444 808 z "},"ȱ":{"ha":760,"x_min":69,"x_max":690,"o":"m 379 -11 q 215 31 285 -11 q 108 152 146 74 q 69 338 69 231 q 108 522 69 443 q 215 643 146 600 q 379 686 285 686 q 544 643 475 686 q 652 522 614 600 q 690 338 690 443 q 652 152 690 231 q 544 31 614 74 q 379 -11 475 -11 m 379 60 q 543 133 482 60 q 604 338 604 206 q 543 542 604 469 q 379 614 482 614 q 216 542 276 614 q 156 338 156 469 q 216 133 156 206 q 379 60 276 60 m 179 981 l 179 1046 l 579 1046 l 579 981 l 179 981 m 329 808 l 329 900 l 431 900 l 431 808 l 329 808 z "},"ọ":{"ha":760,"x_min":69,"x_max":690,"o":"m 379 -11 q 215 31 285 -11 q 108 152 146 74 q 69 338 69 231 q 108 522 69 443 q 215 643 146 600 q 379 686 285 686 q 544 643 475 686 q 652 522 614 600 q 690 338 690 443 q 652 152 690 231 q 544 31 614 74 q 379 -11 475 -11 m 379 60 q 543 133 482 60 q 604 338 604 206 q 543 542 604 469 q 379 614 482 614 q 216 542 276 614 q 156 338 156 469 q 216 133 156 206 q 379 60 276 60 m 325 -249 l 325 -144 l 433 -144 l 433 -249 l 325 -249 z "},"ò":{"ha":760,"x_min":69,"x_max":690,"o":"m 379 -11 q 215 31 285 -11 q 108 152 146 74 q 69 338 69 231 q 108 522 69 443 q 215 643 146 600 q 379 686 285 686 q 544 643 475 686 q 652 522 614 600 q 690 338 690 443 q 652 152 690 231 q 544 31 614 74 q 379 -11 475 -11 m 379 60 q 543 133 482 60 q 604 338 604 206 q 543 542 604 469 q 379 614 482 614 q 216 542 276 614 q 156 338 156 469 q 216 133 156 206 q 379 60 276 60 m 347 764 l 171 1043 l 268 1043 l 411 764 l 347 764 z "},"ỏ":{"ha":760,"x_min":69,"x_max":690,"o":"m 379 -11 q 215 31 285 -11 q 108 152 146 74 q 69 338 69 231 q 108 522 69 443 q 215 643 146 600 q 379 686 285 686 q 544 643 475 686 q 652 522 614 600 q 690 338 690 443 q 652 152 690 231 q 544 31 614 74 q 379 -11 475 -11 m 379 60 q 543 133 482 60 q 604 338 604 206 q 543 542 604 469 q 379 614 482 614 q 216 542 276 614 q 156 338 156 469 q 216 133 156 206 q 379 60 276 60 m 347 764 l 347 792 q 361 847 347 825 q 393 883 375 868 q 425 914 411 899 q 439 951 439 929 q 369 992 439 992 q 328 987 349 992 q 282 971 307 982 l 265 1022 q 383 1051 311 1051 q 478 1027 444 1051 q 513 958 513 1003 q 497 903 513 924 q 462 867 482 882 q 426 833 442 851 q 411 785 411 815 l 411 764 l 347 764 z "},"ơ":{"ha":760,"x_min":69,"x_max":690,"o":"m 379 -11 q 215 31 285 -11 q 108 152 146 74 q 69 338 69 231 q 108 522 69 443 q 215 643 146 600 q 379 686 285 686 q 544 643 475 686 q 652 522 614 600 q 690 338 690 443 q 652 152 690 231 q 544 31 614 74 q 379 -11 475 -11 m 379 60 q 543 133 482 60 q 604 338 604 206 q 543 542 604 469 q 379 614 482 614 q 216 542 276 614 q 156 338 156 469 q 216 133 156 206 q 379 60 276 60 m 486 613 l 447 642 l 447 674 q 574 715 542 675 q 607 836 607 756 l 607 856 l 685 856 l 685 822 q 633 672 685 726 q 486 613 582 618 z "},"ớ":{"ha":760,"x_min":69,"x_max":690,"o":"m 379 -11 q 215 31 285 -11 q 108 152 146 74 q 69 338 69 231 q 108 522 69 443 q 215 643 146 600 q 379 686 285 686 q 544 643 475 686 q 652 522 614 600 q 690 338 690 443 q 652 152 690 231 q 544 31 614 74 q 379 -11 475 -11 m 379 60 q 543 133 482 60 q 604 338 604 206 q 543 542 604 469 q 379 614 482 614 q 216 542 276 614 q 156 338 156 469 q 216 133 156 206 q 379 60 276 60 m 486 613 l 447 642 l 447 674 q 574 715 542 675 q 607 836 607 756 l 607 856 l 685 856 l 685 822 q 633 672 685 726 q 486 613 582 618 m 347 764 l 490 1043 l 588 1043 l 411 764 l 347 764 z "},"ợ":{"ha":760,"x_min":69,"x_max":690,"o":"m 379 -11 q 215 31 285 -11 q 108 152 146 74 q 69 338 69 231 q 108 522 69 443 q 215 643 146 600 q 379 686 285 686 q 544 643 475 686 q 652 522 614 600 q 690 338 690 443 q 652 152 690 231 q 544 31 614 74 q 379 -11 475 -11 m 379 60 q 543 133 482 60 q 604 338 604 206 q 543 542 604 469 q 379 614 482 614 q 216 542 276 614 q 156 338 156 469 q 216 133 156 206 q 379 60 276 60 m 486 613 l 447 642 l 447 674 q 574 715 542 675 q 607 836 607 756 l 607 856 l 685 856 l 685 822 q 633 672 685 726 q 486 613 582 618 m 325 -249 l 325 -144 l 433 -144 l 433 -249 l 325 -249 z "},"ờ":{"ha":760,"x_min":69,"x_max":690,"o":"m 379 -11 q 215 31 285 -11 q 108 152 146 74 q 69 338 69 231 q 108 522 69 443 q 215 643 146 600 q 379 686 285 686 q 544 643 475 686 q 652 522 614 600 q 690 338 690 443 q 652 152 690 231 q 544 31 614 74 q 379 -11 475 -11 m 379 60 q 543 133 482 60 q 604 338 604 206 q 543 542 604 469 q 379 614 482 614 q 216 542 276 614 q 156 338 156 469 q 216 133 156 206 q 379 60 276 60 m 486 613 l 447 642 l 447 674 q 574 715 542 675 q 607 836 607 756 l 607 856 l 685 856 l 685 822 q 633 672 685 726 q 486 613 582 618 m 347 764 l 171 1043 l 268 1043 l 411 764 l 347 764 z "},"ở":{"ha":760,"x_min":69,"x_max":690,"o":"m 379 -11 q 215 31 285 -11 q 108 152 146 74 q 69 338 69 231 q 108 522 69 443 q 215 643 146 600 q 379 686 285 686 q 544 643 475 686 q 652 522 614 600 q 690 338 690 443 q 652 152 690 231 q 544 31 614 74 q 379 -11 475 -11 m 379 60 q 543 133 482 60 q 604 338 604 206 q 543 542 604 469 q 379 614 482 614 q 216 542 276 614 q 156 338 156 469 q 216 133 156 206 q 379 60 276 60 m 486 613 l 447 642 l 447 674 q 574 715 542 675 q 607 836 607 756 l 607 856 l 685 856 l 685 822 q 633 672 685 726 q 486 613 582 618 m 347 764 l 347 792 q 361 847 347 825 q 393 883 375 868 q 425 914 411 899 q 439 951 439 929 q 369 992 439 992 q 328 987 349 992 q 282 971 307 982 l 265 1022 q 383 1051 311 1051 q 478 1027 444 1051 q 513 958 513 1003 q 497 903 513 924 q 462 867 482 882 q 426 833 442 851 q 411 785 411 815 l 411 764 l 347 764 z "},"ỡ":{"ha":760,"x_min":69,"x_max":690,"o":"m 379 -11 q 215 31 285 -11 q 108 152 146 74 q 69 338 69 231 q 108 522 69 443 q 215 643 146 600 q 379 686 285 686 q 544 643 475 686 q 652 522 614 600 q 690 338 690 443 q 652 152 690 231 q 544 31 614 74 q 379 -11 475 -11 m 379 60 q 543 133 482 60 q 604 338 604 206 q 543 542 604 469 q 379 614 482 614 q 216 542 276 614 q 156 338 156 469 q 216 133 156 206 q 379 60 276 60 m 486 613 l 447 642 l 447 674 q 574 715 542 675 q 607 836 607 756 l 607 856 l 685 856 l 685 822 q 633 672 685 726 q 486 613 582 618 m 192 822 l 138 826 q 183 957 146 911 q 276 1003 219 1003 q 328 990 303 1003 q 389 942 353 976 q 438 901 421 913 q 474 890 456 890 q 561 1007 544 890 l 615 1003 q 570 872 607 918 q 478 826 533 826 q 422 842 449 826 q 364 889 396 857 q 315 928 333 917 q 279 939 297 939 q 192 822 208 939 z "},"ő":{"ha":760,"x_min":69,"x_max":690,"o":"m 379 -11 q 215 31 285 -11 q 108 152 146 74 q 69 338 69 231 q 108 522 69 443 q 215 643 146 600 q 379 686 285 686 q 544 643 475 686 q 652 522 614 600 q 690 338 690 443 q 652 152 690 231 q 544 31 614 74 q 379 -11 475 -11 m 379 60 q 543 133 482 60 q 604 338 604 206 q 543 542 604 469 q 379 614 482 614 q 216 542 276 614 q 156 338 156 469 q 216 133 156 206 q 379 60 276 60 m 436 764 l 514 1043 l 599 1043 l 486 764 l 436 764 m 272 764 l 350 1043 l 435 1043 l 322 764 l 272 764 z "},"ȏ":{"ha":760,"x_min":69,"x_max":690,"o":"m 379 -11 q 215 31 285 -11 q 108 152 146 74 q 69 338 69 231 q 108 522 69 443 q 215 643 146 600 q 379 686 285 686 q 544 643 475 686 q 652 522 614 600 q 690 338 690 443 q 652 152 690 231 q 544 31 614 74 q 379 -11 475 -11 m 379 60 q 543 133 482 60 q 604 338 604 206 q 543 542 604 469 q 379 614 482 614 q 216 542 276 614 q 156 338 156 469 q 216 133 156 206 q 379 60 276 60 m 231 761 l 172 767 q 234 959 179 889 q 379 1029 289 1029 q 524 959 469 1029 q 586 767 579 889 l 528 761 q 485 913 524 860 q 379 967 446 967 q 274 913 313 967 q 231 761 235 860 z "},"ō":{"ha":760,"x_min":69,"x_max":690,"o":"m 379 -11 q 215 31 285 -11 q 108 152 146 74 q 69 338 69 231 q 108 522 69 443 q 215 643 146 600 q 379 686 285 686 q 544 643 475 686 q 652 522 614 600 q 690 338 690 443 q 652 152 690 231 q 544 31 614 74 q 379 -11 475 -11 m 379 60 q 543 133 482 60 q 604 338 604 206 q 543 542 604 469 q 379 614 482 614 q 216 542 276 614 q 156 338 156 469 q 216 133 156 206 q 379 60 276 60 m 179 874 l 179 938 l 579 938 l 579 874 l 179 874 z "},"ṓ":{"ha":760,"x_min":69,"x_max":690,"o":"m 379 -11 q 215 31 285 -11 q 108 152 146 74 q 69 338 69 231 q 108 522 69 443 q 215 643 146 600 q 379 686 285 686 q 544 643 475 686 q 652 522 614 600 q 690 338 690 443 q 652 152 690 231 q 544 31 614 74 q 379 -11 475 -11 m 379 60 q 543 133 482 60 q 604 338 604 206 q 543 542 604 469 q 379 614 482 614 q 216 542 276 614 q 156 338 156 469 q 216 133 156 206 q 379 60 276 60 m 347 911 l 475 1114 l 572 1114 l 411 911 l 347 911 m 179 796 l 179 860 l 579 860 l 579 796 l 179 796 z "},"ṑ":{"ha":760,"x_min":69,"x_max":690,"o":"m 379 -11 q 215 31 285 -11 q 108 152 146 74 q 69 338 69 231 q 108 522 69 443 q 215 643 146 600 q 379 686 285 686 q 544 643 475 686 q 652 522 614 600 q 690 338 690 443 q 652 152 690 231 q 544 31 614 74 q 379 -11 475 -11 m 379 60 q 543 133 482 60 q 604 338 604 206 q 543 542 604 469 q 379 614 482 614 q 216 542 276 614 q 156 338 156 469 q 216 133 156 206 q 379 60 276 60 m 347 911 l 188 1114 l 283 1114 l 411 911 l 347 911 m 179 796 l 179 860 l 579 860 l 579 796 l 179 796 z "},"ǫ":{"ha":760,"x_min":69,"x_max":690,"o":"m 379 -11 q 215 31 285 -11 q 108 152 146 74 q 69 338 69 231 q 108 522 69 443 q 215 643 146 600 q 379 686 285 686 q 544 643 475 686 q 652 522 614 600 q 690 338 690 443 q 652 152 690 231 q 544 31 614 74 q 379 -11 475 -11 m 379 60 q 543 133 482 60 q 604 338 604 206 q 543 542 604 469 q 379 614 482 614 q 216 542 276 614 q 156 338 156 469 q 216 133 156 206 q 379 60 276 60 m 436 -265 q 337 -230 375 -265 q 299 -133 299 -194 q 333 -32 299 -81 q 426 47 367 17 l 461 0 q 397 -47 429 -14 q 365 -125 365 -79 q 389 -186 365 -167 q 447 -206 413 -206 q 521 -189 482 -206 l 540 -242 q 436 -265 501 -265 z "},"ø":{"ha":760,"x_min":69,"x_max":690,"o":"m 186 -61 l 132 -28 l 181 57 q 98 173 126 101 q 69 338 69 244 q 108 522 69 443 q 215 643 146 600 q 379 686 285 686 q 526 653 461 686 l 574 735 l 628 701 l 579 618 q 661 501 632 572 q 690 338 690 429 q 652 152 690 231 q 544 31 614 74 q 379 -11 475 -11 q 233 21 297 -11 l 186 -61 m 156 338 q 221 126 156 200 l 489 588 q 379 614 442 614 q 216 542 276 614 q 156 338 156 469 m 379 60 q 543 133 482 60 q 604 338 604 206 q 539 547 604 474 l 271 86 q 379 60 318 60 z "},"ǿ":{"ha":760,"x_min":69,"x_max":690,"o":"m 186 -61 l 132 -28 l 181 57 q 98 173 126 101 q 69 338 69 244 q 108 522 69 443 q 215 643 146 600 q 379 686 285 686 q 526 653 461 686 l 574 735 l 628 701 l 579 618 q 661 501 632 572 q 690 338 690 429 q 652 152 690 231 q 544 31 614 74 q 379 -11 475 -11 q 233 21 297 -11 l 186 -61 m 156 338 q 221 126 156 200 l 489 588 q 379 614 442 614 q 216 542 276 614 q 156 338 156 469 m 379 60 q 543 133 482 60 q 604 338 604 206 q 539 547 604 474 l 271 86 q 379 60 318 60 m 347 764 l 490 1043 l 588 1043 l 411 764 l 347 764 z "},"õ":{"ha":760,"x_min":69,"x_max":690,"o":"m 379 -11 q 215 31 285 -11 q 108 152 146 74 q 69 338 69 231 q 108 522 69 443 q 215 643 146 600 q 379 686 285 686 q 544 643 475 686 q 652 522 614 600 q 690 338 690 443 q 652 152 690 231 q 544 31 614 74 q 379 -11 475 -11 m 379 60 q 543 133 482 60 q 604 338 604 206 q 543 542 604 469 q 379 614 482 614 q 216 542 276 614 q 156 338 156 469 q 216 133 156 206 q 379 60 276 60 m 192 822 l 138 826 q 183 956 146 910 q 279 1003 219 1003 q 334 988 308 1003 q 393 940 360 972 q 442 901 424 913 q 479 890 461 890 q 567 1007 550 890 l 621 1003 q 576 873 613 919 q 481 826 539 826 q 427 841 453 826 q 365 889 401 856 q 317 927 336 915 q 279 939 299 939 q 192 822 208 939 z "},"ṍ":{"ha":760,"x_min":69,"x_max":690,"o":"m 379 -11 q 215 31 285 -11 q 108 152 146 74 q 69 338 69 231 q 108 522 69 443 q 215 643 146 600 q 379 686 285 686 q 544 643 475 686 q 652 522 614 600 q 690 338 690 443 q 652 152 690 231 q 544 31 614 74 q 379 -11 475 -11 m 379 60 q 543 133 482 60 q 604 338 604 206 q 543 542 604 469 q 379 614 482 614 q 216 542 276 614 q 156 338 156 469 q 216 133 156 206 q 379 60 276 60 m 347 911 l 475 1114 l 572 1114 l 411 911 l 347 911 m 222 758 l 168 761 q 207 865 174 831 q 290 899 240 899 q 337 889 314 899 q 392 856 360 879 q 467 821 438 821 q 514 840 499 821 q 536 901 529 858 l 590 899 q 552 795 585 829 q 469 761 519 761 q 421 772 444 761 q 367 804 397 782 q 292 839 319 839 q 245 820 261 839 q 222 758 229 801 z "},"ṏ":{"ha":760,"x_min":69,"x_max":690,"o":"m 379 -11 q 215 31 285 -11 q 108 152 146 74 q 69 338 69 231 q 108 522 69 443 q 215 643 146 600 q 379 686 285 686 q 544 643 475 686 q 652 522 614 600 q 690 338 690 443 q 652 152 690 231 q 544 31 614 74 q 379 -11 475 -11 m 379 60 q 543 133 482 60 q 604 338 604 206 q 543 542 604 469 q 379 614 482 614 q 216 542 276 614 q 156 338 156 469 q 216 133 156 206 q 379 60 276 60 m 213 960 l 213 1051 l 314 1051 l 314 960 l 213 960 m 444 960 l 444 1051 l 546 1051 l 546 960 l 444 960 m 222 758 l 168 761 q 207 865 174 831 q 290 899 240 899 q 337 889 314 899 q 392 856 360 879 q 467 821 438 821 q 514 840 499 821 q 536 901 529 858 l 590 899 q 552 795 585 829 q 469 761 519 761 q 421 772 444 761 q 367 804 397 782 q 292 839 319 839 q 245 820 261 839 q 222 758 229 801 z "},"ȭ":{"ha":760,"x_min":69,"x_max":690,"o":"m 379 -11 q 215 31 285 -11 q 108 152 146 74 q 69 338 69 231 q 108 522 69 443 q 215 643 146 600 q 379 686 285 686 q 544 643 475 686 q 652 522 614 600 q 690 338 690 443 q 652 152 690 231 q 544 31 614 74 q 379 -11 475 -11 m 379 60 q 543 133 482 60 q 604 338 604 206 q 543 542 604 469 q 379 614 482 614 q 216 542 276 614 q 156 338 156 469 q 216 133 156 206 q 379 60 276 60 m 179 981 l 179 1046 l 579 1046 l 579 981 l 179 981 m 222 758 l 168 761 q 207 865 174 831 q 290 899 240 899 q 337 889 314 899 q 392 856 360 879 q 467 821 438 821 q 514 840 499 821 q 536 901 529 858 l 590 899 q 552 795 585 829 q 469 761 519 761 q 421 772 444 761 q 367 804 397 782 q 292 839 319 839 q 245 820 261 839 q 222 758 229 801 z "},"œ":{"ha":1261,"x_min":69,"x_max":1199,"o":"m 378 -11 q 214 32 283 -11 q 107 153 144 75 q 69 338 69 231 q 107 522 69 443 q 214 643 144 600 q 378 686 283 686 q 543 639 474 686 q 647 507 613 592 q 754 638 682 590 q 921 686 826 686 q 1124 599 1050 686 q 1199 358 1199 511 l 1199 319 l 690 319 q 757 128 694 196 q 936 60 819 60 q 1049 81 994 60 q 1156 144 1103 101 l 1188 81 q 1076 13 1144 38 q 938 -11 1008 -11 q 755 33 831 -11 q 644 165 679 78 q 541 35 610 82 q 378 -11 472 -11 m 918 618 q 760 552 818 618 q 692 382 701 486 l 1124 382 q 1069 555 1121 492 q 918 618 1017 618 m 379 60 q 544 133 483 60 q 604 338 604 206 q 543 542 604 469 q 379 614 482 614 q 216 542 276 614 q 156 338 156 469 q 216 133 156 206 q 379 60 276 60 z "},"p":{"ha":799,"x_min":111,"x_max":731,"o":"m 111 -250 l 111 674 l 196 674 l 196 547 q 288 649 226 611 q 432 686 350 686 q 590 643 522 686 q 694 522 657 600 q 731 338 731 444 q 694 152 731 231 q 590 31 657 74 q 432 -11 522 -11 q 288 25 350 -11 q 196 125 226 61 l 196 -250 l 111 -250 m 419 60 q 583 133 522 60 q 644 338 644 206 q 583 542 644 469 q 419 614 522 614 q 256 542 317 614 q 194 338 194 469 q 256 133 194 206 q 419 60 317 60 z "},"þ":{"ha":799,"x_min":111,"x_max":731,"o":"m 111 -250 l 111 979 l 196 979 l 196 549 q 288 649 226 613 q 432 686 350 686 q 590 643 522 686 q 694 522 657 600 q 731 338 731 444 q 694 152 731 231 q 590 31 657 74 q 432 -11 522 -11 q 288 25 350 -11 q 196 125 226 61 l 196 -250 l 111 -250 m 419 60 q 583 133 522 60 q 644 338 644 206 q 583 542 644 469 q 419 614 522 614 q 256 542 317 614 q 194 338 194 469 q 256 133 194 206 q 419 60 317 60 z "},"q":{"ha":799,"x_min":69,"x_max":688,"o":"m 603 -250 l 603 126 q 510 26 572 63 q 368 -11 449 -11 q 209 31 276 -11 q 106 152 142 74 q 69 338 69 231 q 106 522 69 444 q 210 643 143 600 q 368 686 276 686 q 512 649 450 686 q 604 546 574 611 l 604 674 l 688 674 l 688 -250 l 603 -250 m 379 60 q 543 133 482 60 q 604 338 604 206 q 543 542 604 469 q 379 614 482 614 q 216 542 276 614 q 156 338 156 469 q 216 133 156 206 q 379 60 276 60 z "},"r":{"ha":475,"x_min":111,"x_max":464,"o":"m 111 0 l 111 674 l 194 674 l 194 551 q 279 649 224 615 q 421 688 335 682 l 456 690 l 464 617 l 404 610 q 251 545 306 601 q 197 394 197 489 l 197 0 l 111 0 z "},"ŕ":{"ha":475,"x_min":111,"x_max":499,"o":"m 111 0 l 111 674 l 194 674 l 194 551 q 279 649 224 615 q 421 688 335 682 l 456 690 l 464 617 l 404 610 q 251 545 306 601 q 197 394 197 489 l 197 0 l 111 0 m 258 764 l 401 1043 l 499 1043 l 322 764 l 258 764 z "},"ř":{"ha":475,"x_min":96,"x_max":485,"o":"m 111 0 l 111 674 l 194 674 l 194 551 q 279 649 224 615 q 421 688 335 682 l 456 690 l 464 617 l 404 610 q 251 545 306 601 q 197 394 197 489 l 197 0 l 111 0 m 247 764 l 96 1043 l 158 1043 l 290 828 l 422 1043 l 485 1043 l 333 764 l 247 764 z "},"ŗ":{"ha":475,"x_min":96,"x_max":464,"o":"m 111 0 l 111 674 l 194 674 l 194 551 q 279 649 224 615 q 421 688 335 682 l 456 690 l 464 617 l 404 610 q 251 545 306 601 q 197 394 197 489 l 197 0 l 111 0 m 144 -365 l 101 -335 q 142 -275 131 -303 q 154 -217 153 -247 l 96 -217 l 96 -115 l 213 -115 l 213 -194 q 196 -287 213 -243 q 144 -365 179 -331 z "},"ȑ":{"ha":475,"x_min":71,"x_max":464,"o":"m 111 0 l 111 674 l 194 674 l 194 551 q 279 649 224 615 q 421 688 335 682 l 456 690 l 464 617 l 404 610 q 251 545 306 601 q 197 394 197 489 l 197 0 l 111 0 m 347 764 l 235 1043 l 319 1043 l 397 764 l 347 764 m 185 764 l 71 1043 l 156 1043 l 233 764 l 185 764 z "},"ṛ":{"ha":475,"x_min":100,"x_max":464,"o":"m 111 0 l 111 674 l 194 674 l 194 551 q 279 649 224 615 q 421 688 335 682 l 456 690 l 464 617 l 404 610 q 251 545 306 601 q 197 394 197 489 l 197 0 l 111 0 m 100 -249 l 100 -144 l 208 -144 l 208 -249 l 100 -249 z "},"ȓ":{"ha":475,"x_min":83,"x_max":497,"o":"m 111 0 l 111 674 l 194 674 l 194 551 q 279 649 224 615 q 421 688 335 682 l 456 690 l 464 617 l 404 610 q 251 545 306 601 q 197 394 197 489 l 197 0 l 111 0 m 142 761 l 83 767 q 145 959 90 889 q 290 1029 200 1029 q 435 959 381 1029 q 497 767 490 889 l 439 761 q 396 913 435 860 q 290 967 357 967 q 185 913 224 967 q 142 761 146 860 z "},"ṟ":{"ha":475,"x_min":-46,"x_max":464,"o":"m 111 0 l 111 674 l 194 674 l 194 551 q 279 649 224 615 q 421 688 335 682 l 456 690 l 464 617 l 404 610 q 251 545 306 601 q 197 394 197 489 l 197 0 l 111 0 m -46 -211 l -46 -147 l 354 -147 l 354 -211 l -46 -211 z "},"s":{"ha":664,"x_min":74,"x_max":590,"o":"m 331 -11 q 187 11 256 -11 q 74 75 118 33 l 104 138 q 214 77 156 96 q 333 58 272 58 q 463 90 419 58 q 507 176 507 121 q 478 244 507 219 q 386 285 449 269 l 265 313 q 94 489 94 351 q 164 632 94 578 q 347 686 233 686 q 478 663 417 686 q 578 597 539 640 l 544 535 q 453 595 504 575 q 346 615 401 615 q 222 582 265 615 q 178 492 178 549 q 204 422 178 449 q 290 382 231 396 l 411 354 q 546 292 501 333 q 590 182 590 251 q 519 40 590 92 q 331 -11 449 -11 z "},"ś":{"ha":664,"x_min":74,"x_max":590,"o":"m 331 -11 q 187 11 256 -11 q 74 75 118 33 l 104 138 q 214 77 156 96 q 333 58 272 58 q 463 90 419 58 q 507 176 507 121 q 478 244 507 219 q 386 285 449 269 l 265 313 q 94 489 94 351 q 164 632 94 578 q 347 686 233 686 q 478 663 417 686 q 578 597 539 640 l 544 535 q 453 595 504 575 q 346 615 401 615 q 222 582 265 615 q 178 492 178 549 q 204 422 178 449 q 290 382 231 396 l 411 354 q 546 292 501 333 q 590 182 590 251 q 519 40 590 92 q 331 -11 449 -11 m 313 764 l 456 1043 l 553 1043 l 376 764 l 313 764 z "},"ṥ":{"ha":664,"x_min":74,"x_max":590,"o":"m 331 -11 q 187 11 256 -11 q 74 75 118 33 l 104 138 q 214 77 156 96 q 333 58 272 58 q 463 90 419 58 q 507 176 507 121 q 478 244 507 219 q 386 285 449 269 l 265 313 q 94 489 94 351 q 164 632 94 578 q 347 686 233 686 q 478 663 417 686 q 578 597 539 640 l 544 535 q 453 595 504 575 q 346 615 401 615 q 222 582 265 615 q 178 492 178 549 q 204 422 178 449 q 290 382 231 396 l 411 354 q 546 292 501 333 q 590 182 590 251 q 519 40 590 92 q 331 -11 449 -11 m 243 1053 l 243 1144 l 344 1144 l 344 1053 l 243 1053 m 313 764 l 457 1043 l 554 1043 l 376 764 l 313 764 z "},"š":{"ha":664,"x_min":74,"x_max":590,"o":"m 331 -11 q 187 11 256 -11 q 74 75 118 33 l 104 138 q 214 77 156 96 q 333 58 272 58 q 463 90 419 58 q 507 176 507 121 q 478 244 507 219 q 386 285 449 269 l 265 313 q 94 489 94 351 q 164 632 94 578 q 347 686 233 686 q 478 663 417 686 q 578 597 539 640 l 544 535 q 453 595 504 575 q 346 615 401 615 q 222 582 265 615 q 178 492 178 549 q 204 422 178 449 q 290 382 231 396 l 411 354 q 546 292 501 333 q 590 182 590 251 q 519 40 590 92 q 331 -11 449 -11 m 301 764 l 150 1043 l 213 1043 l 344 828 l 476 1043 l 539 1043 l 388 764 l 301 764 z "},"ṧ":{"ha":664,"x_min":74,"x_max":590,"o":"m 331 -11 q 187 11 256 -11 q 74 75 118 33 l 104 138 q 214 77 156 96 q 333 58 272 58 q 463 90 419 58 q 507 176 507 121 q 478 244 507 219 q 386 285 449 269 l 265 313 q 94 489 94 351 q 164 632 94 578 q 347 686 233 686 q 478 663 417 686 q 578 597 539 640 l 544 535 q 453 595 504 575 q 346 615 401 615 q 222 582 265 615 q 178 492 178 549 q 204 422 178 449 q 290 382 231 396 l 411 354 q 546 292 501 333 q 590 182 590 251 q 519 40 590 92 q 331 -11 449 -11 m 294 1053 l 294 1146 l 396 1146 l 396 1053 l 294 1053 m 301 764 l 150 986 l 213 986 l 344 828 l 476 986 l 539 986 l 388 764 l 301 764 z "},"ş":{"ha":664,"x_min":74,"x_max":590,"o":"m 331 -11 q 187 11 256 -11 q 74 75 118 33 l 104 138 q 214 77 156 96 q 333 58 272 58 q 463 90 419 58 q 507 176 507 121 q 478 244 507 219 q 386 285 449 269 l 265 313 q 94 489 94 351 q 164 632 94 578 q 347 686 233 686 q 478 663 417 686 q 578 597 539 640 l 544 535 q 453 595 504 575 q 346 615 401 615 q 222 582 265 615 q 178 492 178 549 q 204 422 178 449 q 290 382 231 396 l 411 354 q 546 292 501 333 q 590 182 590 251 q 519 40 590 92 q 331 -11 449 -11 m 336 -265 q 221 -239 264 -265 l 236 -185 q 283 -203 261 -197 q 338 -208 306 -208 q 398 -194 375 -208 q 421 -153 421 -179 q 368 -111 421 -111 q 337 -113 353 -111 q 300 -124 321 -115 l 278 -104 l 297 28 l 360 28 l 344 -64 q 375 -61 361 -61 q 455 -85 422 -61 q 488 -154 488 -110 q 446 -235 488 -204 q 336 -265 404 -265 z "},"ŝ":{"ha":664,"x_min":74,"x_max":590,"o":"m 331 -11 q 187 11 256 -11 q 74 75 118 33 l 104 138 q 214 77 156 96 q 333 58 272 58 q 463 90 419 58 q 507 176 507 121 q 478 244 507 219 q 386 285 449 269 l 265 313 q 94 489 94 351 q 164 632 94 578 q 347 686 233 686 q 478 663 417 686 q 578 597 539 640 l 544 535 q 453 595 504 575 q 346 615 401 615 q 222 582 265 615 q 178 492 178 549 q 204 422 178 449 q 290 382 231 396 l 411 354 q 546 292 501 333 q 590 182 590 251 q 519 40 590 92 q 331 -11 449 -11 m 150 764 l 301 1043 l 388 1043 l 539 764 l 476 764 l 344 979 l 213 764 l 150 764 z "},"ș":{"ha":664,"x_min":74,"x_max":590,"o":"m 331 -11 q 187 11 256 -11 q 74 75 118 33 l 104 138 q 214 77 156 96 q 333 58 272 58 q 463 90 419 58 q 507 176 507 121 q 478 244 507 219 q 386 285 449 269 l 265 313 q 94 489 94 351 q 164 632 94 578 q 347 686 233 686 q 478 663 417 686 q 578 597 539 640 l 544 535 q 453 595 504 575 q 346 615 401 615 q 222 582 265 615 q 178 492 178 549 q 204 422 178 449 q 290 382 231 396 l 411 354 q 546 292 501 333 q 590 182 590 251 q 519 40 590 92 q 331 -11 449 -11 m 321 -365 l 278 -335 q 318 -275 307 -303 q 331 -217 329 -247 l 272 -217 l 272 -115 l 389 -115 l 389 -194 q 372 -287 389 -243 q 321 -365 356 -331 z "},"ṡ":{"ha":664,"x_min":74,"x_max":590,"o":"m 331 -11 q 187 11 256 -11 q 74 75 118 33 l 104 138 q 214 77 156 96 q 333 58 272 58 q 463 90 419 58 q 507 176 507 121 q 478 244 507 219 q 386 285 449 269 l 265 313 q 94 489 94 351 q 164 632 94 578 q 347 686 233 686 q 478 663 417 686 q 578 597 539 640 l 544 535 q 453 595 504 575 q 346 615 401 615 q 222 582 265 615 q 178 492 178 549 q 204 422 178 449 q 290 382 231 396 l 411 354 q 546 292 501 333 q 590 182 590 251 q 519 40 590 92 q 331 -11 449 -11 m 290 853 l 290 957 l 399 957 l 399 853 l 290 853 z "},"ṣ":{"ha":664,"x_min":74,"x_max":590,"o":"m 331 -11 q 187 11 256 -11 q 74 75 118 33 l 104 138 q 214 77 156 96 q 333 58 272 58 q 463 90 419 58 q 507 176 507 121 q 478 244 507 219 q 386 285 449 269 l 265 313 q 94 489 94 351 q 164 632 94 578 q 347 686 233 686 q 478 663 417 686 q 578 597 539 640 l 544 535 q 453 595 504 575 q 346 615 401 615 q 222 582 265 615 q 178 492 178 549 q 204 422 178 449 q 290 382 231 396 l 411 354 q 546 292 501 333 q 590 182 590 251 q 519 40 590 92 q 331 -11 449 -11 m 276 -249 l 276 -144 l 385 -144 l 385 -249 l 276 -249 z "},"ṩ":{"ha":664,"x_min":74,"x_max":590,"o":"m 331 -11 q 187 11 256 -11 q 74 75 118 33 l 104 138 q 214 77 156 96 q 333 58 272 58 q 463 90 419 58 q 507 176 507 121 q 478 244 507 219 q 386 285 449 269 l 265 313 q 94 489 94 351 q 164 632 94 578 q 347 686 233 686 q 478 663 417 686 q 578 597 539 640 l 544 535 q 453 595 504 575 q 346 615 401 615 q 222 582 265 615 q 178 492 178 549 q 204 422 178 449 q 290 382 231 396 l 411 354 q 546 292 501 333 q 590 182 590 251 q 519 40 590 92 q 331 -11 449 -11 m 276 -249 l 276 -144 l 385 -144 l 385 -249 l 276 -249 m 290 853 l 290 957 l 399 957 l 399 853 l 290 853 z "},"ß":{"ha":829,"x_min":111,"x_max":785,"o":"m 539 -11 q 403 12 471 -11 q 290 76 335 35 l 324 140 q 431 78 374 97 q 540 60 488 60 q 658 92 614 60 q 701 181 701 125 q 666 254 701 225 q 546 311 631 283 q 389 389 433 346 q 344 497 344 432 q 369 580 344 540 q 457 674 393 619 q 522 744 503 713 q 542 813 542 776 q 506 892 542 863 q 407 921 471 921 q 250 860 304 921 q 196 688 196 799 l 196 0 l 111 0 l 111 681 q 189 908 111 826 q 406 990 267 990 q 567 944 508 990 q 625 819 625 897 q 599 724 625 765 q 514 631 574 682 q 446 561 464 588 q 428 504 428 535 q 462 435 428 464 q 583 381 496 407 q 738 300 692 346 q 785 181 785 254 q 717 42 785 94 q 539 -11 649 -11 z "},"t":{"ha":465,"x_min":7,"x_max":476,"o":"m 365 -11 q 197 50 253 -11 q 140 225 140 111 l 140 606 l 7 606 l 7 674 l 140 674 l 140 882 l 225 882 l 225 674 l 443 674 l 443 606 l 225 606 l 225 236 q 260 107 225 151 q 375 63 294 63 q 421 68 399 63 q 460 81 443 74 l 476 14 q 428 -3 461 4 q 365 -11 394 -11 z "},"ŧ":{"ha":465,"x_min":7,"x_max":476,"o":"m 365 -11 q 197 50 253 -11 q 140 225 140 111 l 140 606 l 7 606 l 7 674 l 140 674 l 140 882 l 225 882 l 225 674 l 443 674 l 443 606 l 225 606 l 225 236 q 260 107 225 151 q 375 63 294 63 q 421 68 399 63 q 460 81 443 74 l 476 14 q 428 -3 461 4 q 365 -11 394 -11 m 39 342 l 39 404 l 399 404 l 399 342 l 39 342 z "},"ť":{"ha":465,"x_min":7,"x_max":476,"o":"m 365 -11 q 197 50 253 -11 q 140 225 140 111 l 140 606 l 7 606 l 7 674 l 140 674 l 140 882 l 225 882 l 225 674 l 443 674 l 443 606 l 225 606 l 225 236 q 260 107 225 151 q 375 63 294 63 q 421 68 399 63 q 460 81 443 74 l 476 14 q 428 -3 461 4 q 365 -11 394 -11 m 328 742 l 328 979 l 406 979 l 375 742 l 328 742 z "},"ţ":{"ha":465,"x_min":7,"x_max":476,"o":"m 365 -11 q 197 50 253 -11 q 140 225 140 111 l 140 606 l 7 606 l 7 674 l 140 674 l 140 882 l 225 882 l 225 674 l 443 674 l 443 606 l 225 606 l 225 236 q 260 107 225 151 q 375 63 294 63 q 421 68 399 63 q 460 81 443 74 l 476 14 q 428 -3 461 4 q 365 -11 394 -11 m 296 -265 q 181 -239 224 -265 l 196 -185 q 243 -203 221 -197 q 297 -208 265 -208 q 358 -194 335 -208 q 381 -153 381 -179 q 328 -111 381 -111 q 297 -113 313 -111 q 260 -124 281 -115 l 238 -104 l 257 28 l 319 28 l 304 -64 q 335 -61 321 -61 q 415 -85 382 -61 q 447 -154 447 -110 q 406 -235 447 -204 q 296 -265 364 -265 z "},"ț":{"ha":465,"x_min":7,"x_max":476,"o":"m 365 -11 q 197 50 253 -11 q 140 225 140 111 l 140 606 l 7 606 l 7 674 l 140 674 l 140 882 l 225 882 l 225 674 l 443 674 l 443 606 l 225 606 l 225 236 q 260 107 225 151 q 375 63 294 63 q 421 68 399 63 q 460 81 443 74 l 476 14 q 428 -3 461 4 q 365 -11 394 -11 m 281 -365 l 238 -335 q 278 -275 267 -303 q 290 -217 289 -247 l 232 -217 l 232 -115 l 349 -115 l 349 -194 q 332 -287 349 -243 q 281 -365 315 -331 z "},"ẗ":{"ha":465,"x_min":7,"x_max":476,"o":"m 365 -11 q 197 50 253 -11 q 140 225 140 111 l 140 606 l 7 606 l 7 674 l 140 674 l 140 882 l 225 882 l 225 674 l 443 674 l 443 606 l 225 606 l 225 236 q 260 107 225 151 q 375 63 294 63 q 421 68 399 63 q 460 81 443 74 l 476 14 q 428 -3 461 4 q 365 -11 394 -11 m 249 1032 l 249 1133 l 350 1133 l 350 1032 l 249 1032 m 17 1032 l 17 1133 l 118 1133 l 118 1032 l 17 1032 z "},"ṭ":{"ha":465,"x_min":7,"x_max":476,"o":"m 365 -11 q 197 50 253 -11 q 140 225 140 111 l 140 606 l 7 606 l 7 674 l 140 674 l 140 882 l 225 882 l 225 674 l 443 674 l 443 606 l 225 606 l 225 236 q 260 107 225 151 q 375 63 294 63 q 421 68 399 63 q 460 81 443 74 l 476 14 q 428 -3 461 4 q 365 -11 394 -11 m 236 -249 l 236 -144 l 344 -144 l 344 -249 l 236 -249 z "},"ṯ":{"ha":465,"x_min":7,"x_max":490,"o":"m 365 -11 q 197 50 253 -11 q 140 225 140 111 l 140 606 l 7 606 l 7 674 l 140 674 l 140 882 l 225 882 l 225 674 l 443 674 l 443 606 l 225 606 l 225 236 q 260 107 225 151 q 375 63 294 63 q 421 68 399 63 q 460 81 443 74 l 476 14 q 428 -3 461 4 q 365 -11 394 -11 m 90 -211 l 90 -147 l 490 -147 l 490 -211 l 90 -211 z "},"u":{"ha":768,"x_min":108,"x_max":656,"o":"m 349 -11 q 108 250 108 -11 l 108 674 l 193 674 l 193 254 q 233 108 193 156 q 360 61 274 61 q 512 124 453 61 q 571 290 571 186 l 571 674 l 656 674 l 656 0 l 574 0 l 574 119 q 481 22 540 56 q 349 -11 422 -11 z "},"ú":{"ha":768,"x_min":108,"x_max":656,"o":"m 349 -11 q 108 250 108 -11 l 108 674 l 193 674 l 193 254 q 233 108 193 156 q 360 61 274 61 q 512 124 453 61 q 571 290 571 186 l 571 674 l 656 674 l 656 0 l 574 0 l 574 119 q 481 22 540 56 q 349 -11 422 -11 m 353 765 l 496 1044 l 593 1044 l 417 765 l 353 765 z "},"ŭ":{"ha":768,"x_min":108,"x_max":656,"o":"m 349 -11 q 108 250 108 -11 l 108 674 l 193 674 l 193 254 q 233 108 193 156 q 360 61 274 61 q 512 124 453 61 q 571 290 571 186 l 571 674 l 656 674 l 656 0 l 574 0 l 574 119 q 481 22 540 56 q 349 -11 422 -11 m 385 763 q 240 832 294 763 q 178 1024 185 901 l 236 1031 q 279 878 240 932 q 385 825 318 825 q 490 878 451 825 q 533 1031 529 932 l 592 1024 q 530 832 585 901 q 385 763 475 763 z "},"ǔ":{"ha":768,"x_min":108,"x_max":656,"o":"m 349 -11 q 108 250 108 -11 l 108 674 l 193 674 l 193 254 q 233 108 193 156 q 360 61 274 61 q 512 124 453 61 q 571 290 571 186 l 571 674 l 656 674 l 656 0 l 574 0 l 574 119 q 481 22 540 56 q 349 -11 422 -11 m 342 765 l 190 1044 l 253 1044 l 385 829 l 517 1044 l 579 1044 l 428 765 l 342 765 z "},"û":{"ha":768,"x_min":108,"x_max":656,"o":"m 349 -11 q 108 250 108 -11 l 108 674 l 193 674 l 193 254 q 233 108 193 156 q 360 61 274 61 q 512 124 453 61 q 571 290 571 186 l 571 674 l 656 674 l 656 0 l 574 0 l 574 119 q 481 22 540 56 q 349 -11 422 -11 m 190 765 l 342 1044 l 428 1044 l 579 765 l 517 765 l 385 981 l 253 765 l 190 765 z "},"ȕ":{"ha":768,"x_min":108,"x_max":656,"o":"m 349 -11 q 108 250 108 -11 l 108 674 l 193 674 l 193 254 q 233 108 193 156 q 360 61 274 61 q 512 124 453 61 q 571 290 571 186 l 571 674 l 656 674 l 656 0 l 574 0 l 574 119 q 481 22 540 56 q 349 -11 422 -11 m 442 765 l 329 1044 l 414 1044 l 492 765 l 442 765 m 279 765 l 165 1044 l 250 1044 l 328 765 l 279 765 z "},"ü":{"ha":768,"x_min":108,"x_max":656,"o":"m 349 -11 q 108 250 108 -11 l 108 674 l 193 674 l 193 254 q 233 108 193 156 q 360 61 274 61 q 512 124 453 61 q 571 290 571 186 l 571 674 l 656 674 l 656 0 l 574 0 l 574 119 q 481 22 540 56 q 349 -11 422 -11 m 450 856 l 450 956 l 551 956 l 551 856 l 450 856 m 218 856 l 218 956 l 319 956 l 319 856 l 218 856 z "},"ụ":{"ha":768,"x_min":108,"x_max":656,"o":"m 349 -11 q 108 250 108 -11 l 108 674 l 193 674 l 193 254 q 233 108 193 156 q 360 61 274 61 q 512 124 453 61 q 571 290 571 186 l 571 674 l 656 674 l 656 0 l 574 0 l 574 119 q 481 22 540 56 q 349 -11 422 -11 m 331 -249 l 331 -144 l 439 -144 l 439 -249 l 331 -249 z "},"ù":{"ha":768,"x_min":108,"x_max":656,"o":"m 349 -11 q 108 250 108 -11 l 108 674 l 193 674 l 193 254 q 233 108 193 156 q 360 61 274 61 q 512 124 453 61 q 571 290 571 186 l 571 674 l 656 674 l 656 0 l 574 0 l 574 119 q 481 22 540 56 q 349 -11 422 -11 m 353 765 l 176 1044 l 274 1044 l 417 765 l 353 765 z "},"ủ":{"ha":768,"x_min":108,"x_max":656,"o":"m 349 -11 q 108 250 108 -11 l 108 674 l 193 674 l 193 254 q 233 108 193 156 q 360 61 274 61 q 512 124 453 61 q 571 290 571 186 l 571 674 l 656 674 l 656 0 l 574 0 l 574 119 q 481 22 540 56 q 349 -11 422 -11 m 353 765 l 353 793 q 367 848 353 826 q 399 885 381 869 q 431 915 417 900 q 444 953 444 931 q 375 993 444 993 q 333 988 354 993 q 288 972 313 983 l 271 1024 q 389 1053 317 1053 q 484 1028 450 1053 q 518 960 518 1004 q 503 904 518 925 q 467 868 488 883 q 432 835 447 853 q 417 786 417 817 l 417 765 l 353 765 z "},"ư":{"ha":768,"x_min":108,"x_max":821,"o":"m 349 -11 q 108 250 108 -11 l 108 674 l 193 674 l 193 254 q 233 108 193 156 q 360 61 274 61 q 512 124 453 61 q 571 290 571 186 l 571 674 l 656 674 l 656 0 l 574 0 l 574 119 q 481 22 540 56 q 349 -11 422 -11 m 622 613 l 583 642 l 583 674 q 710 715 678 675 q 743 836 743 756 l 743 856 l 821 856 l 821 822 q 769 672 821 726 q 622 613 718 618 z "},"ứ":{"ha":768,"x_min":108,"x_max":821,"o":"m 349 -11 q 108 250 108 -11 l 108 674 l 193 674 l 193 254 q 233 108 193 156 q 360 61 274 61 q 512 124 453 61 q 571 290 571 186 l 571 674 l 656 674 l 656 0 l 574 0 l 574 119 q 481 22 540 56 q 349 -11 422 -11 m 622 613 l 583 642 l 583 674 q 710 715 678 675 q 743 836 743 756 l 743 856 l 821 856 l 821 822 q 769 672 821 726 q 622 613 718 618 m 353 764 l 496 1043 l 593 1043 l 417 764 l 353 764 z "},"ự":{"ha":768,"x_min":108,"x_max":821,"o":"m 349 -11 q 108 250 108 -11 l 108 674 l 193 674 l 193 254 q 233 108 193 156 q 360 61 274 61 q 512 124 453 61 q 571 290 571 186 l 571 674 l 656 674 l 656 0 l 574 0 l 574 119 q 481 22 540 56 q 349 -11 422 -11 m 622 613 l 583 642 l 583 674 q 710 715 678 675 q 743 836 743 756 l 743 856 l 821 856 l 821 822 q 769 672 821 726 q 622 613 718 618 m 331 -249 l 331 -144 l 439 -144 l 439 -249 l 331 -249 z "},"ừ":{"ha":768,"x_min":108,"x_max":821,"o":"m 349 -11 q 108 250 108 -11 l 108 674 l 193 674 l 193 254 q 233 108 193 156 q 360 61 274 61 q 512 124 453 61 q 571 290 571 186 l 571 674 l 656 674 l 656 0 l 574 0 l 574 119 q 481 22 540 56 q 349 -11 422 -11 m 622 613 l 583 642 l 583 674 q 710 715 678 675 q 743 836 743 756 l 743 856 l 821 856 l 821 822 q 769 672 821 726 q 622 613 718 618 m 353 764 l 176 1043 l 274 1043 l 417 764 l 353 764 z "},"ử":{"ha":768,"x_min":108,"x_max":821,"o":"m 349 -11 q 108 250 108 -11 l 108 674 l 193 674 l 193 254 q 233 108 193 156 q 360 61 274 61 q 512 124 453 61 q 571 290 571 186 l 571 674 l 656 674 l 656 0 l 574 0 l 574 119 q 481 22 540 56 q 349 -11 422 -11 m 622 613 l 583 642 l 583 674 q 710 715 678 675 q 743 836 743 756 l 743 856 l 821 856 l 821 822 q 769 672 821 726 q 622 613 718 618 m 353 764 l 353 792 q 367 847 353 825 q 399 883 381 868 q 431 914 417 899 q 444 951 444 929 q 375 992 444 992 q 333 987 354 992 q 288 971 313 982 l 271 1022 q 389 1051 317 1051 q 484 1027 450 1051 q 518 958 518 1003 q 503 903 518 924 q 467 867 488 882 q 432 833 447 851 q 417 785 417 815 l 417 764 l 353 764 z "}}}
